%TF.GenerationSoftware,Altium Limited,Altium Designer,23.11.1 (41)*%
G04 Layer_Physical_Order=1*
G04 Layer_Color=255*
%FSLAX45Y45*%
%MOMM*%
%TF.SameCoordinates,A167E3D1-D2EE-47D6-BB63-3A09D1C29133*%
%TF.FilePolarity,Positive*%
%TF.FileFunction,Copper,L1,Top,Signal*%
%TF.Part,Single*%
G01*
G75*
%TA.AperFunction,Conductor*%
%ADD10C,0.13865*%
%ADD11C,0.12700*%
%ADD12C,0.18000*%
%TA.AperFunction,SMDPad,CuDef*%
%ADD13R,1.00000X0.90000*%
%ADD14R,0.70000X1.50000*%
%ADD15R,3.25000X2.15000*%
%ADD16R,0.95000X2.15000*%
%TA.AperFunction,ConnectorPad*%
%ADD17R,1.60000X0.70000*%
%ADD18R,2.20000X1.20000*%
%ADD19R,1.40000X1.60000*%
%ADD20R,1.40000X1.20000*%
%TA.AperFunction,SMDPad,CuDef*%
%ADD21R,0.30000X1.45000*%
%ADD22R,1.45000X0.30000*%
%ADD23R,1.60000X1.80000*%
%ADD24R,1.00000X0.90000*%
%TA.AperFunction,ConnectorPad*%
%ADD25R,1.53580X1.00000*%
%TA.AperFunction,SMDPad,CuDef*%
%ADD26R,0.60000X1.55000*%
%ADD27R,0.35000X0.90000*%
%ADD28R,2.90000X0.60000*%
%ADD29R,2.50000X2.00000*%
%ADD30R,1.05000X1.10000*%
%ADD31R,1.10000X2.25000*%
%ADD32R,0.90000X1.00000*%
%ADD33R,0.60000X1.23000*%
%ADD34R,1.75000X1.75000*%
%ADD35R,1.75000X1.75000*%
%ADD36R,1.80000X1.50000*%
%TA.AperFunction,Conductor*%
%ADD37C,0.25400*%
%ADD38C,0.30000*%
%ADD39C,0.60000*%
%ADD40C,0.15240*%
%ADD41R,1.45000X1.50000*%
%TA.AperFunction,ComponentPad*%
%ADD42C,1.80000*%
%TA.AperFunction,ViaPad*%
%ADD43C,1.80000*%
%TA.AperFunction,ComponentPad*%
%ADD44C,1.00000*%
%ADD45C,1.10000*%
%TA.AperFunction,ViaPad*%
%ADD46C,1.00000*%
%ADD47C,0.50000*%
G36*
X3687500Y4620000D02*
X4190000D01*
Y4490000D01*
X3580000D01*
Y4917500D01*
X3687500D01*
Y4620000D01*
D02*
G37*
G36*
X4216253Y4970000D02*
Y4636756D01*
X4203553Y4631560D01*
X4202700Y4632429D01*
Y4642700D01*
X3997300D01*
Y4633747D01*
X3701247D01*
Y4917500D01*
X3700200Y4920027D01*
Y4930200D01*
X3690027D01*
X3687500Y4931247D01*
X3580000D01*
X3570280Y4927221D01*
X3566253Y4917500D01*
Y4490000D01*
X3570280Y4480280D01*
X3580000Y4476253D01*
X3997300D01*
Y4467300D01*
X4202700D01*
Y4477571D01*
X4203553Y4478440D01*
X4216253Y4473244D01*
Y4230000D01*
X4220280Y4220280D01*
X4230000Y4216253D01*
X4970000D01*
X4979609Y4209833D01*
X4979609Y791208D01*
X4966909Y783746D01*
X4230000D01*
X4220280Y779720D01*
X4216253Y770000D01*
Y30000D01*
X4209833Y20391D01*
X3671206D01*
X3663747Y33091D01*
X3663748Y426597D01*
X3663384Y427475D01*
X3663630Y428392D01*
X3662560Y436515D01*
X3662086Y437337D01*
X3662210Y438278D01*
X3660089Y446192D01*
X3659511Y446945D01*
Y447895D01*
X3656376Y455464D01*
X3655704Y456135D01*
X3655580Y457077D01*
X3651484Y464172D01*
X3650731Y464750D01*
X3650485Y465667D01*
X3645497Y472167D01*
X3644675Y472641D01*
X3644312Y473519D01*
X3638519Y479312D01*
X3637642Y479675D01*
X3637167Y480497D01*
X3630667Y485485D01*
X3629750Y485731D01*
X3629172Y486484D01*
X3622077Y490580D01*
X3621135Y490704D01*
X3620464Y491376D01*
X3612895Y494511D01*
X3611945D01*
X3611192Y495089D01*
X3603278Y497210D01*
X3602337Y497086D01*
X3601515Y497560D01*
X3593392Y498630D01*
X3592475Y498384D01*
X3591597Y498748D01*
X3458405D01*
X3457528Y498384D01*
X3456610Y498630D01*
X3448487Y497560D01*
X3447665Y497086D01*
X3446724Y497210D01*
X3438810Y495089D01*
X3438057Y494511D01*
X3437107D01*
X3429538Y491376D01*
X3428867Y490704D01*
X3427926Y490580D01*
X3420830Y486484D01*
X3420252Y485731D01*
X3419335Y485485D01*
X3412835Y480497D01*
X3412361Y479675D01*
X3411483Y479312D01*
X3405690Y473519D01*
X3405327Y472642D01*
X3404505Y472167D01*
X3399517Y465667D01*
X3399272Y464750D01*
X3398518Y464172D01*
X3394422Y457077D01*
X3394298Y456135D01*
X3393626Y455464D01*
X3390491Y447895D01*
Y446945D01*
X3389913Y446192D01*
X3387793Y438278D01*
X3387917Y437337D01*
X3387442Y436515D01*
X3386372Y428392D01*
X3386618Y427475D01*
X3386255Y426597D01*
X3386254Y30001D01*
X3379832Y20391D01*
X3320169D01*
X3313748Y30001D01*
Y426597D01*
X3313384Y427475D01*
X3313630Y428392D01*
X3312560Y436515D01*
X3312086Y437337D01*
X3312210Y438278D01*
X3310089Y446192D01*
X3309511Y446945D01*
Y447895D01*
X3306376Y455464D01*
X3305704Y456135D01*
X3305580Y457077D01*
X3301484Y464172D01*
X3300731Y464750D01*
X3300485Y465667D01*
X3295497Y472167D01*
X3294675Y472641D01*
X3294312Y473519D01*
X3288519Y479312D01*
X3287642Y479675D01*
X3287167Y480497D01*
X3280667Y485485D01*
X3279750Y485731D01*
X3279172Y486484D01*
X3272077Y490580D01*
X3271135Y490704D01*
X3270464Y491376D01*
X3262895Y494511D01*
X3261945D01*
X3261192Y495089D01*
X3253278Y497210D01*
X3252337Y497086D01*
X3251515Y497560D01*
X3243392Y498630D01*
X3242475Y498384D01*
X3241597Y498748D01*
X3108405D01*
X3107527Y498384D01*
X3106610Y498630D01*
X3098487Y497560D01*
X3097665Y497086D01*
X3096724Y497210D01*
X3088810Y495089D01*
X3088057Y494511D01*
X3087107D01*
X3079538Y491376D01*
X3078867Y490704D01*
X3077926Y490580D01*
X3070830Y486484D01*
X3070252Y485731D01*
X3069335Y485485D01*
X3062835Y480497D01*
X3062361Y479675D01*
X3061483Y479312D01*
X3055690Y473519D01*
X3055327Y472642D01*
X3054505Y472167D01*
X3049517Y465667D01*
X3049272Y464750D01*
X3048518Y464172D01*
X3044422Y457077D01*
X3044298Y456135D01*
X3043626Y455464D01*
X3040491Y447895D01*
Y446945D01*
X3039913Y446192D01*
X3037793Y438278D01*
X3037916Y437337D01*
X3037442Y436515D01*
X3036372Y428392D01*
X3036618Y427475D01*
X3036255Y426597D01*
Y30001D01*
X3029833Y20391D01*
X2971206D01*
X2963747Y33091D01*
X2963747Y426597D01*
X2963384Y427475D01*
X2963630Y428392D01*
X2962560Y436515D01*
X2962086Y437337D01*
X2962209Y438278D01*
X2960089Y446192D01*
X2959511Y446945D01*
Y447895D01*
X2956376Y455464D01*
X2955704Y456135D01*
X2955580Y457077D01*
X2951484Y464172D01*
X2950731Y464750D01*
X2950485Y465667D01*
X2945497Y472167D01*
X2944675Y472641D01*
X2944312Y473519D01*
X2938519Y479312D01*
X2937642Y479675D01*
X2937167Y480497D01*
X2930667Y485485D01*
X2929750Y485731D01*
X2929172Y486484D01*
X2922076Y490580D01*
X2921135Y490704D01*
X2920464Y491376D01*
X2912895Y494511D01*
X2911945D01*
X2911192Y495089D01*
X2903278Y497210D01*
X2902337Y497086D01*
X2901515Y497560D01*
X2893392Y498630D01*
X2892475Y498384D01*
X2891597Y498748D01*
X2758405D01*
X2757527Y498384D01*
X2756610Y498630D01*
X2748487Y497560D01*
X2747665Y497086D01*
X2746724Y497210D01*
X2738810Y495089D01*
X2738057Y494511D01*
X2737107D01*
X2729538Y491376D01*
X2728867Y490704D01*
X2727925Y490580D01*
X2720830Y486484D01*
X2720252Y485731D01*
X2719335Y485485D01*
X2712835Y480497D01*
X2712361Y479675D01*
X2711483Y479312D01*
X2705690Y473519D01*
X2705327Y472642D01*
X2704505Y472167D01*
X2699517Y465667D01*
X2699271Y464750D01*
X2698518Y464172D01*
X2694422Y457077D01*
X2694298Y456135D01*
X2693626Y455464D01*
X2690491Y447895D01*
Y446945D01*
X2689913Y446192D01*
X2687792Y438278D01*
X2687916Y437337D01*
X2687442Y436515D01*
X2686372Y428392D01*
X2686618Y427475D01*
X2686254Y426597D01*
X2686254Y30001D01*
X2679832Y20391D01*
X2620169D01*
X2613747Y30001D01*
Y426597D01*
X2613384Y427475D01*
X2613630Y428392D01*
X2612560Y436515D01*
X2612085Y437337D01*
X2612209Y438278D01*
X2610089Y446192D01*
X2609511Y446945D01*
Y447895D01*
X2606376Y455464D01*
X2605704Y456135D01*
X2605580Y457077D01*
X2601484Y464172D01*
X2600731Y464750D01*
X2600485Y465667D01*
X2595497Y472167D01*
X2594675Y472641D01*
X2594312Y473519D01*
X2588519Y479312D01*
X2587642Y479675D01*
X2587167Y480497D01*
X2580667Y485485D01*
X2579750Y485731D01*
X2579172Y486484D01*
X2572076Y490580D01*
X2571135Y490704D01*
X2570464Y491376D01*
X2562895Y494511D01*
X2561945D01*
X2561192Y495089D01*
X2553278Y497210D01*
X2552337Y497086D01*
X2551515Y497560D01*
X2543392Y498630D01*
X2542474Y498384D01*
X2541597Y498748D01*
X2408405D01*
X2407527Y498384D01*
X2406610Y498630D01*
X2398487Y497560D01*
X2397665Y497086D01*
X2396724Y497210D01*
X2388810Y495089D01*
X2388057Y494511D01*
X2387107D01*
X2379538Y491376D01*
X2378867Y490704D01*
X2377925Y490580D01*
X2370830Y486484D01*
X2370252Y485731D01*
X2369335Y485485D01*
X2362835Y480497D01*
X2362361Y479675D01*
X2361483Y479312D01*
X2355690Y473519D01*
X2355327Y472642D01*
X2354505Y472167D01*
X2349517Y465667D01*
X2349271Y464750D01*
X2348518Y464172D01*
X2344422Y457077D01*
X2344298Y456135D01*
X2343626Y455464D01*
X2340491Y447895D01*
Y446945D01*
X2339913Y446192D01*
X2337792Y438278D01*
X2337916Y437337D01*
X2337442Y436515D01*
X2336372Y428392D01*
X2336618Y427475D01*
X2336254Y426597D01*
Y30001D01*
X2329833Y20391D01*
X2271206D01*
X2263747Y33091D01*
X2263748Y426597D01*
X2263384Y427475D01*
X2263630Y428392D01*
X2262560Y436515D01*
X2262086Y437337D01*
X2262210Y438278D01*
X2260089Y446192D01*
X2259511Y446945D01*
Y447895D01*
X2256376Y455464D01*
X2255704Y456135D01*
X2255580Y457077D01*
X2251484Y464172D01*
X2250731Y464750D01*
X2250485Y465667D01*
X2245497Y472167D01*
X2244675Y472641D01*
X2244312Y473519D01*
X2238519Y479312D01*
X2237642Y479675D01*
X2237167Y480497D01*
X2230667Y485485D01*
X2229750Y485731D01*
X2229172Y486484D01*
X2222077Y490580D01*
X2221135Y490704D01*
X2220464Y491376D01*
X2212895Y494511D01*
X2211945D01*
X2211192Y495089D01*
X2203278Y497210D01*
X2202337Y497086D01*
X2201515Y497560D01*
X2193392Y498630D01*
X2192475Y498384D01*
X2191597Y498748D01*
X2147126D01*
Y525836D01*
X2194157Y572867D01*
X2490510D01*
X2500346Y563032D01*
X2514202Y557292D01*
X2529200D01*
X2543056Y563032D01*
X2553661Y573637D01*
X2559401Y587493D01*
Y602491D01*
X2553661Y616348D01*
X2543056Y626953D01*
X2529200Y632692D01*
X2514202D01*
X2500346Y626953D01*
X2490510Y617117D01*
X2184992D01*
X2176525Y615433D01*
X2169347Y610637D01*
X2109356Y550646D01*
X2104560Y543468D01*
X2102876Y535001D01*
Y498748D01*
X2058405D01*
X2057528Y498384D01*
X2056610Y498630D01*
X2048487Y497560D01*
X2047665Y497086D01*
X2046724Y497210D01*
X2038810Y495089D01*
X2038057Y494511D01*
X2037107D01*
X2029538Y491376D01*
X2028867Y490704D01*
X2027926Y490580D01*
X2020830Y486484D01*
X2020252Y485731D01*
X2019335Y485485D01*
X2012835Y480497D01*
X2012361Y479675D01*
X2011483Y479312D01*
X2005690Y473519D01*
X2005327Y472642D01*
X2004505Y472167D01*
X1999517Y465667D01*
X1999272Y464750D01*
X1998518Y464172D01*
X1994422Y457077D01*
X1994298Y456135D01*
X1993626Y455464D01*
X1990491Y447895D01*
Y446945D01*
X1989913Y446192D01*
X1987793Y438278D01*
X1987917Y437337D01*
X1987442Y436515D01*
X1986372Y428392D01*
X1986618Y427475D01*
X1986255Y426597D01*
X1986254Y30001D01*
X1979832Y20391D01*
X1920169D01*
X1913748Y30001D01*
Y426597D01*
X1913384Y427475D01*
X1913630Y428392D01*
X1912560Y436515D01*
X1912086Y437337D01*
X1912210Y438278D01*
X1910089Y446192D01*
X1909511Y446945D01*
Y447895D01*
X1906376Y455464D01*
X1905704Y456135D01*
X1905580Y457077D01*
X1901484Y464172D01*
X1900731Y464750D01*
X1900485Y465667D01*
X1895497Y472167D01*
X1894675Y472641D01*
X1894312Y473519D01*
X1888519Y479312D01*
X1887642Y479675D01*
X1887167Y480497D01*
X1880667Y485485D01*
X1879750Y485731D01*
X1879172Y486484D01*
X1872077Y490580D01*
X1871135Y490704D01*
X1870464Y491376D01*
X1862895Y494511D01*
X1861945D01*
X1861192Y495089D01*
X1853278Y497210D01*
X1852337Y497086D01*
X1851515Y497560D01*
X1843392Y498630D01*
X1842475Y498384D01*
X1841597Y498748D01*
X1708405D01*
X1707527Y498384D01*
X1706610Y498630D01*
X1698487Y497560D01*
X1697665Y497086D01*
X1696724Y497210D01*
X1688810Y495089D01*
X1688057Y494511D01*
X1687107D01*
X1679538Y491376D01*
X1678867Y490704D01*
X1677926Y490580D01*
X1670830Y486484D01*
X1670252Y485731D01*
X1669335Y485485D01*
X1662835Y480497D01*
X1662361Y479675D01*
X1661483Y479312D01*
X1655690Y473519D01*
X1655327Y472642D01*
X1654505Y472167D01*
X1649517Y465667D01*
X1649272Y464750D01*
X1648518Y464172D01*
X1644422Y457077D01*
X1644298Y456135D01*
X1643626Y455464D01*
X1640491Y447895D01*
Y446945D01*
X1639913Y446192D01*
X1637793Y438278D01*
X1637916Y437337D01*
X1637442Y436515D01*
X1636372Y428392D01*
X1636618Y427475D01*
X1636255Y426597D01*
Y30001D01*
X1629833Y20391D01*
X1220169D01*
X1213747Y30001D01*
Y426597D01*
X1213384Y427475D01*
X1213630Y428392D01*
X1212560Y436515D01*
X1212085Y437337D01*
X1212209Y438278D01*
X1210089Y446192D01*
X1209511Y446945D01*
Y447895D01*
X1206376Y455464D01*
X1205704Y456135D01*
X1205580Y457077D01*
X1201484Y464172D01*
X1200731Y464750D01*
X1200485Y465667D01*
X1195497Y472167D01*
X1194675Y472641D01*
X1194312Y473519D01*
X1188519Y479312D01*
X1187642Y479675D01*
X1187167Y480497D01*
X1180667Y485485D01*
X1179750Y485731D01*
X1179172Y486484D01*
X1172076Y490580D01*
X1171135Y490704D01*
X1170464Y491376D01*
X1162895Y494511D01*
X1161945D01*
X1161192Y495089D01*
X1153278Y497210D01*
X1152337Y497086D01*
X1151515Y497560D01*
X1143392Y498630D01*
X1142474Y498384D01*
X1141597Y498748D01*
X1008405D01*
X1007527Y498384D01*
X1006610Y498630D01*
X998487Y497560D01*
X997665Y497086D01*
X996724Y497210D01*
X988810Y495089D01*
X988057Y494511D01*
X987107D01*
X979538Y491376D01*
X978867Y490704D01*
X977925Y490580D01*
X970830Y486484D01*
X970252Y485731D01*
X969335Y485485D01*
X962835Y480497D01*
X962361Y479675D01*
X961483Y479312D01*
X955690Y473519D01*
X955327Y472642D01*
X954505Y472167D01*
X949517Y465667D01*
X949271Y464750D01*
X948518Y464172D01*
X944422Y457077D01*
X944298Y456135D01*
X943626Y455464D01*
X940491Y447895D01*
Y446945D01*
X939913Y446192D01*
X937792Y438278D01*
X937916Y437337D01*
X937442Y436515D01*
X936372Y428392D01*
X936618Y427475D01*
X936254Y426597D01*
Y30001D01*
X929833Y20391D01*
X790167D01*
X783746Y30000D01*
Y770000D01*
X781603Y775174D01*
X788159Y787875D01*
X1268835D01*
X1270292Y786418D01*
Y772508D01*
X1276032Y758652D01*
X1286637Y748047D01*
X1300493Y742308D01*
X1315491D01*
X1329348Y748047D01*
X1339953Y758652D01*
X1345692Y772508D01*
Y787507D01*
X1339953Y801363D01*
X1329348Y811968D01*
X1315491Y817708D01*
X1301582D01*
X1293645Y825645D01*
X1286467Y830441D01*
X1278000Y832125D01*
X688884D01*
X687212Y844825D01*
X707641Y850299D01*
X731059Y863819D01*
X750180Y882941D01*
X763701Y906359D01*
X770700Y932479D01*
Y959521D01*
X763701Y985641D01*
X754634Y1001344D01*
X801165Y1047875D01*
X1630835D01*
X1769800Y908910D01*
Y895001D01*
X1775539Y881145D01*
X1786145Y870539D01*
X1800001Y864800D01*
X1814999D01*
X1828855Y870539D01*
X1839460Y881145D01*
X1845200Y895001D01*
Y909999D01*
X1839460Y923855D01*
X1828855Y934460D01*
X1814999Y940200D01*
X1801090D01*
X1655645Y1085645D01*
X1648467Y1090441D01*
X1640000Y1092125D01*
X792000D01*
X783533Y1090441D01*
X776355Y1085645D01*
X723345Y1032634D01*
X707641Y1041701D01*
X681521Y1048700D01*
X654479D01*
X628359Y1041701D01*
X604941Y1028180D01*
X585820Y1009059D01*
X572299Y985641D01*
X565300Y959521D01*
Y932479D01*
X572299Y906359D01*
X585820Y882941D01*
X604941Y863819D01*
X628359Y850299D01*
X648788Y844825D01*
X647116Y832125D01*
X559164D01*
X500634Y890655D01*
X509701Y906359D01*
X516700Y932479D01*
Y959521D01*
X509701Y985641D01*
X496180Y1009059D01*
X477059Y1028180D01*
X453641Y1041701D01*
X427521Y1048700D01*
X400479D01*
X374359Y1041701D01*
X350941Y1028180D01*
X331820Y1009059D01*
X318299Y985641D01*
X311300Y959521D01*
Y932479D01*
X318299Y906359D01*
X331820Y882941D01*
X350941Y863819D01*
X374359Y850299D01*
X400479Y843300D01*
X427521D01*
X453641Y850299D01*
X469345Y859366D01*
X532264Y796446D01*
X530364Y788292D01*
X527372Y783746D01*
X30000D01*
X20391Y790167D01*
Y4209833D01*
X30000Y4216253D01*
X770000D01*
X779720Y4220280D01*
X783746Y4230000D01*
Y4970000D01*
X790167Y4979609D01*
X928792D01*
X936254Y4966909D01*
X936254Y4573404D01*
X936617Y4572527D01*
X936371Y4571609D01*
X937441Y4563486D01*
X937916Y4562664D01*
X937792Y4561723D01*
X939912Y4553809D01*
X940490Y4553056D01*
Y4552106D01*
X943625Y4544537D01*
X944297Y4543866D01*
X944421Y4542925D01*
X948517Y4535829D01*
X949270Y4535251D01*
X949516Y4534334D01*
X954504Y4527834D01*
X955326Y4527360D01*
X955689Y4526482D01*
X961482Y4520689D01*
X962360Y4520326D01*
X962834Y4519504D01*
X969334Y4514516D01*
X970251Y4514271D01*
X970829Y4513517D01*
X977925Y4509421D01*
X978866Y4509297D01*
X979537Y4508625D01*
X987106Y4505490D01*
X988056D01*
X988809Y4504912D01*
X996723Y4502792D01*
X997664Y4502916D01*
X998486Y4502441D01*
X1006609Y4501371D01*
X1007527Y4501617D01*
X1008404Y4501254D01*
X1141596D01*
X1142474Y4501617D01*
X1143391Y4501371D01*
X1151514Y4502441D01*
X1152336Y4502916D01*
X1153277Y4502792D01*
X1161191Y4504912D01*
X1161944Y4505490D01*
X1162894D01*
X1170463Y4508625D01*
X1171134Y4509297D01*
X1172076Y4509421D01*
X1179171Y4513517D01*
X1179749Y4514270D01*
X1180666Y4514516D01*
X1187166Y4519504D01*
X1187640Y4520326D01*
X1188518Y4520689D01*
X1194311Y4526482D01*
X1194674Y4527359D01*
X1195496Y4527834D01*
X1200484Y4534334D01*
X1200730Y4535251D01*
X1201483Y4535829D01*
X1205580Y4542925D01*
X1205703Y4543866D01*
X1206375Y4544537D01*
X1209510Y4552106D01*
Y4553056D01*
X1210088Y4553809D01*
X1212209Y4561723D01*
X1212085Y4562664D01*
X1212559Y4563486D01*
X1213629Y4571609D01*
X1213383Y4572527D01*
X1213747Y4573404D01*
X1213747Y4970000D01*
X1220168Y4979609D01*
X1628792D01*
X1636254Y4966909D01*
X1636254Y4573404D01*
X1636254Y4573403D01*
Y4153703D01*
X1627200Y4144900D01*
X1623554Y4144900D01*
X1617026D01*
X1614500Y4145946D01*
X1450000D01*
X1440280Y4141920D01*
X1436253Y4132200D01*
Y3437200D01*
X1440280Y3427480D01*
X1450000Y3423454D01*
X1614500D01*
X1617026Y3424500D01*
X1627200D01*
Y3434674D01*
X1628246Y3437200D01*
Y3943347D01*
X1640280Y3947483D01*
X1650000Y3943457D01*
X1681500Y3943456D01*
X1868500Y3943454D01*
X1899997Y3943453D01*
X1899998Y3943452D01*
X1909719Y3947479D01*
X1910344Y3948990D01*
X1913745Y3957199D01*
X1913747Y4577500D01*
X1913746Y4577501D01*
X1913747Y4970000D01*
X1920168Y4979609D01*
X2328792D01*
X2336254Y4966909D01*
X2336254Y4577500D01*
Y4153703D01*
X2327200Y4144900D01*
X2323553Y4144900D01*
X2317026D01*
X2314500Y4145946D01*
X2150000D01*
X2140279Y4141920D01*
X2136253Y4132200D01*
Y3437200D01*
X2140279Y3427480D01*
X2150000Y3423454D01*
X2314500D01*
X2317026Y3424500D01*
X2327200D01*
Y3434674D01*
X2328246Y3437200D01*
Y3943355D01*
X2340280Y3947491D01*
X2350000Y3943464D01*
X2381499Y3943464D01*
X2568499Y3943454D01*
X2568500Y3943454D01*
X2568502Y3943454D01*
X2600001Y3943458D01*
X2604718Y3945413D01*
X2609719Y3947485D01*
X2609720Y3947486D01*
X2609721Y3947486D01*
X2611792Y3952490D01*
X2613745Y3957205D01*
X2613747Y4573404D01*
X2613747Y4970000D01*
X2620168Y4979609D01*
X4209833D01*
X4216253Y4970000D01*
D02*
G37*
G36*
X2599999Y3957205D02*
X2568500Y3957200D01*
X2381500Y3957210D01*
X2350000Y3957211D01*
Y4577500D01*
X2600000D01*
X2599999Y3957205D01*
D02*
G37*
G36*
X1899998Y3957200D02*
X1868500Y3957200D01*
X1681500Y3957203D01*
X1650000Y3957203D01*
Y4577500D01*
X1900000D01*
X1899998Y3957200D01*
D02*
G37*
G36*
X2314500Y3437200D02*
X2150000D01*
Y4132200D01*
X2314500D01*
Y3437200D01*
D02*
G37*
G36*
X1614500D02*
X1450000D01*
Y4132200D01*
X1614500D01*
Y3437200D01*
D02*
G37*
%LPC*%
G36*
X3470000Y4931247D02*
X3362500D01*
X3359973Y4930200D01*
X3349800D01*
Y4920027D01*
X3348754Y4917500D01*
Y4633747D01*
X3282700D01*
Y4642700D01*
X3077300D01*
Y4622527D01*
X3076253Y4620000D01*
Y4490000D01*
X3077300Y4487473D01*
Y4467300D01*
X3282700D01*
Y4476253D01*
X3470000D01*
X3479720Y4480280D01*
X3483747Y4490000D01*
Y4917500D01*
X3479720Y4927221D01*
X3470000Y4931247D01*
D02*
G37*
G36*
X3815200Y4350200D02*
X3464800D01*
Y4109800D01*
X3815200D01*
Y4350200D01*
D02*
G37*
G36*
X4307700Y4149300D02*
X4107300D01*
Y4071225D01*
X3943100D01*
Y4071704D01*
X3915742Y4068103D01*
X3890248Y4057543D01*
X3868356Y4040744D01*
X3867938Y4040200D01*
X3817300D01*
Y3891800D01*
X3902700D01*
Y4011323D01*
X3919639Y4022641D01*
X3942262Y4027142D01*
X3943100Y4026975D01*
X4107300D01*
Y3948900D01*
X4307700D01*
Y4149300D01*
D02*
G37*
G36*
X4962700D02*
X4762300D01*
Y3948900D01*
X4962700D01*
Y4149300D01*
D02*
G37*
G36*
X628913Y3907700D02*
X611087D01*
X593869Y3903086D01*
X578431Y3894174D01*
X565827Y3881569D01*
X556914Y3866131D01*
X552300Y3848913D01*
Y3831087D01*
X556914Y3813869D01*
X565827Y3798432D01*
X578431Y3785827D01*
X593869Y3776914D01*
X611087Y3772300D01*
X628913D01*
X646131Y3776914D01*
X661569Y3785827D01*
X674173Y3798432D01*
X683086Y3813869D01*
X687700Y3831087D01*
Y3848913D01*
X683086Y3866131D01*
X674173Y3881569D01*
X661569Y3894174D01*
X646131Y3903086D01*
X628913Y3907700D01*
D02*
G37*
G36*
X1330000Y3913746D02*
X1185000D01*
X1182474Y3912700D01*
X1084300D01*
Y3823536D01*
X898000D01*
X893795Y3822700D01*
X740300D01*
Y3737300D01*
Y3657300D01*
Y3577300D01*
Y3497300D01*
X1055700D01*
Y3623051D01*
X1088641D01*
X1565845Y3145846D01*
X1572340Y3141507D01*
X1580000Y3139983D01*
X1952300D01*
Y3133101D01*
X1958040Y3119245D01*
X1968645Y3108640D01*
X1982501Y3102900D01*
X1997499D01*
X2011355Y3108640D01*
X2021961Y3119245D01*
X2027700Y3133101D01*
Y3148099D01*
X2021961Y3161956D01*
X2011966Y3171950D01*
X2021961Y3181945D01*
X2027700Y3195801D01*
Y3210799D01*
X2021961Y3224655D01*
X2011355Y3235261D01*
X1997499Y3241000D01*
X1982501D01*
X1968645Y3235261D01*
X1958040Y3224655D01*
X1953577Y3213882D01*
X1602318D01*
X1125114Y3691087D01*
X1118620Y3695426D01*
X1110959Y3696950D01*
X1055700D01*
Y3736464D01*
X1132000D01*
X1136205Y3737300D01*
X1182474D01*
X1185000Y3736254D01*
X1330000D01*
X1339720Y3740280D01*
X1343746Y3750000D01*
Y3900000D01*
X1339720Y3909720D01*
X1330000Y3913746D01*
D02*
G37*
G36*
X3997700Y3828200D02*
X3912300D01*
Y3679800D01*
X3997700D01*
Y3828200D01*
D02*
G37*
G36*
X2581200Y3604900D02*
X2495800D01*
Y3558898D01*
X2483100Y3550411D01*
X2478299Y3552400D01*
X2463301D01*
X2454200Y3558481D01*
Y3604900D01*
X2368800D01*
Y3424500D01*
X2454200D01*
Y3470919D01*
X2463301Y3477000D01*
X2478299D01*
X2483100Y3478989D01*
X2495800Y3470503D01*
Y3424500D01*
X2581200D01*
Y3604900D01*
D02*
G37*
G36*
X3807700Y3828200D02*
X3722300D01*
Y3679800D01*
X3742875D01*
Y3570000D01*
X3744559Y3561533D01*
X3744800Y3561173D01*
Y3507300D01*
X3860200D01*
Y3632700D01*
X3787125D01*
Y3679800D01*
X3807700D01*
Y3828200D01*
D02*
G37*
G36*
X1881200Y3604900D02*
X1795800D01*
Y3424500D01*
X1881200D01*
Y3604900D01*
D02*
G37*
G36*
X628913Y3467700D02*
X611087D01*
X593869Y3463086D01*
X578431Y3454173D01*
X565827Y3441569D01*
X556914Y3426131D01*
X552300Y3408913D01*
Y3391087D01*
X556914Y3373869D01*
X565827Y3358431D01*
X578431Y3345827D01*
X593869Y3336914D01*
X611087Y3332300D01*
X628913D01*
X646131Y3336914D01*
X661569Y3345827D01*
X674173Y3358431D01*
X683086Y3373869D01*
X687700Y3391087D01*
Y3408913D01*
X683086Y3426131D01*
X674173Y3441569D01*
X661569Y3454173D01*
X646131Y3463086D01*
X628913Y3467700D01*
D02*
G37*
G36*
X4962700Y3494300D02*
X4762300D01*
Y3293900D01*
X4962700D01*
Y3494300D01*
D02*
G37*
G36*
X4957700Y3112700D02*
X4778720D01*
Y2987300D01*
X4957700D01*
Y3112700D01*
D02*
G37*
G36*
X1754200Y3604900D02*
X1668800D01*
Y3424500D01*
X1689375D01*
Y3388500D01*
X1691059Y3380033D01*
X1695855Y3372855D01*
X1784355Y3284355D01*
X1791533Y3279559D01*
X1800000Y3277875D01*
X1990911D01*
X2095665Y3173121D01*
Y3042700D01*
X1929800D01*
Y2987300D01*
Y2887300D01*
Y2787300D01*
X2100200D01*
Y2839886D01*
X2161650D01*
X2166930Y2834606D01*
X2180786Y2828866D01*
X2195785D01*
X2209641Y2834606D01*
X2220246Y2845211D01*
X2224725Y2856025D01*
X2237719Y2860991D01*
X2537875Y2560835D01*
Y2405200D01*
X2382300D01*
Y2234800D01*
X2387875D01*
Y2230000D01*
X2389407Y2222299D01*
X2386901Y2216249D01*
Y2201251D01*
X2392640Y2187395D01*
X2403246Y2176789D01*
X2417102Y2171050D01*
X2432100D01*
X2445956Y2176789D01*
X2456562Y2187395D01*
X2462301Y2201251D01*
Y2216249D01*
X2459877Y2222100D01*
X2468363Y2234800D01*
X2487875D01*
Y2210000D01*
X2489559Y2201533D01*
X2494355Y2194355D01*
X2532300Y2156410D01*
Y2142501D01*
X2538039Y2128645D01*
X2548645Y2118039D01*
X2562501Y2112300D01*
X2577499D01*
X2591355Y2118039D01*
X2601961Y2128645D01*
X2607700Y2142501D01*
Y2157499D01*
X2601961Y2171355D01*
X2591355Y2181961D01*
X2577499Y2187700D01*
X2563590D01*
X2532125Y2219164D01*
Y2234800D01*
X2637875D01*
Y2181191D01*
X2628039Y2171355D01*
X2622300Y2157499D01*
Y2142501D01*
X2628039Y2128645D01*
X2638645Y2118039D01*
X2652501Y2112300D01*
X2667499D01*
X2681355Y2118039D01*
X2691961Y2128645D01*
X2697700Y2142501D01*
Y2157499D01*
X2691961Y2171355D01*
X2682125Y2181191D01*
Y2234800D01*
X2737700D01*
Y2357875D01*
X2984276D01*
X2992743Y2359559D01*
X2999921Y2364355D01*
X3000083Y2364517D01*
X3005436Y2362300D01*
X3020435D01*
X3034291Y2368039D01*
X3044896Y2378645D01*
X3050636Y2392501D01*
Y2407499D01*
X3044896Y2421355D01*
X3034291Y2431961D01*
X3020435Y2437700D01*
X3005437D01*
X2996367Y2447690D01*
X3000236Y2457029D01*
Y2472027D01*
X3003492Y2476900D01*
X3012499D01*
X3026355Y2482640D01*
X3036960Y2493245D01*
X3042700Y2507101D01*
Y2522099D01*
X3036960Y2535956D01*
X3030272Y2542644D01*
X3026355Y2546561D01*
X3030062Y2558772D01*
X3065645Y2594355D01*
X3070441Y2601533D01*
X3072125Y2610000D01*
Y2848809D01*
X3081961Y2858645D01*
X3087700Y2872501D01*
Y2887499D01*
X3081961Y2901355D01*
X3071355Y2911961D01*
X3057499Y2917700D01*
X3042501D01*
X3028645Y2911961D01*
X3018039Y2901355D01*
X3012300Y2887499D01*
Y2872501D01*
X3018039Y2858645D01*
X3027875Y2848809D01*
Y2619164D01*
X2995836Y2587125D01*
X2940200D01*
Y2599987D01*
X2952900Y2608474D01*
X2958751Y2606050D01*
X2973749D01*
X2987605Y2611789D01*
X2998211Y2622395D01*
X3003950Y2636251D01*
Y2651249D01*
X2998211Y2665105D01*
X2987605Y2675710D01*
X2973749Y2681450D01*
X2959440D01*
X2953467Y2685441D01*
X2945000Y2687125D01*
X2940200D01*
Y2692700D01*
X2769800D01*
Y2659157D01*
X2767379Y2657540D01*
X2752381D01*
X2738525Y2651800D01*
X2727919Y2641195D01*
X2722180Y2627339D01*
Y2612341D01*
X2727919Y2598485D01*
X2738525Y2587879D01*
X2752381Y2582140D01*
X2767379D01*
X2769800Y2580522D01*
Y2537300D01*
Y2437300D01*
X2936448D01*
X2941180Y2432567D01*
X2955037Y2426828D01*
X2970034D01*
X2979104Y2416838D01*
X2975236Y2407499D01*
Y2402249D01*
X2975112Y2402125D01*
X2737700D01*
Y2405200D01*
X2632125D01*
Y2590000D01*
X2630441Y2598467D01*
X2625645Y2605645D01*
X2392700Y2838590D01*
Y2852499D01*
X2387962Y2863939D01*
X2392975Y2871332D01*
X2396419Y2874182D01*
X2400858Y2872344D01*
X2415856D01*
X2429712Y2878083D01*
X2439860Y2888231D01*
X2460357D01*
X2468823Y2889915D01*
X2476001Y2894712D01*
X2525645Y2944355D01*
X2530441Y2951533D01*
X2532125Y2960000D01*
Y3007776D01*
X2544825Y3015843D01*
X2551557Y3013055D01*
X2566555D01*
X2572587Y3001807D01*
X2578039Y2988645D01*
X2588645Y2978040D01*
X2602501Y2972300D01*
X2617499D01*
X2631355Y2978040D01*
X2641960Y2988645D01*
X2647700Y3002501D01*
Y3011872D01*
X2652029Y3014764D01*
X2667027D01*
X2672300Y3011241D01*
Y3002501D01*
X2678039Y2988645D01*
X2688645Y2978040D01*
X2702501Y2972300D01*
X2717499D01*
X2731355Y2978040D01*
X2741960Y2988645D01*
X2747700Y3002501D01*
Y3017499D01*
X2741960Y3031355D01*
X2732125Y3041191D01*
Y3074800D01*
X2737700D01*
Y3245200D01*
X2432125D01*
Y3273810D01*
X2441961Y3283645D01*
X2447700Y3297501D01*
Y3312499D01*
X2441961Y3326356D01*
X2431355Y3336961D01*
X2417499Y3342700D01*
X2402501D01*
X2388645Y3336961D01*
X2378039Y3326356D01*
X2372751Y3313588D01*
X2366012Y3302633D01*
X2351014D01*
X2337158Y3296894D01*
X2326553Y3286289D01*
X2320813Y3272432D01*
Y3257434D01*
X2321507Y3255760D01*
X2314451Y3245200D01*
X2232300D01*
Y3074800D01*
X2240001D01*
Y3057700D01*
X2238101D01*
X2224245Y3051961D01*
X2213640Y3041355D01*
X2207900Y3027499D01*
Y3012501D01*
X2213640Y2998645D01*
X2224245Y2988039D01*
X2238101Y2982300D01*
X2253099D01*
X2266956Y2988039D01*
X2276950Y2998034D01*
X2286945Y2988039D01*
X2300801Y2982300D01*
X2315799D01*
X2329655Y2988039D01*
X2340261Y2998645D01*
X2346000Y3012501D01*
Y3027499D01*
X2340261Y3041355D01*
X2329655Y3051961D01*
X2326283Y3053358D01*
X2321001Y3056821D01*
X2320415Y3071148D01*
X2324067Y3074800D01*
X2437875D01*
Y3015010D01*
X2428039Y3005175D01*
X2422300Y2991318D01*
Y2976320D01*
X2428039Y2962464D01*
X2438644Y2951859D01*
X2441479Y2941834D01*
X2430767Y2940949D01*
X2429712Y2942004D01*
X2415856Y2947743D01*
X2400858D01*
X2387001Y2942004D01*
X2376396Y2931399D01*
X2370657Y2917543D01*
Y2902544D01*
X2375395Y2891105D01*
X2370382Y2883712D01*
X2366938Y2880862D01*
X2362499Y2882700D01*
X2347501D01*
X2333645Y2876961D01*
X2323040Y2866355D01*
X2320068Y2859182D01*
X2305567Y2855723D01*
X2139915Y3021375D01*
Y3074800D01*
X2187700D01*
Y3245200D01*
X2182125D01*
Y3250000D01*
X2180441Y3258467D01*
X2176450Y3264440D01*
Y3278749D01*
X2170710Y3292605D01*
X2160105Y3303211D01*
X2146249Y3308950D01*
X2131251D01*
X2117395Y3303211D01*
X2106789Y3292605D01*
X2101050Y3278749D01*
Y3263751D01*
X2106789Y3249895D01*
X2117395Y3239289D01*
X2131251Y3233550D01*
X2132300D01*
Y3215659D01*
X2120567Y3210799D01*
X2015721Y3315645D01*
X2008543Y3320441D01*
X2000076Y3322125D01*
X1809165D01*
X1733625Y3397665D01*
Y3424500D01*
X1754200D01*
Y3604900D01*
D02*
G37*
G36*
X2970035Y3053172D02*
X2955037D01*
X2941180Y3047433D01*
X2936448Y3042700D01*
X2769800D01*
Y2937300D01*
Y2837300D01*
Y2737300D01*
X2940200D01*
Y2787300D01*
Y2895255D01*
X2952011Y2901405D01*
X2965867Y2895666D01*
X2980865D01*
X2994721Y2901405D01*
X3005326Y2912011D01*
X3011066Y2925867D01*
Y2940865D01*
X3005326Y2954721D01*
X2994721Y2965327D01*
X2983948Y2969789D01*
X2982399Y2981133D01*
X2982685Y2983012D01*
X2983891Y2983512D01*
X2994496Y2994117D01*
X3000236Y3007973D01*
Y3022971D01*
X2994496Y3036828D01*
X2983891Y3047433D01*
X2970035Y3053172D01*
D02*
G37*
G36*
X1577700Y2892700D02*
X1392300D01*
Y2797300D01*
X1577700D01*
Y2892700D01*
D02*
G37*
G36*
X4957700Y2912700D02*
X4778720D01*
Y2787300D01*
X4957700D01*
Y2912700D01*
D02*
G37*
G36*
X3421280D02*
X3242300D01*
Y2787300D01*
X3421280D01*
Y2912700D01*
D02*
G37*
G36*
X1577700Y2782700D02*
X1392300D01*
Y2687300D01*
X1577700D01*
Y2782700D01*
D02*
G37*
G36*
X447472Y2747700D02*
X422528D01*
X399483Y2738154D01*
X381846Y2720517D01*
X372300Y2697472D01*
Y2672528D01*
X381846Y2649483D01*
X399483Y2631846D01*
X422528Y2622300D01*
X447472D01*
X470516Y2631846D01*
X488154Y2649483D01*
X497700Y2672528D01*
Y2697472D01*
X488154Y2720517D01*
X470516Y2738154D01*
X447472Y2747700D01*
D02*
G37*
G36*
X4957700Y2712700D02*
X4778720D01*
Y2587300D01*
X4957700D01*
Y2712700D01*
D02*
G37*
G36*
X3421280D02*
X3242300D01*
Y2587300D01*
X3421280D01*
Y2712700D01*
D02*
G37*
G36*
X1822700Y2780200D02*
X1697300D01*
Y2664800D01*
X1822700D01*
Y2695532D01*
X1861288D01*
X1869247Y2682832D01*
X1866382Y2675917D01*
Y2660918D01*
X1872122Y2647062D01*
X1882727Y2636457D01*
X1896583Y2630718D01*
X1911581D01*
X1917100Y2633003D01*
X1929800Y2624517D01*
Y2537300D01*
Y2437300D01*
X2100200D01*
Y2526817D01*
X2112900Y2532078D01*
X2114641Y2530337D01*
X2128498Y2524597D01*
X2143496D01*
X2157352Y2530337D01*
X2167957Y2540942D01*
X2173697Y2554798D01*
Y2569796D01*
X2184106Y2577852D01*
X2187499D01*
X2201355Y2583591D01*
X2211961Y2594197D01*
X2217700Y2608053D01*
Y2623051D01*
X2211961Y2636907D01*
X2201355Y2647513D01*
X2187499Y2653252D01*
X2172501D01*
X2158645Y2647513D01*
X2153720Y2642588D01*
X2100200D01*
Y2742700D01*
X1929800D01*
Y2739783D01*
X1822700D01*
Y2780200D01*
D02*
G37*
G36*
X3995200Y3632700D02*
X3879800D01*
Y3507300D01*
X3915375D01*
Y3442700D01*
X3879800D01*
Y3317300D01*
X3898050D01*
X3903310Y3304600D01*
X3850835Y3252125D01*
X3270000D01*
X3261533Y3250441D01*
X3254355Y3245645D01*
X3154355Y3145645D01*
X3149559Y3138467D01*
X3147875Y3130000D01*
Y2581191D01*
X3138039Y2571355D01*
X3132300Y2557499D01*
Y2542501D01*
X3138039Y2528645D01*
X3148645Y2518039D01*
X3162501Y2512300D01*
X3177499D01*
X3191355Y2518039D01*
X3201961Y2528645D01*
X3207700Y2542501D01*
Y2557499D01*
X3201961Y2571355D01*
X3192125Y2581191D01*
Y3120835D01*
X3279165Y3207875D01*
X3860000D01*
X3868467Y3209559D01*
X3875645Y3214355D01*
X3953145Y3291855D01*
X3957941Y3299033D01*
X3959625Y3307500D01*
Y3317300D01*
X3995200D01*
Y3442700D01*
X3959625D01*
Y3507300D01*
X3995200D01*
Y3632700D01*
D02*
G37*
G36*
X1577700Y2672700D02*
X1392300D01*
Y2577300D01*
X1577700D01*
Y2586691D01*
X1590400Y2591952D01*
X1612106Y2570246D01*
Y2534836D01*
X1602270Y2525001D01*
X1596531Y2511145D01*
Y2496147D01*
X1602270Y2482290D01*
X1612876Y2471685D01*
X1626732Y2465946D01*
X1641730D01*
X1655586Y2471685D01*
X1666191Y2482290D01*
X1671931Y2496147D01*
Y2511145D01*
X1666191Y2525001D01*
X1656356Y2534836D01*
Y2579410D01*
X1654672Y2587877D01*
X1649876Y2595055D01*
X1604286Y2640645D01*
X1597108Y2645441D01*
X1588641Y2647125D01*
X1577700D01*
Y2672700D01*
D02*
G37*
G36*
X4957700Y2512700D02*
X4778720D01*
Y2387300D01*
X4957700D01*
Y2512700D01*
D02*
G37*
G36*
X3421280D02*
X3242300D01*
Y2472125D01*
X3210000D01*
X3201533Y2470441D01*
X3194355Y2465645D01*
X3020835Y2292125D01*
X2938251D01*
X2931355Y2299021D01*
X2917499Y2304760D01*
X2902501D01*
X2888645Y2299021D01*
X2878039Y2288416D01*
X2872300Y2274559D01*
Y2259561D01*
X2878039Y2245705D01*
X2888645Y2235100D01*
X2902501Y2229360D01*
X2917499D01*
X2931355Y2235100D01*
X2941961Y2245705D01*
X2942859Y2247875D01*
X3030000D01*
X3038467Y2249559D01*
X3045645Y2254355D01*
X3219165Y2427875D01*
X3242300D01*
Y2387300D01*
X3421280D01*
Y2512700D01*
D02*
G37*
G36*
X1577700Y2342700D02*
X1392300D01*
Y2333043D01*
X1380019Y2327363D01*
X1366163Y2333103D01*
X1351165D01*
X1337309Y2327363D01*
X1326703Y2316758D01*
X1320964Y2302902D01*
Y2287904D01*
X1326703Y2274048D01*
X1337309Y2263442D01*
X1351165Y2257703D01*
X1366163D01*
X1380019Y2263442D01*
X1392300Y2257762D01*
Y2247300D01*
X1577700D01*
Y2342700D01*
D02*
G37*
G36*
X4957700Y2312700D02*
X4778720D01*
Y2272125D01*
X4731191D01*
X4721355Y2281961D01*
X4707499Y2287700D01*
X4692501D01*
X4678645Y2281961D01*
X4668039Y2271355D01*
X4662300Y2257499D01*
Y2242501D01*
X4668039Y2228645D01*
X4678645Y2218040D01*
X4692501Y2212300D01*
X4707499D01*
X4721355Y2218040D01*
X4731191Y2227875D01*
X4778720D01*
Y2187300D01*
X4957700D01*
Y2312700D01*
D02*
G37*
G36*
X1917700Y2425200D02*
X1792300D01*
Y2309800D01*
X1888050D01*
X1891726Y2305295D01*
X1893725Y2302151D01*
X1887967Y2290200D01*
X1792300D01*
Y2206090D01*
X1678335Y2092125D01*
X1577700D01*
Y2122700D01*
X1392300D01*
Y2027300D01*
X1577700D01*
Y2047875D01*
X1687500D01*
X1695967Y2049559D01*
X1703145Y2054355D01*
X1823590Y2174800D01*
X1917700D01*
Y2241023D01*
X1923093Y2244481D01*
X1930400Y2247312D01*
X1942501Y2242300D01*
X1957499D01*
X1971355Y2248039D01*
X1981960Y2258645D01*
X1987700Y2272501D01*
Y2287499D01*
X1981960Y2301355D01*
X1971355Y2311961D01*
X1957499Y2317700D01*
X1943590D01*
X1917700Y2343590D01*
Y2425200D01*
D02*
G37*
G36*
X1577700Y2452700D02*
X1392300D01*
Y2357300D01*
X1577700D01*
Y2381049D01*
X1603040D01*
X1605476Y2378612D01*
X1612153Y2370316D01*
X1605476Y2362019D01*
X1602270Y2358813D01*
X1596531Y2344957D01*
Y2329959D01*
X1602270Y2316103D01*
X1612106Y2306267D01*
Y2234493D01*
X1590400Y2212787D01*
X1577700Y2218047D01*
Y2232700D01*
X1392300D01*
Y2137300D01*
X1577700D01*
Y2162875D01*
X1593903D01*
X1602370Y2164559D01*
X1609548Y2169355D01*
X1649876Y2209683D01*
X1654672Y2216861D01*
X1656356Y2225328D01*
Y2306267D01*
X1666191Y2316103D01*
X1671931Y2329959D01*
Y2344957D01*
X1666191Y2358813D01*
X1662985Y2362019D01*
X1656309Y2370316D01*
X1662985Y2378612D01*
X1666191Y2381818D01*
X1671931Y2395675D01*
Y2410673D01*
X1666191Y2424529D01*
X1655586Y2435134D01*
X1641730Y2440874D01*
X1626732D01*
X1612876Y2435134D01*
X1603040Y2425299D01*
X1577700D01*
Y2452700D01*
D02*
G37*
G36*
X3421280Y2312700D02*
X3242300D01*
Y2272125D01*
X3190000D01*
X3181533Y2270441D01*
X3174355Y2265645D01*
X3070946Y2162236D01*
X2881080D01*
X2871355Y2171961D01*
X2857499Y2177700D01*
X2842501D01*
X2828645Y2171961D01*
X2818039Y2161355D01*
X2812300Y2147499D01*
Y2132501D01*
X2818039Y2118645D01*
X2828645Y2108039D01*
X2842501Y2102300D01*
X2857499D01*
X2871355Y2108039D01*
X2881301Y2117986D01*
X3080111D01*
X3088578Y2119670D01*
X3095756Y2124466D01*
X3199165Y2227875D01*
X3242300D01*
Y2187300D01*
X3421280D01*
Y2312700D01*
D02*
G37*
G36*
X2077499Y2187700D02*
X2062501D01*
X2048645Y2181961D01*
X2038039Y2171355D01*
X2032300Y2157499D01*
Y2142501D01*
X2038039Y2128645D01*
X2048645Y2118039D01*
X2062501Y2112300D01*
X2077499D01*
X2091355Y2118039D01*
X2101960Y2128645D01*
X2107700Y2142501D01*
Y2157499D01*
X2101960Y2171355D01*
X2091355Y2181961D01*
X2077499Y2187700D01*
D02*
G37*
G36*
X4957700Y2112700D02*
X4778720D01*
Y2064482D01*
X4768160Y2057426D01*
X4767499Y2057700D01*
X4752501D01*
X4738645Y2051961D01*
X4728039Y2041355D01*
X4722300Y2027499D01*
Y2012501D01*
X4728039Y1998645D01*
X4738645Y1988039D01*
X4752501Y1982300D01*
X4767499D01*
X4779571Y1987300D01*
X4957700D01*
Y2112700D01*
D02*
G37*
G36*
X3165813Y2146013D02*
X3150815D01*
X3136958Y2140274D01*
X3126353Y2129669D01*
X3120614Y2115813D01*
Y2100814D01*
X3126353Y2086958D01*
X3136958Y2076353D01*
X3150815Y2070614D01*
X3164724D01*
X3200982Y2034355D01*
X3208160Y2029559D01*
X3216627Y2027875D01*
X3242300D01*
Y1987300D01*
X3421280D01*
Y2112700D01*
X3242300D01*
Y2072125D01*
X3225792D01*
X3196014Y2101903D01*
Y2115813D01*
X3190274Y2129669D01*
X3179669Y2140274D01*
X3165813Y2146013D01*
D02*
G37*
G36*
X1577700Y2012700D02*
X1392300D01*
Y1917300D01*
X1577700D01*
Y2012700D01*
D02*
G37*
G36*
X1085000Y2798746D02*
X885000D01*
X875280Y2794720D01*
X871254Y2785000D01*
Y1885000D01*
X875280Y1875280D01*
X885000Y1871254D01*
X1085000D01*
X1094720Y1875280D01*
X1098746Y1885000D01*
Y2785000D01*
X1094720Y2794720D01*
X1085000Y2798746D01*
D02*
G37*
G36*
X2337700Y2405200D02*
X2132300D01*
Y2234800D01*
X2137875D01*
Y2109165D01*
X2091410Y2062700D01*
X1954800D01*
Y1924625D01*
X1917700D01*
Y1960200D01*
X1792300D01*
Y1844800D01*
X1917700D01*
Y1880375D01*
X1954800D01*
Y1857300D01*
X2140200D01*
Y2048910D01*
X2175645Y2084355D01*
X2177944Y2087797D01*
X2179360Y2088252D01*
X2190640Y2088252D01*
X2192056Y2087797D01*
X2194355Y2084355D01*
X2229800Y2048910D01*
Y1857300D01*
X2415200D01*
Y1880375D01*
X2452300D01*
Y1844800D01*
X2577700D01*
Y1960200D01*
X2452300D01*
Y1924625D01*
X2415200D01*
Y2062700D01*
X2278590D01*
X2232125Y2109165D01*
Y2234800D01*
X2337700D01*
Y2405200D01*
D02*
G37*
G36*
X447472Y1947700D02*
X422528D01*
X399483Y1938154D01*
X381846Y1920517D01*
X372300Y1897472D01*
Y1872528D01*
X381846Y1849483D01*
X399483Y1831846D01*
X422528Y1822300D01*
X447472D01*
X470516Y1831846D01*
X488154Y1849483D01*
X497700Y1872528D01*
Y1897472D01*
X488154Y1920517D01*
X470516Y1938154D01*
X447472Y1947700D01*
D02*
G37*
G36*
X3078348Y2048550D02*
X3063350D01*
X3049494Y2042810D01*
X3038889Y2032205D01*
X3033149Y2018349D01*
Y2003351D01*
X3038889Y1989494D01*
X3049494Y1978889D01*
X3063350Y1973150D01*
X3077260D01*
X3216054Y1834355D01*
X3223232Y1829559D01*
X3231699Y1827875D01*
X3242300D01*
Y1787300D01*
X3421280D01*
Y1912700D01*
X3242300D01*
Y1888650D01*
X3229600Y1883389D01*
X3108549Y2004439D01*
Y2018349D01*
X3102810Y2032205D01*
X3092205Y2042810D01*
X3078348Y2048550D01*
D02*
G37*
G36*
X3696549Y1861700D02*
X3681551D01*
X3667695Y1855961D01*
X3657089Y1845355D01*
X3651350Y1831499D01*
Y1816501D01*
X3657089Y1802645D01*
X3667695Y1792040D01*
X3681551Y1786300D01*
X3696549D01*
X3710405Y1792040D01*
X3721011Y1802645D01*
X3726750Y1816501D01*
Y1831499D01*
X3721011Y1845355D01*
X3710405Y1855961D01*
X3696549Y1861700D01*
D02*
G37*
G36*
X2790300Y1886700D02*
X2674900D01*
Y1761300D01*
X2790300D01*
Y1886700D01*
D02*
G37*
G36*
X4872380Y1728653D02*
X4718800D01*
X4708085Y1724215D01*
X4703646Y1713500D01*
Y1671477D01*
X4375595D01*
X4373934Y1672165D01*
X4373231Y1671873D01*
X4372503Y1672094D01*
X4323439Y1667262D01*
X4322119Y1666557D01*
X4320631Y1666704D01*
X4294693Y1658835D01*
X4292013Y1658192D01*
X4290484Y1657559D01*
X4273452Y1652392D01*
X4272296Y1651443D01*
X4270807Y1651296D01*
X4255110Y1642906D01*
X4253581Y1642273D01*
X4251231Y1640833D01*
X4227327Y1628056D01*
X4226378Y1626900D01*
X4224946Y1626465D01*
X4186836Y1595189D01*
X4186131Y1593869D01*
X4184812Y1593164D01*
X4153535Y1555054D01*
X4153100Y1553622D01*
X4151944Y1552673D01*
X4139167Y1528769D01*
X4137727Y1526419D01*
X4137094Y1524890D01*
X4128704Y1509193D01*
X4128557Y1507704D01*
X4127608Y1506548D01*
X4122442Y1489516D01*
X4121808Y1487987D01*
X4121165Y1485307D01*
X4113297Y1459369D01*
X4113443Y1457881D01*
X4112738Y1456562D01*
X4107906Y1407497D01*
X4108127Y1406769D01*
X4107835Y1406066D01*
X4108523Y1404405D01*
Y1374604D01*
X4077500D01*
X4076042Y1374000D01*
X4063500D01*
Y1361458D01*
X4062896Y1360000D01*
Y1260073D01*
X4040000D01*
X4030280Y1256047D01*
X4026254Y1246327D01*
Y1035000D01*
X4030280Y1025280D01*
X4040000Y1021253D01*
X4220307D01*
X4230027Y1025280D01*
X4234053Y1035000D01*
Y1246327D01*
X4230027Y1256047D01*
X4220307Y1260073D01*
X4197104D01*
Y1360000D01*
X4196500Y1361458D01*
Y1374000D01*
X4183958D01*
X4182500Y1374604D01*
X4151477D01*
Y1406066D01*
X4151214Y1406702D01*
X4155432Y1449529D01*
X4168109Y1491321D01*
X4188697Y1529838D01*
X4216403Y1563597D01*
X4250163Y1591304D01*
X4288679Y1611891D01*
X4330471Y1624569D01*
X4373298Y1628786D01*
X4373934Y1628523D01*
X4703646D01*
Y1586500D01*
X4708085Y1575785D01*
X4718800Y1571347D01*
X4872380D01*
X4883095Y1575785D01*
X4886848Y1584847D01*
X4945000D01*
X4947785Y1586000D01*
X4959000D01*
Y1597215D01*
X4960153Y1600000D01*
Y1700000D01*
X4959000Y1702785D01*
Y1714000D01*
X4947785D01*
X4945000Y1715154D01*
X4886848D01*
X4883095Y1724215D01*
X4872380Y1728653D01*
D02*
G37*
G36*
X1159499Y1702200D02*
X1144501D01*
X1130645Y1696460D01*
X1120039Y1685855D01*
X1114300Y1671999D01*
Y1657001D01*
X1120039Y1643145D01*
X1130645Y1632539D01*
X1144501Y1626800D01*
X1159499D01*
X1173355Y1632539D01*
X1183961Y1643145D01*
X1189700Y1657001D01*
Y1671999D01*
X1183961Y1685855D01*
X1173355Y1696460D01*
X1159499Y1702200D01*
D02*
G37*
G36*
X2062700Y1665200D02*
X1937300D01*
Y1549800D01*
X2062700D01*
Y1665200D01*
D02*
G37*
G36*
X1857500Y1708246D02*
X1757500D01*
X1747779Y1704220D01*
X1743753Y1694500D01*
Y1605000D01*
X1744800Y1602473D01*
Y1547300D01*
X1870200D01*
Y1602473D01*
X1871246Y1605000D01*
Y1694500D01*
X1867220Y1704220D01*
X1857500Y1708246D01*
D02*
G37*
G36*
X3380549Y1537700D02*
X3365551D01*
X3351695Y1531961D01*
X3341089Y1521355D01*
X3335350Y1507499D01*
Y1492501D01*
X3341089Y1478645D01*
X3351695Y1468039D01*
X3365551Y1462300D01*
X3380549D01*
X3394405Y1468039D01*
X3405010Y1478645D01*
X3410750Y1492501D01*
Y1507499D01*
X3405010Y1521355D01*
X3394405Y1531961D01*
X3380549Y1537700D01*
D02*
G37*
G36*
X3495499Y1532700D02*
X3480501D01*
X3466645Y1526961D01*
X3456039Y1516355D01*
X3450300Y1502499D01*
Y1487501D01*
X3456039Y1473645D01*
X3466645Y1463039D01*
X3480501Y1457300D01*
X3495499D01*
X3509355Y1463039D01*
X3519960Y1473645D01*
X3525700Y1487501D01*
Y1502499D01*
X3519960Y1516355D01*
X3509355Y1526961D01*
X3495499Y1532700D01*
D02*
G37*
G36*
X3250549D02*
X3235551D01*
X3221695Y1526961D01*
X3211090Y1516355D01*
X3205350Y1502499D01*
Y1487501D01*
X3211090Y1473645D01*
X3221695Y1463039D01*
X3235551Y1457300D01*
X3250549D01*
X3264405Y1463039D01*
X3275011Y1473645D01*
X3280750Y1487501D01*
Y1502499D01*
X3275011Y1516355D01*
X3264405Y1526961D01*
X3250549Y1532700D01*
D02*
G37*
G36*
X3135600D02*
X3120601D01*
X3106745Y1526961D01*
X3096140Y1516355D01*
X3090400Y1502499D01*
Y1487501D01*
X3096140Y1473645D01*
X3106745Y1463039D01*
X3120601Y1457300D01*
X3135600D01*
X3149456Y1463039D01*
X3160061Y1473645D01*
X3165800Y1487501D01*
Y1502499D01*
X3160061Y1516355D01*
X3149456Y1526961D01*
X3135600Y1532700D01*
D02*
G37*
G36*
X2062700Y1530200D02*
X1937300D01*
Y1414800D01*
X2062700D01*
Y1530200D01*
D02*
G37*
G36*
X1870200Y1527700D02*
X1744800D01*
Y1472527D01*
X1743753Y1470000D01*
Y1380500D01*
X1747779Y1370780D01*
X1757500Y1366753D01*
X1857500D01*
X1867220Y1370780D01*
X1871246Y1380500D01*
Y1470000D01*
X1870200Y1472527D01*
Y1527700D01*
D02*
G37*
G36*
X4775000Y1433928D02*
X4625000D01*
X4600536Y1429062D01*
X4579796Y1415204D01*
X4565938Y1394464D01*
X4561072Y1370000D01*
X4565938Y1345536D01*
X4579796Y1324796D01*
X4600536Y1310938D01*
X4625000Y1306072D01*
X4775000D01*
X4799464Y1310938D01*
X4820204Y1324796D01*
X4834062Y1345536D01*
X4838928Y1370000D01*
X4834062Y1394464D01*
X4820204Y1415204D01*
X4799464Y1429062D01*
X4775000Y1433928D01*
D02*
G37*
G36*
X3177499Y1377700D02*
X3162501D01*
X3148645Y1371961D01*
X3138039Y1361355D01*
X3132300Y1347499D01*
Y1332501D01*
X3138039Y1318645D01*
X3148645Y1308040D01*
X3162501Y1302300D01*
X3177499D01*
X3191355Y1308040D01*
X3201961Y1318645D01*
X3207700Y1332501D01*
Y1347499D01*
X3201961Y1361355D01*
X3191355Y1371961D01*
X3177499Y1377700D01*
D02*
G37*
G36*
X1494600Y1337525D02*
X275400D01*
X266933Y1335841D01*
X259755Y1331045D01*
X215345Y1286634D01*
X199641Y1295701D01*
X173521Y1302700D01*
X146479D01*
X120359Y1295701D01*
X96941Y1282180D01*
X77820Y1263059D01*
X64299Y1239641D01*
X57300Y1213521D01*
Y1186479D01*
X64299Y1160359D01*
X77820Y1136941D01*
X96941Y1117819D01*
X120359Y1104299D01*
X146479Y1097300D01*
X173521D01*
X199641Y1104299D01*
X223059Y1117819D01*
X242180Y1136941D01*
X255701Y1160359D01*
X262700Y1186479D01*
Y1213521D01*
X255701Y1239641D01*
X246634Y1255344D01*
X284565Y1293275D01*
X347065D01*
X349336Y1280575D01*
X331820Y1263059D01*
X318299Y1239641D01*
X311300Y1213521D01*
Y1186479D01*
X318299Y1160359D01*
X331820Y1136941D01*
X350941Y1117819D01*
X374359Y1104299D01*
X400479Y1097300D01*
X427521D01*
X453641Y1104299D01*
X477059Y1117819D01*
X496180Y1136941D01*
X509701Y1160359D01*
X516700Y1186479D01*
Y1213521D01*
X509701Y1239641D01*
X496180Y1263059D01*
X478664Y1280575D01*
X480935Y1293275D01*
X601065D01*
X603336Y1280575D01*
X585820Y1263059D01*
X572299Y1239641D01*
X565300Y1213521D01*
Y1186479D01*
X572299Y1160359D01*
X585820Y1136941D01*
X604941Y1117819D01*
X628359Y1104299D01*
X654479Y1097300D01*
X681521D01*
X707641Y1104299D01*
X731059Y1117819D01*
X750180Y1136941D01*
X763701Y1160359D01*
X770700Y1186479D01*
Y1213521D01*
X763701Y1239641D01*
X750180Y1263059D01*
X732664Y1280575D01*
X734935Y1293275D01*
X1485435D01*
X1814355Y964355D01*
X1821533Y959559D01*
X1830000Y957875D01*
X1968809D01*
X1978645Y948040D01*
X1992501Y942300D01*
X2007499D01*
X2021355Y948040D01*
X2031961Y958645D01*
X2037700Y972501D01*
Y987499D01*
X2031961Y1001355D01*
X2021355Y1011961D01*
X2007499Y1017700D01*
X1992501D01*
X1978645Y1011961D01*
X1968809Y1002125D01*
X1839164D01*
X1758223Y1083067D01*
X1763083Y1094800D01*
X1870200D01*
Y1210200D01*
X1744800D01*
Y1113083D01*
X1733067Y1108223D01*
X1510245Y1331045D01*
X1503067Y1335841D01*
X1494600Y1337525D01*
D02*
G37*
G36*
X2470200Y1542700D02*
X2354800D01*
Y1417300D01*
X2425375D01*
Y1367700D01*
X2417300D01*
Y1252300D01*
X2477700D01*
Y1367700D01*
X2469625D01*
Y1417300D01*
X2470200D01*
Y1542700D01*
D02*
G37*
G36*
X1870200Y1345200D02*
X1744800D01*
Y1229800D01*
X1870200D01*
Y1345200D01*
D02*
G37*
G36*
X2607700Y1367700D02*
X2547300D01*
Y1252300D01*
X2607700D01*
Y1287875D01*
X2657300D01*
Y1219800D01*
X2782700D01*
Y1335200D01*
X2657300D01*
Y1332125D01*
X2607700D01*
Y1367700D01*
D02*
G37*
G36*
X2482300Y1167700D02*
X2469600Y1167700D01*
X2425400D01*
X2417300Y1167700D01*
X2404600Y1167700D01*
X2352300D01*
Y1052300D01*
X2352300Y1052300D01*
X2351355Y1039991D01*
X2342719Y1031355D01*
X2336980Y1017499D01*
Y1002501D01*
X2342719Y988645D01*
X2353325Y978039D01*
X2367181Y972300D01*
X2382179D01*
X2396035Y978039D01*
X2406641Y988645D01*
X2412380Y1002501D01*
Y1017499D01*
X2406641Y1031355D01*
X2405792Y1032203D01*
X2405793Y1047144D01*
X2410949Y1052300D01*
X2417802D01*
X2426782Y1043319D01*
Y975488D01*
X2418994Y967700D01*
X2412501D01*
X2398645Y961960D01*
X2388039Y951355D01*
X2382300Y937499D01*
Y922501D01*
X2388039Y908645D01*
X2398645Y898039D01*
X2412501Y892300D01*
X2427499D01*
X2441355Y898039D01*
X2451961Y908645D01*
X2457700Y922501D01*
Y937499D01*
X2454681Y944787D01*
X2462150Y952256D01*
X2466641Y958978D01*
X2468218Y966906D01*
X2468218Y966907D01*
Y1043319D01*
X2471240Y1046341D01*
X2477675Y1050293D01*
X2490375Y1045339D01*
Y1027500D01*
X2492059Y1019033D01*
X2496855Y1011855D01*
X2534355Y974355D01*
X2541533Y969559D01*
X2548514Y968171D01*
X2558645Y958039D01*
X2572501Y952300D01*
X2587499D01*
X2601355Y958039D01*
X2611960Y968645D01*
X2617700Y982501D01*
Y997499D01*
X2611960Y1011355D01*
X2601355Y1021961D01*
X2587499Y1027700D01*
X2572501D01*
X2558645Y1021961D01*
X2553987Y1017303D01*
X2534625Y1036664D01*
Y1052300D01*
X2542700D01*
Y1167700D01*
X2482300Y1167700D01*
D02*
G37*
G36*
X2062700Y1210200D02*
X1937300D01*
Y1094800D01*
X2062700D01*
Y1210200D01*
D02*
G37*
G36*
X3029734Y1157700D02*
X3014735D01*
X3000879Y1151961D01*
X2990274Y1141355D01*
X2984535Y1127499D01*
Y1112501D01*
X2990274Y1098645D01*
X3000879Y1088039D01*
X3014735Y1082300D01*
X3029734D01*
X3043590Y1088039D01*
X3054195Y1098645D01*
X3059934Y1112501D01*
Y1127499D01*
X3054195Y1141355D01*
X3043590Y1151961D01*
X3029734Y1157700D01*
D02*
G37*
G36*
X3335549Y955700D02*
X3320551D01*
X3306695Y949961D01*
X3296089Y939355D01*
X3290350Y925499D01*
Y910501D01*
X3296089Y896645D01*
X3306695Y886039D01*
X3320551Y880300D01*
X3335549D01*
X3349405Y886039D01*
X3360011Y896645D01*
X3365750Y910501D01*
Y925499D01*
X3360011Y939355D01*
X3349405Y949961D01*
X3335549Y955700D01*
D02*
G37*
G36*
X4775000Y993928D02*
X4625000D01*
X4600536Y989062D01*
X4579796Y975204D01*
X4565938Y954464D01*
X4561072Y930000D01*
X4565938Y905536D01*
X4579796Y884796D01*
X4600536Y870938D01*
X4625000Y866072D01*
X4775000D01*
X4799464Y870938D01*
X4820204Y884796D01*
X4834062Y905536D01*
X4838928Y930000D01*
X4834062Y954464D01*
X4820204Y975204D01*
X4799464Y989062D01*
X4775000Y993928D01*
D02*
G37*
G36*
X173521Y1048700D02*
X146479D01*
X120359Y1041701D01*
X96941Y1028181D01*
X77820Y1009059D01*
X64299Y985641D01*
X57300Y959521D01*
Y932479D01*
X64299Y906359D01*
X77820Y882941D01*
X96941Y863820D01*
X120359Y850299D01*
X146479Y843300D01*
X173521D01*
X199641Y850299D01*
X223059Y863820D01*
X242180Y882941D01*
X255701Y906359D01*
X262700Y932479D01*
Y959521D01*
X255701Y985641D01*
X242180Y1009059D01*
X223059Y1028181D01*
X199641Y1041701D01*
X173521Y1048700D01*
D02*
G37*
G36*
X1517499Y877700D02*
X1502501D01*
X1488645Y871961D01*
X1478039Y861355D01*
X1472300Y847499D01*
Y832501D01*
X1478039Y818645D01*
X1488645Y808040D01*
X1502501Y802300D01*
X1517499D01*
X1531355Y808040D01*
X1541961Y818645D01*
X1547700Y832501D01*
Y847499D01*
X1541961Y861355D01*
X1531355Y871961D01*
X1517499Y877700D01*
D02*
G37*
G36*
X1617499Y876700D02*
X1602501D01*
X1588645Y870960D01*
X1578040Y860355D01*
X1572300Y846499D01*
Y831501D01*
X1578040Y817645D01*
X1588645Y807039D01*
X1602501Y801300D01*
X1617499D01*
X1631355Y807039D01*
X1641961Y817645D01*
X1647700Y831501D01*
Y846499D01*
X1641961Y860355D01*
X1631355Y870960D01*
X1617499Y876700D01*
D02*
G37*
G36*
X3950200Y782700D02*
X3834800D01*
Y657300D01*
X3950200D01*
Y782700D01*
D02*
G37*
G36*
X4085200D02*
X3969800D01*
Y657300D01*
X4014102D01*
Y582700D01*
X3977300D01*
Y467300D01*
X4014102D01*
Y172700D01*
X3977300D01*
Y57300D01*
X4102700D01*
Y172700D01*
X4065898D01*
Y467300D01*
X4102700D01*
Y582700D01*
X4065898D01*
Y657300D01*
X4085200D01*
Y782700D01*
D02*
G37*
%LPD*%
G36*
X3470000Y4490000D02*
X3090000D01*
Y4620000D01*
X3362500D01*
Y4917500D01*
X3470000D01*
Y4490000D01*
D02*
G37*
G36*
X4872380Y1700000D02*
X4945000D01*
Y1600000D01*
X4872380D01*
Y1586500D01*
X4718800D01*
Y1713500D01*
X4872380D01*
Y1700000D01*
D02*
G37*
G36*
X1857500Y1605000D02*
X1757500D01*
Y1694500D01*
X1857500D01*
Y1605000D01*
D02*
G37*
G36*
Y1380500D02*
X1757500D01*
Y1470000D01*
X1857500D01*
Y1380500D01*
D02*
G37*
G36*
G01X2350001Y30001D02*
G01Y422501D01*
G02X2412501Y485001I62500J0D01*
G01X2537501D01*
G02X2600001Y422501I0J-62500D01*
G01Y30001D01*
G01X2350001D01*
D02*
G37*
G36*
G01X2700000D02*
G01X2700001Y422501D01*
G02X2762501Y485001I62500J0D01*
G01X2887501D01*
G02X2950001Y422501I0J-62500D01*
G01X2950000Y30001D01*
G01X2700000D01*
D02*
G37*
G36*
G01X3400000D02*
G01X3400001Y422501D01*
G02X3462501Y485001I62500J0D01*
G01X3587501D01*
G02X3650001Y422501I0J-62500D01*
G01X3650000Y30001D01*
G01X3400000D01*
D02*
G37*
G36*
G01X3050001D02*
G01Y422501D01*
G02X3112501Y485001I62500J0D01*
G01X3237501D01*
G02X3300001Y422501I0J-62500D01*
G01Y30001D01*
G01X3050001D01*
D02*
G37*
G36*
G01X1650001D02*
G01Y422501D01*
G02X1712501Y485001I62500J0D01*
G01X1837501D01*
G02X1900001Y422501I0J-62500D01*
G01Y30001D01*
G01X1650001D01*
D02*
G37*
G36*
G01X2000000D02*
G01X2000001Y422501D01*
G02X2062501Y485001I62500J0D01*
G01X2187501D01*
G02X2250001Y422501I0J-62500D01*
G01X2250000Y30001D01*
G01X2000000D01*
D02*
G37*
G36*
G01X770000Y30000D02*
G01Y770000D01*
G01X30000D01*
G01X29999Y400000D01*
G03X400000Y30000I370000J0D01*
G01X770000Y30000D01*
D02*
G37*
G36*
G01X1300000Y30001D02*
G01X1300001Y422501D01*
G02X1362501Y485001I62500J0D01*
G01X1487501D01*
G02X1550001Y422501I0J-62500D01*
G01X1550000Y30001D01*
G01X1300000D01*
D02*
G37*
G36*
G01X950001D02*
G01Y422501D01*
G02X1012501Y485001I62500J0D01*
G01X1137501D01*
G02X1200001Y422501I0J-62500D01*
G01Y30001D01*
G01X950001D01*
D02*
G37*
G36*
G01X1200001Y4970000D02*
G01X1200000Y4577500D01*
G02X1137500Y4515000I-62500J0D01*
G01X1012500D01*
G02X950000Y4577500I0J62500D01*
G01X950001Y4970000D01*
G01X1200001D01*
D02*
G37*
G36*
G01X1550000D02*
G01Y4577500D01*
G02X1487500Y4515000I-62500J0D01*
G01X1362500D01*
G02X1300000Y4577500I0J62500D01*
G01Y4970000D01*
G01X1550000D01*
D02*
G37*
G36*
G01X1900001D02*
G01X1900000Y4577500D01*
G02X1837500Y4515000I-62500J0D01*
G01X1712500D01*
G02X1650000Y4577500I0J62500D01*
G01X1650001Y4970000D01*
G01X1900001D01*
D02*
G37*
G36*
G01X2250000D02*
G01Y4577500D01*
G02X2187500Y4515000I-62500J0D01*
G01X2062500D01*
G02X2000000Y4577500I0J62500D01*
G01Y4970000D01*
G01X2250000D01*
D02*
G37*
G36*
G01X2600001D02*
G01X2600000Y4577500D01*
G02X2537500Y4515000I-62500J0D01*
G01X2412500D01*
G02X2350000Y4577500I0J62500D01*
G01X2350001Y4970000D01*
G01X2600001D01*
D02*
G37*
G36*
G01X2950000D02*
G01Y4577500D01*
G02X2887500Y4515000I-62500J0D01*
G01X2762500D01*
G02X2700000Y4577500I0J62500D01*
G01Y4970000D01*
G01X2950000D01*
D02*
G37*
G36*
G01X4970000Y770000D02*
G01X4230000D01*
G01Y30000D01*
G01X4600000Y29999D01*
G03X4969999Y400000I0J370000D01*
G01X4970000Y770000D01*
D02*
G37*
G36*
G01X30000Y4230000D02*
G01X770000D01*
G01Y4970000D01*
G01X400000Y4970000D01*
G03X30000Y4600000I0J-370000D01*
G01X30000Y4230000D01*
D02*
G37*
G36*
G01X4230000Y4970000D02*
G01Y4230000D01*
G01X4970000D01*
G01X4970000Y4600000D01*
G03X4600000Y4969999I-370000J0D01*
G01X4230000Y4970000D01*
D02*
G37*
D10*
X2310000Y3160000D02*
G03*
X2301932Y3151932I0J-8068D01*
G01*
X2297207Y3147207D02*
X2301932Y3151932D01*
X2297207Y3067957D02*
Y3147207D01*
X2293883Y3044196D02*
Y3064633D01*
X2308300Y3020000D02*
Y3029778D01*
X2260000Y3160000D02*
X2260018Y3159983D01*
X2293883Y3044196D02*
X2308300Y3029778D01*
X2245600Y3020000D02*
Y3029778D01*
X2260018Y3044195D02*
Y3159983D01*
X2245600Y3029778D02*
X2260018Y3044195D01*
X2293883Y3064633D02*
X2297207Y3067957D01*
X1965805Y3193865D02*
X1968326Y3196386D01*
X1965805Y3160000D02*
X1985205Y3140600D01*
X1990000D01*
X1983086Y3196386D02*
X1990000Y3203300D01*
X1968326Y3196386D02*
X1983086D01*
X1580000Y3160000D02*
X1965805D01*
X1594027Y3193865D02*
X1965805D01*
X1044190Y3643068D02*
X1096932D01*
X1044190Y3676933D02*
X1110959D01*
X1594027Y3193865D01*
X1096932Y3643068D02*
X1580000Y3160000D01*
X921067Y3643067D02*
X1044189D01*
X898000Y3620000D02*
X921067Y3643067D01*
Y3676933D02*
X1044189D01*
X898000Y3700000D02*
X921067Y3676933D01*
X1044189Y3643067D02*
X1044190Y3643068D01*
X1044189Y3676933D02*
X1044190Y3676933D01*
D11*
X4373934Y1650000D02*
G03*
X4130000Y1406066I0J-243934D01*
G01*
X4373934Y1650000D02*
X4868210D01*
X4130000Y1305000D02*
Y1406066D01*
D12*
X3943100Y4049100D02*
G03*
X3860000Y3966000I0J-83100D01*
G01*
X1358664Y2295000D02*
X1485000D01*
X4760000Y1880000D02*
X4875499D01*
X1904082Y2768418D02*
X2034962D01*
X1358664Y2515000D02*
X1485000D01*
X2013291Y2666709D02*
X2015000Y2665000D01*
X1904082Y2668418D02*
X1905791Y2666709D01*
X2013291D01*
X1898500Y2331500D02*
X1950000Y2280000D01*
X1855000Y2367500D02*
X1891000Y2331500D01*
X1898500D01*
X1490000Y2070000D02*
X1687500D01*
X1850000Y2232500D02*
X1855000D01*
X1687500Y2070000D02*
X1850000Y2232500D01*
X1485000Y2075000D02*
X1490000Y2070000D01*
X2550000Y990000D02*
X2580000D01*
X2512500Y1027500D02*
Y1110000D01*
Y1027500D02*
X2550000Y990000D01*
X2512500Y1445000D02*
X2547500Y1480000D01*
X2512500Y1310000D02*
Y1445000D01*
X2687500Y1110000D02*
X2720000Y1142500D01*
X2577500Y1110000D02*
X2687500D01*
X2577500Y1310000D02*
X2687500D01*
X2720000Y1277500D01*
X2447500Y1310000D02*
Y1445000D01*
X2412500Y1480000D02*
X2447500Y1445000D01*
X2184992Y594992D02*
X2521701D01*
X4875499Y1880000D02*
X4885498Y1870000D01*
X4760000Y2020000D02*
X4819224D01*
X4849224Y2050000D01*
X2125001Y360001D02*
Y535001D01*
X2184992Y594992D01*
X3050000Y2610000D02*
Y2880000D01*
X2973366Y2933366D02*
Y2939730D01*
X3005000Y2565000D02*
X3050000Y2610000D01*
X2510000Y2210000D02*
X2570000Y2150000D01*
X2410000Y2230000D02*
X2424601Y2215399D01*
X2410000Y2230000D02*
Y2320000D01*
X2424601Y2208750D02*
Y2215399D01*
X2660000Y2150000D02*
Y2320000D01*
X2855000Y2515000D02*
X2855200Y2514800D01*
X3004800D01*
X3005000Y2514600D01*
X2855000Y2565000D02*
X3005000D01*
X2945000Y2665000D02*
X2966250Y2643750D01*
X2855000Y2665000D02*
X2945000D01*
X2850000Y2140000D02*
X2850111Y2140111D01*
X3080111D01*
X1830000Y980000D02*
X2000000D01*
X2338750Y2208750D02*
X2360000Y2230000D01*
Y2320000D01*
X3231699Y1850000D02*
X3331790D01*
X3070849Y2010850D02*
X3231699Y1850000D01*
X3004276Y2400000D02*
X3012936D01*
X2984276Y2380000D02*
X3004276Y2400000D01*
X2716000Y2380000D02*
X2984276D01*
X3158314Y2108314D02*
X3216627Y2050000D01*
X3331790D01*
X2910000Y2267060D02*
X2912940Y2270000D01*
X3030000D01*
X2710000Y2374000D02*
X2716000Y2380000D01*
X2855236Y2464764D02*
X2962300D01*
X2710000Y2320000D02*
Y2374000D01*
X3030000Y2270000D02*
X3210000Y2450000D01*
X3331790D01*
X3170000Y2550000D02*
Y3130000D01*
X3080111Y2140111D02*
X3190000Y2250000D01*
X2510000Y2210000D02*
Y2320000D01*
X2948095Y2965000D02*
X2973366Y2939730D01*
X2855000Y2965000D02*
X2948095D01*
X1494600Y1315400D02*
X1830000Y980000D01*
X275400Y1315400D02*
X1494600D01*
X160000Y1200000D02*
X275400Y1315400D01*
X1640000Y1070000D02*
X1807500Y902500D01*
X2117790Y3012210D02*
X2560000Y2570000D01*
X2117790Y3012210D02*
Y3182286D01*
X2560000Y2320000D02*
Y2570000D01*
X1278000Y810000D02*
X1307992Y780008D01*
X414000Y946000D02*
X550000Y810000D01*
X1307992Y780008D02*
X1312500Y775500D01*
X550000Y810000D02*
X1278000D01*
X792000Y1070000D02*
X1640000D01*
X668000Y946000D02*
X792000Y1070000D01*
X2411500Y3514700D02*
X2470800D01*
X2610000Y2320000D02*
Y2590000D01*
X2355000Y2845000D02*
X2610000Y2590000D01*
X2000076Y3300000D02*
X2117790Y3182286D01*
X1800000Y3300000D02*
X2000076D01*
X1711500Y3388500D02*
X1800000Y3300000D01*
X1711500Y3388500D02*
Y3494700D01*
X3937500Y3307500D02*
Y3380000D01*
X3860000Y3230000D02*
X3937500Y3307500D01*
X3270000Y3230000D02*
X3860000D01*
X3170000Y3130000D02*
X3270000Y3230000D01*
X2945000Y2715000D02*
X2966250Y2736250D01*
X2855000Y2715000D02*
X2945000D01*
X2460000Y2983819D02*
Y3160000D01*
X2210000Y2100000D02*
Y2320000D01*
X2322500Y1957380D02*
Y1960000D01*
Y1957380D02*
X2377380Y1902500D01*
X2047500Y1960000D02*
Y1987500D01*
X2377380Y1902500D02*
X2515000D01*
X1992620D02*
X2047500Y1957380D01*
X2322500Y1960000D02*
Y1987500D01*
X2047500D02*
X2101000Y2041000D01*
X2101000D01*
X2047500Y1957380D02*
Y1960000D01*
X1855000Y1902500D02*
X1992620D01*
X3943100Y4049100D02*
X4207500D01*
X3765000Y3570000D02*
Y3754000D01*
Y3570000D02*
X3802500D01*
X3937500Y3380000D02*
Y3570000D01*
X2510000Y2960000D02*
Y3160000D01*
X2408357Y2910043D02*
X2408670Y2910356D01*
X2460357D01*
X2510000Y2960000D01*
X2138750Y3271250D02*
X2160000Y3250000D01*
X2210000D02*
X2231250Y3271250D01*
X2210000Y3160000D02*
Y3250000D01*
X2160000Y3160000D02*
Y3250000D01*
X1760157Y2717658D02*
X2012343D01*
X1757500Y2715000D02*
X1760157Y2717658D01*
X2012343D02*
X2015000Y2715000D01*
X2210000Y2100000D02*
X2322500Y1987500D01*
X2101000Y2041000D02*
X2160000Y2100000D01*
Y2320000D01*
X2855236Y3015236D02*
X2962300D01*
X4700000Y2250000D02*
X4868210D01*
X2410000Y3196867D02*
Y3305000D01*
X2359257Y3160743D02*
Y3264190D01*
Y3160743D02*
X2360000Y3160000D01*
X2358513Y3264933D02*
X2359257Y3264190D01*
X2610000Y3010000D02*
Y3160000D01*
X3190000Y2250000D02*
X3331790D01*
X1634231Y2225328D02*
Y2337458D01*
X2659764Y3052700D02*
Y3159764D01*
X2660000Y3160000D01*
X2659528Y3052464D02*
X2659764Y3052700D01*
X1485000Y2405000D02*
X1486826Y2403174D01*
X1634231D01*
X2559528Y3051227D02*
Y3159528D01*
X2560000Y3160000D01*
X2559056Y3050755D02*
X2559528Y3051227D01*
X1588641Y2625000D02*
X1634231Y2579410D01*
X1485000Y2625000D02*
X1588641D01*
X1634231Y2503646D02*
Y2579410D01*
X2710000Y3010000D02*
Y3160000D01*
X1593903Y2185000D02*
X1634231Y2225328D01*
X1485000Y2185000D02*
X1593903D01*
D13*
X1855000Y2367500D02*
D03*
Y2232500D02*
D03*
X2515000Y2037500D02*
D03*
Y1902500D02*
D03*
X1855000Y2037500D02*
D03*
Y1902500D02*
D03*
X1760000Y2722500D02*
D03*
Y2857500D02*
D03*
X1807500Y1152500D02*
D03*
Y1287500D02*
D03*
X2000000Y1607500D02*
D03*
Y1472500D02*
D03*
X1807500Y1605000D02*
D03*
Y1470000D02*
D03*
X2000000Y1152500D02*
D03*
Y1287500D02*
D03*
X2720000Y1277500D02*
D03*
Y1142500D02*
D03*
D14*
X1132000Y3825000D02*
D03*
X1220000D02*
D03*
D15*
X3640000Y4230000D02*
D03*
D16*
X3410000Y4810000D02*
D03*
X3640000D02*
D03*
X3870000D02*
D03*
D17*
X1485000Y1965000D02*
D03*
Y2845000D02*
D03*
Y2735000D02*
D03*
Y2625000D02*
D03*
Y2515000D02*
D03*
Y2405000D02*
D03*
Y2295000D02*
D03*
Y2185000D02*
D03*
Y2075000D02*
D03*
D18*
X475000Y1415000D02*
D03*
Y2965000D02*
D03*
D19*
X1435000Y1505000D02*
D03*
D20*
Y2965000D02*
D03*
D21*
X2160000Y2320000D02*
D03*
X2210000D02*
D03*
X2260000D02*
D03*
X2310000D02*
D03*
X2360000D02*
D03*
X2410000D02*
D03*
X2460000D02*
D03*
X2510000D02*
D03*
X2560000D02*
D03*
X2660000D02*
D03*
X2710000D02*
D03*
X2610000D02*
D03*
X2710000Y3160000D02*
D03*
X2660000D02*
D03*
X2610000D02*
D03*
X2560000D02*
D03*
X2510000D02*
D03*
X2460000D02*
D03*
X2410000D02*
D03*
X2360000D02*
D03*
X2310000D02*
D03*
X2210000D02*
D03*
X2160000D02*
D03*
X2260000D02*
D03*
D22*
X2855000Y2465000D02*
D03*
Y2515000D02*
D03*
Y2565000D02*
D03*
Y2615000D02*
D03*
Y2665000D02*
D03*
Y2715000D02*
D03*
Y2765000D02*
D03*
Y2815000D02*
D03*
Y2865000D02*
D03*
Y2915000D02*
D03*
Y2965000D02*
D03*
Y3015000D02*
D03*
X2015000D02*
D03*
Y2965000D02*
D03*
Y2915000D02*
D03*
Y2865000D02*
D03*
Y2815000D02*
D03*
Y2765000D02*
D03*
Y2715000D02*
D03*
Y2665000D02*
D03*
Y2615000D02*
D03*
Y2565000D02*
D03*
Y2515000D02*
D03*
Y2465000D02*
D03*
D23*
X2047500Y1960000D02*
D03*
X2322500D02*
D03*
D24*
X3880000Y115000D02*
D03*
Y525000D02*
D03*
X4040000Y115000D02*
D03*
Y525000D02*
D03*
D25*
X3331790Y1650000D02*
D03*
Y1850000D02*
D03*
Y2050000D02*
D03*
Y2250000D02*
D03*
Y2450000D02*
D03*
Y2650000D02*
D03*
Y2850000D02*
D03*
Y3050000D02*
D03*
X4868210D02*
D03*
Y2850000D02*
D03*
Y2650000D02*
D03*
Y2450000D02*
D03*
Y2250000D02*
D03*
Y2050000D02*
D03*
Y1850000D02*
D03*
Y1650000D02*
D03*
D26*
X1965500Y4054700D02*
D03*
X1838500D02*
D03*
X1711500D02*
D03*
X1584500D02*
D03*
X1965500Y3514700D02*
D03*
X1838500D02*
D03*
X1711500D02*
D03*
X1584500D02*
D03*
X2284500D02*
D03*
X2411500D02*
D03*
X2538500D02*
D03*
X2665500D02*
D03*
X2284500Y4054700D02*
D03*
X2411500D02*
D03*
X2538500D02*
D03*
X2665500D02*
D03*
D27*
X2512500Y1310000D02*
D03*
X2447500D02*
D03*
X2577500D02*
D03*
X2382500D02*
D03*
Y1110000D02*
D03*
X2447500D02*
D03*
X2512500D02*
D03*
X2577500D02*
D03*
D28*
X898000Y3780000D02*
D03*
Y3700000D02*
D03*
Y3620000D02*
D03*
Y3540000D02*
D03*
Y3460000D02*
D03*
D29*
X328000Y3175000D02*
D03*
Y4065000D02*
D03*
X878000Y3175000D02*
D03*
Y4065000D02*
D03*
D30*
X4130000Y1305000D02*
D03*
D31*
X3982500Y1150000D02*
D03*
X4277500D02*
D03*
D32*
X3937500Y3570000D02*
D03*
X3802500D02*
D03*
Y3380000D02*
D03*
X3937500D02*
D03*
X4027500Y720000D02*
D03*
X3892500D02*
D03*
X2732600Y1824000D02*
D03*
X2867600D02*
D03*
X2412500Y1480000D02*
D03*
X2547500D02*
D03*
D33*
X3955000Y3754000D02*
D03*
X3860000Y3966000D02*
D03*
X3765000Y3754000D02*
D03*
D34*
X4862500Y4049100D02*
D03*
X4207500Y3394100D02*
D03*
D35*
X4862500D02*
D03*
X4207500Y4049100D02*
D03*
D36*
X3180000Y4555000D02*
D03*
Y4845000D02*
D03*
X4100000Y4555000D02*
D03*
Y4845000D02*
D03*
D37*
X2016352Y2563649D02*
X2134645D01*
X2015000Y2565000D02*
X2016352Y2563649D01*
X2134645D02*
X2135997Y2562297D01*
X2016691Y2616691D02*
X2178861D01*
X2016383Y2866383D02*
X2016982Y2865783D01*
X4040000Y525000D02*
Y707500D01*
Y115000D02*
Y525000D01*
X4027500Y720000D02*
X4040000Y707500D01*
X2016982Y2865783D02*
X2187502D01*
X2188285Y2866566D01*
D38*
X2765292Y2619840D02*
X2770132Y2615000D01*
X2855000D01*
X2759880Y2619840D02*
X2765292D01*
D39*
X898000Y3780000D02*
X1132000D01*
D40*
X2381250Y1016570D02*
Y1108750D01*
X2374680Y1010000D02*
X2381250Y1016570D01*
X2420000Y939406D02*
X2447500Y966906D01*
Y1110000D01*
X2420000Y930000D02*
Y939406D01*
X2381250Y1108750D02*
X2382500Y1110000D01*
D41*
X1257500Y3825000D02*
D03*
D42*
X160000Y1200000D02*
D03*
X414000D02*
D03*
X668000D02*
D03*
Y946000D02*
D03*
X414000D02*
D03*
D43*
X922000Y1200000D02*
D03*
Y946000D02*
D03*
X160000D02*
D03*
D44*
X435000Y1885000D02*
D03*
Y2685000D02*
D03*
D45*
X620000Y3840000D02*
D03*
Y3400000D02*
D03*
D46*
X4600000Y150000D02*
D03*
X4776777Y223223D02*
D03*
X4423223D02*
D03*
X4850000Y400000D02*
D03*
X4350000D02*
D03*
X4776777Y576777D02*
D03*
X4423223D02*
D03*
X4600000Y650000D02*
D03*
X150000Y400000D02*
D03*
X223223Y223223D02*
D03*
Y576777D02*
D03*
X400000Y150000D02*
D03*
Y650000D02*
D03*
X576777Y223223D02*
D03*
Y576777D02*
D03*
X650000Y400000D02*
D03*
X400000Y4850000D02*
D03*
X223223Y4776777D02*
D03*
X576777D02*
D03*
X150000Y4600000D02*
D03*
X650000D02*
D03*
X223223Y4423223D02*
D03*
X576777D02*
D03*
X400000Y4350000D02*
D03*
X4850000Y4600000D02*
D03*
X4776777Y4776777D02*
D03*
Y4423223D02*
D03*
X4600000Y4850000D02*
D03*
Y4350000D02*
D03*
X4423223Y4776777D02*
D03*
Y4423223D02*
D03*
X4350000Y4600000D02*
D03*
D47*
X2135997Y2562297D02*
D03*
X4866124Y1535415D02*
D03*
X4799999Y3899999D02*
D03*
Y3599999D02*
D03*
Y1799999D02*
D03*
Y1500000D02*
D03*
Y1200000D02*
D03*
X4499999Y3899999D02*
D03*
Y3599999D02*
D03*
Y3299999D02*
D03*
Y2999999D02*
D03*
Y2699999D02*
D03*
Y2399999D02*
D03*
Y2099999D02*
D03*
Y1200000D02*
D03*
Y900000D02*
D03*
X4199999Y4199999D02*
D03*
Y3899999D02*
D03*
Y3599999D02*
D03*
Y3299999D02*
D03*
Y2999999D02*
D03*
Y2699999D02*
D03*
Y2399999D02*
D03*
Y2099999D02*
D03*
Y1799999D02*
D03*
Y900000D02*
D03*
X3899999Y4799999D02*
D03*
Y4199999D02*
D03*
Y2999999D02*
D03*
Y2699999D02*
D03*
Y2399999D02*
D03*
Y2099999D02*
D03*
Y1799999D02*
D03*
Y1500000D02*
D03*
Y1200000D02*
D03*
Y900000D02*
D03*
Y600000D02*
D03*
Y300000D02*
D03*
X3599999Y3899999D02*
D03*
Y3599999D02*
D03*
Y3299999D02*
D03*
Y2999999D02*
D03*
Y2699999D02*
D03*
Y2399999D02*
D03*
Y2099999D02*
D03*
Y1500000D02*
D03*
Y1200000D02*
D03*
Y900000D02*
D03*
Y600000D02*
D03*
X3299999Y4799999D02*
D03*
Y4199999D02*
D03*
Y3899999D02*
D03*
Y3599999D02*
D03*
Y3299999D02*
D03*
Y2999999D02*
D03*
Y600000D02*
D03*
X2999999Y4799999D02*
D03*
Y4499999D02*
D03*
Y4199999D02*
D03*
Y3899999D02*
D03*
Y3599999D02*
D03*
Y3299999D02*
D03*
X2699999Y4499999D02*
D03*
Y4199999D02*
D03*
Y3299999D02*
D03*
Y2099999D02*
D03*
Y1500000D02*
D03*
Y900000D02*
D03*
Y600000D02*
D03*
X2099999Y4199999D02*
D03*
Y600000D02*
D03*
X1799999Y3899999D02*
D03*
Y2999999D02*
D03*
Y1799999D02*
D03*
X1500000Y4199999D02*
D03*
Y600000D02*
D03*
X1200000Y4199999D02*
D03*
Y3299999D02*
D03*
Y2999999D02*
D03*
Y2699999D02*
D03*
Y2099999D02*
D03*
Y1500000D02*
D03*
X900000Y4799999D02*
D03*
Y4499999D02*
D03*
Y2999999D02*
D03*
Y600000D02*
D03*
Y300000D02*
D03*
X600000Y3599999D02*
D03*
Y3299999D02*
D03*
Y2699999D02*
D03*
Y2399999D02*
D03*
Y2099999D02*
D03*
X300000Y3899999D02*
D03*
Y3599999D02*
D03*
Y2999999D02*
D03*
Y2699999D02*
D03*
Y2399999D02*
D03*
Y2099999D02*
D03*
Y1799999D02*
D03*
Y1500000D02*
D03*
X4930549Y1527899D02*
D03*
X4643169Y1777145D02*
D03*
X4556564Y1757813D02*
D03*
X4476247Y1757811D02*
D03*
X4390245Y1756801D02*
D03*
X4297558Y1745252D02*
D03*
X4207546Y1711538D02*
D03*
X4130680Y1654791D02*
D03*
X4075687Y1587260D02*
D03*
X4042071Y1511133D02*
D03*
X4005211Y1424561D02*
D03*
X3978717Y1337486D02*
D03*
X4276856Y1358169D02*
D03*
X4269954Y1447950D02*
D03*
X4318763Y1515485D02*
D03*
X4443672Y1541628D02*
D03*
X4586861Y1540997D02*
D03*
X4698588Y1512743D02*
D03*
X4733074Y1753264D02*
D03*
X4676564Y1696637D02*
D03*
X4596565D02*
D03*
X4516565D02*
D03*
X4436565D02*
D03*
X4356569Y1695807D02*
D03*
X4278126Y1680102D02*
D03*
X4206711Y1644048D02*
D03*
X4148761Y1588896D02*
D03*
X4106491Y1520976D02*
D03*
X4086179Y1443598D02*
D03*
X4041924Y1376954D02*
D03*
X4037736Y1297063D02*
D03*
X4222264Y1303846D02*
D03*
X4213773Y1383394D02*
D03*
X4184213Y1457732D02*
D03*
X4220557Y1529000D02*
D03*
X4282253Y1579927D02*
D03*
X4359117Y1602108D02*
D03*
X4439106Y1603363D02*
D03*
X4519106D02*
D03*
X4599106D02*
D03*
X4679036Y1600011D02*
D03*
X4738716Y1546736D02*
D03*
X4887597Y1750237D02*
D03*
X1610000Y839000D02*
D03*
X1950000Y2280000D02*
D03*
X1855000Y2232500D02*
D03*
X1214779Y3784800D02*
D03*
Y3865200D02*
D03*
X1295222Y3784800D02*
D03*
X1255001Y3825000D02*
D03*
X1295222Y3865200D02*
D03*
X3270000Y4595221D02*
D03*
Y4514779D02*
D03*
X3310221Y4555000D02*
D03*
X3350442Y4514779D02*
D03*
Y4595221D02*
D03*
X3390664Y4555000D02*
D03*
X3430885Y4514779D02*
D03*
Y4595221D02*
D03*
X2759480Y3462829D02*
D03*
Y4025925D02*
D03*
Y3704156D02*
D03*
Y3865040D02*
D03*
X2719259Y3583492D02*
D03*
Y4066146D02*
D03*
X2759480Y3945483D02*
D03*
X2679038Y4106367D02*
D03*
Y3945483D02*
D03*
Y3784598D02*
D03*
X2759480Y3623713D02*
D03*
X2719259Y3663935D02*
D03*
Y3503050D02*
D03*
X2679038Y3865040D02*
D03*
X2719259Y3824819D02*
D03*
X2759480Y3543271D02*
D03*
X2719259Y3985704D02*
D03*
X2679038Y3704156D02*
D03*
Y3543271D02*
D03*
X2759480Y3784598D02*
D03*
X2679038Y3623713D02*
D03*
X2719259Y3744377D02*
D03*
X2679038Y3462829D02*
D03*
X2719259Y3905261D02*
D03*
X2679038Y4025925D02*
D03*
X2759480Y4106367D02*
D03*
X2190520Y3462829D02*
D03*
Y4025925D02*
D03*
Y3704156D02*
D03*
Y3865040D02*
D03*
X2230741Y3583492D02*
D03*
Y4066146D02*
D03*
X2190520Y3945483D02*
D03*
X2270962Y4106367D02*
D03*
Y3945483D02*
D03*
Y3784598D02*
D03*
X2190520Y3623713D02*
D03*
X2230741Y3663935D02*
D03*
Y3503050D02*
D03*
X2270962Y3865040D02*
D03*
X2230741Y3824819D02*
D03*
X2190520Y3543271D02*
D03*
X2230741Y3985704D02*
D03*
X2270962Y3704156D02*
D03*
Y3543271D02*
D03*
X2190520Y3784598D02*
D03*
X2270962Y3623713D02*
D03*
X2230741Y3744377D02*
D03*
X2270962Y3462829D02*
D03*
X2230741Y3905261D02*
D03*
X2270962Y4025925D02*
D03*
X2190520Y4106367D02*
D03*
X2059480Y3462829D02*
D03*
Y4025925D02*
D03*
Y3704156D02*
D03*
Y3865040D02*
D03*
X2019259Y3583492D02*
D03*
Y4066146D02*
D03*
X2059480Y3945483D02*
D03*
X1979038Y4106367D02*
D03*
Y3945483D02*
D03*
Y3784598D02*
D03*
X2059480Y3623713D02*
D03*
X2019259Y3663935D02*
D03*
Y3503050D02*
D03*
X1979038Y3865040D02*
D03*
X2019259Y3824819D02*
D03*
X2059480Y3543271D02*
D03*
X2019259Y3985704D02*
D03*
X1979038Y3704156D02*
D03*
Y3543271D02*
D03*
X2059480Y3784598D02*
D03*
X1979038Y3623713D02*
D03*
X2019259Y3744377D02*
D03*
X1979038Y3462829D02*
D03*
X2019259Y3905261D02*
D03*
X1979038Y4025925D02*
D03*
X2059480Y4106367D02*
D03*
X1490520D02*
D03*
X1570962Y4025925D02*
D03*
X1530741Y3905261D02*
D03*
X1570962Y3462829D02*
D03*
X1530741Y3744377D02*
D03*
X1570962Y3623713D02*
D03*
X1490520Y3784598D02*
D03*
X1570962Y3543271D02*
D03*
Y3704156D02*
D03*
X1530741Y3985704D02*
D03*
X1490520Y3543271D02*
D03*
X1530741Y3824819D02*
D03*
X1570962Y3865040D02*
D03*
X1530741Y3503050D02*
D03*
Y3663935D02*
D03*
X1490520Y3623713D02*
D03*
X1570962Y3784598D02*
D03*
Y3945483D02*
D03*
Y4106367D02*
D03*
X1490520Y3945483D02*
D03*
X1530741Y4066146D02*
D03*
Y3583492D02*
D03*
X1490520Y3865040D02*
D03*
Y3704156D02*
D03*
Y4025925D02*
D03*
Y3462829D02*
D03*
X794000Y3460001D02*
D03*
X846000Y3460000D02*
D03*
X1002000Y3460000D02*
D03*
X898000Y3460000D02*
D03*
X950000Y3460000D02*
D03*
X3648009Y4555000D02*
D03*
X3607788Y4514779D02*
D03*
Y4595221D02*
D03*
X3688231D02*
D03*
Y4514779D02*
D03*
X3728452Y4555000D02*
D03*
X3768673Y4595221D02*
D03*
Y4514779D02*
D03*
X3808894Y4555000D02*
D03*
X3849115Y4595221D02*
D03*
Y4514779D02*
D03*
X3889336Y4555000D02*
D03*
X3929558Y4595221D02*
D03*
Y4514779D02*
D03*
X3969779Y4555000D02*
D03*
X4010000Y4514779D02*
D03*
Y4595221D02*
D03*
X1152000Y1537500D02*
D03*
X2374680Y1010000D02*
D03*
X3373050Y1500000D02*
D03*
X3243050Y1495000D02*
D03*
X2420000Y930000D02*
D03*
X2412500Y1480000D02*
D03*
X2720000Y1277500D02*
D03*
X2580000Y990000D02*
D03*
X2521701Y594992D02*
D03*
X3892500Y720000D02*
D03*
X4760000Y1880000D02*
D03*
Y2020000D02*
D03*
X3170000Y1340000D02*
D03*
X2000000Y1607500D02*
D03*
X3955000Y3754000D02*
D03*
X3128100Y1495000D02*
D03*
X3488000D02*
D03*
X3689050Y1824000D02*
D03*
X3022234Y1120000D02*
D03*
X3328050Y918000D02*
D03*
X2880088Y1823984D02*
D03*
X2720080D02*
D03*
X1358664Y2514597D02*
D03*
Y2295403D02*
D03*
X3050000Y2880000D02*
D03*
X2973366Y2933366D02*
D03*
X2570000Y2150000D02*
D03*
X2424601Y2208750D02*
D03*
X2660000Y2150000D02*
D03*
X3005000Y2514600D02*
D03*
X2966250Y2643750D02*
D03*
X2850000Y2140000D02*
D03*
X2000000Y980000D02*
D03*
X2070000Y2150000D02*
D03*
X2338750Y2208750D02*
D03*
X2759880Y2619840D02*
D03*
X3070849Y2010850D02*
D03*
X3012936Y2400000D02*
D03*
X3158314Y2108314D02*
D03*
X2910000Y2267060D02*
D03*
X2962536Y2464528D02*
D03*
X3170000Y2550000D02*
D03*
X4027500Y720000D02*
D03*
X1807500Y902500D02*
D03*
X2188285Y2866566D02*
D03*
X2180000Y2615552D02*
D03*
X1807500Y1283500D02*
D03*
X1510000Y840000D02*
D03*
X1307992Y780008D02*
D03*
X2470800Y3514700D02*
D03*
X2308300Y3020000D02*
D03*
X2245600D02*
D03*
X2355000Y2845000D02*
D03*
X1990000Y3203300D02*
D03*
Y3140600D02*
D03*
X2966250Y2736250D02*
D03*
X2460000Y2983819D02*
D03*
X1152000Y1664500D02*
D03*
X1807500D02*
D03*
Y1410500D02*
D03*
Y1152500D02*
D03*
X2000000D02*
D03*
Y1472500D02*
D03*
X2408357Y2910043D02*
D03*
X2138750Y3271250D02*
D03*
X1711500Y3514700D02*
D03*
X1904082Y2768418D02*
D03*
X2231250Y3271250D02*
D03*
X1904082Y2668418D02*
D03*
X2962536Y3015472D02*
D03*
X4700000Y2250000D02*
D03*
X2410000Y3305000D02*
D03*
X2358513Y3264933D02*
D03*
X2610000Y3010000D02*
D03*
X2659528Y3052464D02*
D03*
X1634231Y2403174D02*
D03*
X2559056Y3050755D02*
D03*
X1634231Y2503646D02*
D03*
X2710000Y3010000D02*
D03*
X1634231Y2337458D02*
D03*
%TF.MD5,4a006a4b02fdec0146503db557a609ba*%
M02*
