%TF.GenerationSoftware,Altium Limited,Altium Designer,23.11.1 (41)*%
G04 Layer_Color=8388736*
%FSLAX45Y45*%
%MOMM*%
%TF.SameCoordinates,A167E3D1-D2EE-47D6-BB63-3A09D1C29133*%
%TF.FilePolarity,Negative*%
%TF.FileFunction,Soldermask,Top*%
%TF.Part,Single*%
G01*
G75*
%TA.AperFunction,SMDPad,CuDef*%
%ADD56R,1.07000X0.97000*%
%ADD57R,0.77000X1.57000*%
%ADD58R,3.32000X2.22000*%
%ADD59R,1.02000X2.22000*%
%TA.AperFunction,ConnectorPad*%
%ADD60R,1.67000X0.77000*%
%ADD61R,2.27000X1.27000*%
%ADD62R,1.47000X1.67000*%
%ADD63R,1.47000X1.27000*%
%TA.AperFunction,SMDPad,CuDef*%
%ADD64R,0.37000X1.52000*%
%ADD65R,1.52000X0.37000*%
%ADD66R,1.67000X1.87000*%
%ADD67R,1.07000X0.97000*%
%TA.AperFunction,ConnectorPad*%
%ADD68R,1.60580X1.07000*%
%TA.AperFunction,SMDPad,CuDef*%
%ADD69R,0.67000X1.62000*%
%ADD70R,0.42000X0.97000*%
%ADD71R,2.97000X0.67000*%
%ADD72R,2.57000X2.07000*%
%ADD73R,1.12000X1.17000*%
%ADD74R,1.17000X2.32000*%
%ADD75R,0.97000X1.07000*%
%ADD76R,0.67000X1.30000*%
%ADD77R,1.82000X1.82000*%
%ADD78R,1.82000X1.82000*%
%ADD79R,1.87000X1.57000*%
%TA.AperFunction,ComponentPad*%
%ADD80C,1.87000*%
%TA.AperFunction,ViaPad*%
%ADD81C,1.87000*%
%TA.AperFunction,ComponentPad*%
%ADD82C,1.07000*%
%ADD83C,1.17000*%
%TA.AperFunction,WasherPad*%
%ADD84C,0.07000*%
%TA.AperFunction,ViaPad*%
%ADD85C,1.07000*%
G36*
X770000Y4973517D02*
X770686Y4973450D01*
X771346Y4973249D01*
X771954Y4972924D01*
X772487Y4972487D01*
X772924Y4971954D01*
X773249Y4971346D01*
X773450Y4970686D01*
X773517Y4970000D01*
Y4230000D01*
X773450Y4229314D01*
X773249Y4228654D01*
X772924Y4228046D01*
X772487Y4227513D01*
X771954Y4227076D01*
X771346Y4226750D01*
X770686Y4226550D01*
X770000Y4226483D01*
X30000D01*
X29314Y4226550D01*
X28654Y4226750D01*
X28046Y4227076D01*
X27513Y4227513D01*
X27076Y4228046D01*
X26751Y4228654D01*
X26550Y4229314D01*
X26483Y4230000D01*
X26483Y4600000D01*
X26484Y4600003D01*
X26483Y4612113D01*
X26495Y4612228D01*
X26491Y4612343D01*
X28075Y4636516D01*
X28094Y4636629D01*
X28098Y4636745D01*
X31260Y4660763D01*
X31286Y4660875D01*
X31297Y4660990D01*
X36023Y4684749D01*
X36057Y4684860D01*
X36076Y4684974D01*
X42346Y4708373D01*
X42386Y4708481D01*
X42412Y4708594D01*
X50199Y4731533D01*
X50247Y4731638D01*
X50280Y4731748D01*
X59551Y4754129D01*
X59605Y4754232D01*
X59646Y4754339D01*
X70360Y4776066D01*
X70421Y4776164D01*
X70469Y4776269D01*
X82581Y4797248D01*
X82649Y4797342D01*
X82703Y4797444D01*
X96162Y4817587D01*
X96234Y4817675D01*
X96295Y4817773D01*
X111043Y4836993D01*
X111122Y4837077D01*
X111189Y4837170D01*
X127162Y4855384D01*
X127246Y4855463D01*
X127319Y4855552D01*
X144449Y4872682D01*
X144537Y4872754D01*
X144617Y4872839D01*
X162830Y4888812D01*
X162924Y4888879D01*
X163008Y4888958D01*
X182227Y4903705D01*
X182325Y4903766D01*
X182414Y4903839D01*
X202557Y4917298D01*
X202657Y4917352D01*
X202752Y4917419D01*
X223731Y4929532D01*
X223836Y4929579D01*
X223934Y4929640D01*
X245661Y4940355D01*
X245769Y4940395D01*
X245871Y4940450D01*
X268252Y4949720D01*
X268363Y4949754D01*
X268467Y4949801D01*
X291407Y4957588D01*
X291519Y4957614D01*
X291627Y4957655D01*
X315027Y4963925D01*
X315140Y4963944D01*
X315251Y4963977D01*
X339011Y4968704D01*
X339125Y4968715D01*
X339238Y4968741D01*
X363256Y4971903D01*
X363372Y4971907D01*
X363485Y4971926D01*
X387658Y4973510D01*
X387772Y4973506D01*
X387888Y4973518D01*
X400000D01*
X770000Y4973517D01*
D02*
G37*
G36*
X2950686Y4973450D02*
X2951346Y4973250D01*
X2951954Y4972925D01*
X2952487Y4972487D01*
X2952924Y4971954D01*
X2953250Y4971346D01*
X2953450Y4970686D01*
X2953517Y4970000D01*
Y4577500D01*
Y4573404D01*
X2953494Y4573173D01*
X2953487Y4572945D01*
X2952418Y4564822D01*
X2952365Y4564596D01*
X2952328Y4564371D01*
X2950207Y4556457D01*
X2950127Y4556242D01*
X2950060Y4556021D01*
X2946924Y4548452D01*
X2946816Y4548249D01*
X2946721Y4548039D01*
X2942624Y4540944D01*
X2942491Y4540757D01*
X2942369Y4540561D01*
X2937381Y4534062D01*
X2937223Y4533893D01*
X2937078Y4533716D01*
X2931285Y4527923D01*
X2931107Y4527777D01*
X2930939Y4527619D01*
X2924439Y4522632D01*
X2924245Y4522511D01*
X2924056Y4522376D01*
X2916961Y4518280D01*
X2916751Y4518185D01*
X2916548Y4518076D01*
X2908979Y4514941D01*
X2908757Y4514873D01*
X2908544Y4514793D01*
X2900630Y4512672D01*
X2900402Y4512635D01*
X2900179Y4512583D01*
X2892056Y4511513D01*
X2891827Y4511506D01*
X2891596Y4511483D01*
X2758404D01*
X2758173Y4511506D01*
X2757945Y4511513D01*
X2749822Y4512583D01*
X2749596Y4512635D01*
X2749371Y4512672D01*
X2741457Y4514793D01*
X2741242Y4514874D01*
X2741021Y4514941D01*
X2733452Y4518076D01*
X2733250Y4518184D01*
X2733039Y4518280D01*
X2725944Y4522376D01*
X2725758Y4522510D01*
X2725561Y4522632D01*
X2719062Y4527619D01*
X2718893Y4527778D01*
X2718716Y4527923D01*
X2712923Y4533716D01*
X2712777Y4533894D01*
X2712619Y4534062D01*
X2707632Y4540562D01*
X2707511Y4540756D01*
X2707376Y4540944D01*
X2703280Y4548039D01*
X2703185Y4548249D01*
X2703076Y4548452D01*
X2699941Y4556021D01*
X2699873Y4556243D01*
X2699793Y4556457D01*
X2697673Y4564371D01*
X2697635Y4564598D01*
X2697583Y4564822D01*
X2696513Y4572945D01*
X2696506Y4573173D01*
X2696483Y4573404D01*
Y4577500D01*
Y4577500D01*
Y4970000D01*
X2696551Y4970686D01*
X2696751Y4971346D01*
X2697076Y4971954D01*
X2697513Y4972487D01*
X2698046Y4972925D01*
X2698654Y4973250D01*
X2699314Y4973450D01*
X2700000Y4973517D01*
X2950000D01*
X2950686Y4973450D01*
D02*
G37*
G36*
X2250686D02*
X2251346Y4973250D01*
X2251954Y4972925D01*
X2252487Y4972487D01*
X2252924Y4971954D01*
X2253249Y4971346D01*
X2253450Y4970686D01*
X2253517Y4970000D01*
Y4577500D01*
Y4573404D01*
X2253494Y4573173D01*
X2253487Y4572945D01*
X2252418Y4564822D01*
X2252365Y4564596D01*
X2252328Y4564371D01*
X2250207Y4556457D01*
X2250127Y4556242D01*
X2250060Y4556021D01*
X2246924Y4548452D01*
X2246816Y4548249D01*
X2246721Y4548039D01*
X2242624Y4540944D01*
X2242491Y4540757D01*
X2242369Y4540561D01*
X2237381Y4534062D01*
X2237223Y4533893D01*
X2237078Y4533716D01*
X2231285Y4527923D01*
X2231107Y4527777D01*
X2230939Y4527619D01*
X2224439Y4522632D01*
X2224244Y4522511D01*
X2224056Y4522376D01*
X2216961Y4518280D01*
X2216751Y4518185D01*
X2216548Y4518076D01*
X2208979Y4514941D01*
X2208757Y4514873D01*
X2208543Y4514793D01*
X2200630Y4512672D01*
X2200402Y4512635D01*
X2200178Y4512583D01*
X2192056Y4511513D01*
X2191827Y4511506D01*
X2191596Y4511483D01*
X2058404D01*
X2058173Y4511506D01*
X2057945Y4511513D01*
X2049822Y4512583D01*
X2049596Y4512635D01*
X2049371Y4512672D01*
X2041457Y4514793D01*
X2041242Y4514874D01*
X2041021Y4514941D01*
X2033452Y4518076D01*
X2033249Y4518184D01*
X2033039Y4518280D01*
X2025944Y4522376D01*
X2025757Y4522510D01*
X2025561Y4522632D01*
X2019061Y4527619D01*
X2018893Y4527778D01*
X2018716Y4527923D01*
X2012923Y4533716D01*
X2012777Y4533894D01*
X2012619Y4534062D01*
X2007631Y4540562D01*
X2007511Y4540756D01*
X2007376Y4540944D01*
X2003279Y4548039D01*
X2003184Y4548249D01*
X2003076Y4548452D01*
X1999941Y4556021D01*
X1999873Y4556243D01*
X1999793Y4556457D01*
X1997672Y4564371D01*
X1997635Y4564598D01*
X1997583Y4564822D01*
X1996513Y4572945D01*
X1996506Y4573173D01*
X1996483Y4573404D01*
Y4577500D01*
Y4577500D01*
Y4970000D01*
X1996550Y4970686D01*
X1996751Y4971346D01*
X1997076Y4971954D01*
X1997513Y4972487D01*
X1998046Y4972925D01*
X1998654Y4973250D01*
X1999314Y4973450D01*
X2000000Y4973517D01*
X2250000D01*
X2250686Y4973450D01*
D02*
G37*
G36*
X1550686D02*
X1551346Y4973250D01*
X1551954Y4972925D01*
X1552487Y4972487D01*
X1552925Y4971954D01*
X1553250Y4971346D01*
X1553450Y4970686D01*
X1553517Y4970000D01*
Y4577500D01*
Y4573404D01*
X1553494Y4573173D01*
X1553487Y4572945D01*
X1552418Y4564822D01*
X1552365Y4564596D01*
X1552328Y4564371D01*
X1550207Y4556457D01*
X1550127Y4556242D01*
X1550060Y4556021D01*
X1546924Y4548452D01*
X1546816Y4548249D01*
X1546721Y4548039D01*
X1542624Y4540944D01*
X1542491Y4540757D01*
X1542369Y4540561D01*
X1537381Y4534062D01*
X1537223Y4533893D01*
X1537078Y4533716D01*
X1531285Y4527923D01*
X1531107Y4527777D01*
X1530939Y4527619D01*
X1524439Y4522632D01*
X1524245Y4522511D01*
X1524056Y4522376D01*
X1516961Y4518280D01*
X1516751Y4518185D01*
X1516548Y4518076D01*
X1508979Y4514941D01*
X1508757Y4514873D01*
X1508544Y4514793D01*
X1500630Y4512672D01*
X1500402Y4512635D01*
X1500179Y4512583D01*
X1492056Y4511513D01*
X1491827Y4511506D01*
X1491596Y4511483D01*
X1358404D01*
X1358173Y4511506D01*
X1357945Y4511513D01*
X1349822Y4512583D01*
X1349596Y4512635D01*
X1349371Y4512672D01*
X1341457Y4514793D01*
X1341242Y4514874D01*
X1341021Y4514941D01*
X1333452Y4518076D01*
X1333250Y4518184D01*
X1333039Y4518280D01*
X1325944Y4522376D01*
X1325758Y4522510D01*
X1325561Y4522632D01*
X1319062Y4527619D01*
X1318893Y4527778D01*
X1318716Y4527923D01*
X1312923Y4533716D01*
X1312777Y4533894D01*
X1312619Y4534062D01*
X1307632Y4540562D01*
X1307511Y4540756D01*
X1307376Y4540944D01*
X1303280Y4548039D01*
X1303185Y4548249D01*
X1303076Y4548452D01*
X1299941Y4556021D01*
X1299873Y4556243D01*
X1299793Y4556457D01*
X1297673Y4564371D01*
X1297635Y4564598D01*
X1297583Y4564822D01*
X1296513Y4572945D01*
X1296506Y4573173D01*
X1296483Y4573404D01*
Y4577500D01*
Y4577500D01*
Y4970000D01*
X1296551Y4970686D01*
X1296751Y4971346D01*
X1297076Y4971954D01*
X1297513Y4972487D01*
X1298046Y4972925D01*
X1298654Y4973250D01*
X1299314Y4973450D01*
X1300000Y4973517D01*
X1550000D01*
X1550686Y4973450D01*
D02*
G37*
G36*
X1200687D02*
X1201347Y4973250D01*
X1201955Y4972925D01*
X1202488Y4972487D01*
X1202925Y4971954D01*
X1203250Y4971346D01*
X1203450Y4970686D01*
X1203518Y4970000D01*
X1203517Y4577500D01*
Y4573404D01*
X1203494Y4573173D01*
X1203487Y4572945D01*
X1202418Y4564822D01*
X1202365Y4564596D01*
X1202328Y4564371D01*
X1200207Y4556457D01*
X1200127Y4556242D01*
X1200060Y4556021D01*
X1196924Y4548452D01*
X1196816Y4548249D01*
X1196721Y4548039D01*
X1192624Y4540944D01*
X1192491Y4540757D01*
X1192369Y4540561D01*
X1187381Y4534062D01*
X1187223Y4533893D01*
X1187078Y4533716D01*
X1181285Y4527923D01*
X1181107Y4527777D01*
X1180939Y4527619D01*
X1174439Y4522632D01*
X1174245Y4522511D01*
X1174056Y4522376D01*
X1166961Y4518280D01*
X1166751Y4518185D01*
X1166548Y4518076D01*
X1158979Y4514941D01*
X1158757Y4514873D01*
X1158544Y4514793D01*
X1150630Y4512672D01*
X1150402Y4512635D01*
X1150179Y4512583D01*
X1142056Y4511513D01*
X1141827Y4511506D01*
X1141596Y4511483D01*
X1008404D01*
X1008173Y4511506D01*
X1007945Y4511513D01*
X999822Y4512583D01*
X999596Y4512635D01*
X999371Y4512672D01*
X991457Y4514793D01*
X991242Y4514874D01*
X991021Y4514941D01*
X983452Y4518076D01*
X983249Y4518184D01*
X983039Y4518280D01*
X975944Y4522376D01*
X975758Y4522510D01*
X975561Y4522632D01*
X969062Y4527619D01*
X968893Y4527778D01*
X968716Y4527923D01*
X962923Y4533716D01*
X962777Y4533894D01*
X962619Y4534062D01*
X957632Y4540562D01*
X957511Y4540756D01*
X957376Y4540944D01*
X953280Y4548039D01*
X953185Y4548249D01*
X953076Y4548452D01*
X949941Y4556021D01*
X949873Y4556243D01*
X949793Y4556457D01*
X947672Y4564371D01*
X947635Y4564598D01*
X947583Y4564822D01*
X946513Y4572945D01*
X946506Y4573173D01*
X946483Y4573404D01*
Y4577500D01*
Y4577500D01*
D01*
X946484Y4970000D01*
X946551Y4970686D01*
X946751Y4971346D01*
X947077Y4971954D01*
X947514Y4972487D01*
X948047Y4972925D01*
X948655Y4973250D01*
X949315Y4973450D01*
X950001Y4973517D01*
X1200001D01*
X1200687Y4973450D01*
D02*
G37*
G36*
X4600000Y4973517D02*
X4600003Y4973516D01*
X4612113Y4973517D01*
X4612228Y4973505D01*
X4612343Y4973509D01*
X4636516Y4971925D01*
X4636629Y4971906D01*
X4636745Y4971902D01*
X4660763Y4968740D01*
X4660875Y4968714D01*
X4660990Y4968703D01*
X4684749Y4963977D01*
X4684860Y4963943D01*
X4684974Y4963924D01*
X4708373Y4957654D01*
X4708481Y4957614D01*
X4708594Y4957587D01*
X4731533Y4949801D01*
X4731638Y4949753D01*
X4731748Y4949720D01*
X4754129Y4940449D01*
X4754232Y4940394D01*
X4754339Y4940354D01*
X4776066Y4929640D01*
X4776164Y4929579D01*
X4776269Y4929531D01*
X4797248Y4917419D01*
X4797342Y4917351D01*
X4797444Y4917297D01*
X4817587Y4903838D01*
X4817675Y4903766D01*
X4817773Y4903704D01*
X4836993Y4888957D01*
X4837077Y4888878D01*
X4837170Y4888811D01*
X4855384Y4872838D01*
X4855463Y4872754D01*
X4855552Y4872681D01*
X4872682Y4855551D01*
X4872754Y4855463D01*
X4872839Y4855383D01*
X4888812Y4837170D01*
X4888879Y4837076D01*
X4888958Y4836992D01*
X4903705Y4817773D01*
X4903766Y4817675D01*
X4903839Y4817586D01*
X4917298Y4797443D01*
X4917352Y4797343D01*
X4917419Y4797248D01*
X4929532Y4776269D01*
X4929579Y4776163D01*
X4929640Y4776066D01*
X4940355Y4754338D01*
X4940395Y4754231D01*
X4940450Y4754129D01*
X4949720Y4731748D01*
X4949754Y4731637D01*
X4949801Y4731533D01*
X4957588Y4708593D01*
X4957614Y4708481D01*
X4957655Y4708373D01*
X4963925Y4684973D01*
X4963944Y4684860D01*
X4963977Y4684749D01*
X4968704Y4660989D01*
X4968715Y4660875D01*
X4968741Y4660762D01*
X4971903Y4636744D01*
X4971907Y4636628D01*
X4971926Y4636515D01*
X4973510Y4612342D01*
X4973506Y4612228D01*
X4973518Y4612112D01*
Y4600000D01*
X4973517Y4230000D01*
X4973450Y4229314D01*
X4973249Y4228654D01*
X4972924Y4228046D01*
X4972487Y4227513D01*
X4971954Y4227076D01*
X4971346Y4226750D01*
X4970686Y4226550D01*
X4970000Y4226483D01*
X4230000D01*
X4229314Y4226550D01*
X4228654Y4226750D01*
X4228046Y4227076D01*
X4227513Y4227513D01*
X4227076Y4228046D01*
X4226750Y4228654D01*
X4226550Y4229314D01*
X4226483Y4230000D01*
Y4970000D01*
X4226550Y4970686D01*
X4226750Y4971346D01*
X4227076Y4971954D01*
X4227513Y4972487D01*
X4228046Y4972924D01*
X4228654Y4973249D01*
X4229314Y4973450D01*
X4230000Y4973517D01*
X4600000Y4973517D01*
D02*
G37*
G36*
X2600687Y4973450D02*
X2601347Y4973250D01*
X2601955Y4972925D01*
X2602488Y4972487D01*
X2602925Y4971954D01*
X2603250Y4971346D01*
X2603450Y4970686D01*
X2603518Y4970000D01*
X2603517Y4577500D01*
Y4573404D01*
D01*
X2603516Y3957205D01*
X2603448Y3956519D01*
X2603327Y3956119D01*
X2603249Y3955860D01*
X2603248Y3955859D01*
D01*
X2602923Y3955251D01*
X2602486Y3954718D01*
X2602141Y3954435D01*
X2601953Y3954281D01*
X2601345Y3953956D01*
D01*
X2601345Y3953956D01*
X2601086Y3953877D01*
X2600685Y3953755D01*
X2599999Y3953688D01*
X2568500Y3953683D01*
X2568500D01*
X2568500D01*
X2381499Y3953693D01*
D01*
X2350000Y3953694D01*
X2349314Y3953761D01*
X2348654Y3953961D01*
X2348046Y3954286D01*
X2347513Y3954724D01*
X2347076Y3955257D01*
X2346751Y3955865D01*
X2346551Y3956525D01*
X2346483Y3957211D01*
Y4573404D01*
Y4577500D01*
Y4577500D01*
D01*
X2346484Y4970000D01*
X2346551Y4970686D01*
X2346751Y4971346D01*
X2347077Y4971954D01*
X2347514Y4972487D01*
X2348047Y4972925D01*
X2348655Y4973250D01*
X2349315Y4973450D01*
X2350001Y4973517D01*
X2600001D01*
X2600687Y4973450D01*
D02*
G37*
G36*
X1900687D02*
X1901347Y4973250D01*
X1901955Y4972925D01*
X1902488Y4972487D01*
X1902925Y4971954D01*
X1903250Y4971346D01*
X1903450Y4970686D01*
X1903518Y4970000D01*
X1903517Y4577503D01*
X1903517Y4577500D01*
X1903515Y3957200D01*
X1903448Y3956514D01*
X1903248Y3955854D01*
X1902923Y3955246D01*
X1902485Y3954713D01*
X1901952Y3954275D01*
X1901344Y3953950D01*
X1900684Y3953750D01*
X1899998Y3953682D01*
X1868500Y3953683D01*
X1681500Y3953686D01*
X1650000Y3953686D01*
X1649314Y3953754D01*
X1648654Y3953954D01*
X1648046Y3954279D01*
X1647513Y3954716D01*
X1647076Y3955249D01*
X1646751Y3955857D01*
X1646551Y3956517D01*
X1646483Y3957203D01*
Y4573401D01*
X1646483Y4573404D01*
Y4577500D01*
Y4577500D01*
D01*
X1646484Y4970000D01*
X1646551Y4970686D01*
X1646751Y4971346D01*
X1647076Y4971954D01*
X1647514Y4972487D01*
X1648047Y4972925D01*
X1648655Y4973250D01*
X1649315Y4973450D01*
X1650001Y4973517D01*
X1900001D01*
X1900687Y4973450D01*
D02*
G37*
G36*
X4882380Y1710000D02*
X4955000D01*
Y1590000D01*
X4882380D01*
Y1576500D01*
X4708800D01*
Y1723500D01*
X4882380D01*
Y1710000D01*
D02*
G37*
G36*
X4970686Y773450D02*
X4971346Y773249D01*
X4971954Y772924D01*
X4972487Y772487D01*
X4972924Y771954D01*
X4973249Y771346D01*
X4973450Y770686D01*
X4973517Y770000D01*
X4973517Y400000D01*
X4973516Y399997D01*
X4973517Y387887D01*
X4973505Y387772D01*
X4973509Y387657D01*
X4971925Y363484D01*
X4971906Y363371D01*
X4971902Y363255D01*
X4968740Y339237D01*
X4968714Y339125D01*
X4968703Y339010D01*
X4963977Y315251D01*
X4963943Y315140D01*
X4963924Y315026D01*
X4957654Y291627D01*
X4957614Y291519D01*
X4957587Y291406D01*
X4949801Y268467D01*
X4949753Y268362D01*
X4949720Y268251D01*
X4940449Y245870D01*
X4940394Y245768D01*
X4940354Y245661D01*
X4929640Y223934D01*
X4929579Y223836D01*
X4929531Y223731D01*
X4917419Y202751D01*
X4917351Y202657D01*
X4917297Y202556D01*
X4903838Y182413D01*
X4903766Y182325D01*
X4903704Y182226D01*
X4888957Y163007D01*
X4888878Y162923D01*
X4888811Y162829D01*
X4872838Y144616D01*
X4872754Y144537D01*
X4872681Y144448D01*
X4855551Y127318D01*
X4855463Y127246D01*
X4855383Y127161D01*
X4837170Y111188D01*
X4837076Y111121D01*
X4836992Y111042D01*
X4817773Y96295D01*
X4817675Y96234D01*
X4817586Y96161D01*
X4797443Y82702D01*
X4797343Y82648D01*
X4797248Y82580D01*
X4776269Y70468D01*
X4776163Y70420D01*
X4776066Y70360D01*
X4754338Y59645D01*
X4754231Y59605D01*
X4754129Y59550D01*
X4731748Y50280D01*
X4731637Y50246D01*
X4731533Y50199D01*
X4708593Y42412D01*
X4708481Y42385D01*
X4708373Y42345D01*
X4684973Y36075D01*
X4684860Y36056D01*
X4684749Y36023D01*
X4660989Y31296D01*
X4660875Y31285D01*
X4660762Y31259D01*
X4636744Y28097D01*
X4636628Y28093D01*
X4636515Y28074D01*
X4612342Y26490D01*
X4612228Y26494D01*
X4612112Y26482D01*
X4600000D01*
X4230000Y26483D01*
X4229314Y26550D01*
X4228654Y26751D01*
X4228046Y27076D01*
X4227513Y27513D01*
X4227076Y28046D01*
X4226750Y28654D01*
X4226550Y29314D01*
X4226483Y30000D01*
Y770000D01*
X4226550Y770686D01*
X4226750Y771346D01*
X4227076Y771954D01*
X4227513Y772487D01*
X4228046Y772924D01*
X4228654Y773249D01*
X4229314Y773450D01*
X4230000Y773517D01*
X4970000D01*
X4970686Y773450D01*
D02*
G37*
G36*
X3591828Y488495D02*
X3592057Y488488D01*
X3600179Y487419D01*
X3600406Y487366D01*
X3600631Y487329D01*
X3608544Y485208D01*
X3608759Y485128D01*
X3608980Y485060D01*
X3616549Y481925D01*
X3616752Y481817D01*
X3616962Y481722D01*
X3624057Y477625D01*
X3624244Y477492D01*
X3624440Y477370D01*
X3630940Y472382D01*
X3631109Y472224D01*
X3631285Y472079D01*
X3637079Y466286D01*
X3637225Y466108D01*
X3637382Y465940D01*
X3642370Y459440D01*
X3642490Y459245D01*
X3642625Y459057D01*
X3646722Y451962D01*
X3646817Y451752D01*
X3646925Y451549D01*
X3650061Y443980D01*
X3650128Y443758D01*
X3650208Y443544D01*
X3652329Y435631D01*
X3652366Y435403D01*
X3652418Y435179D01*
X3653488Y427057D01*
X3653495Y426828D01*
X3653518Y426597D01*
Y422501D01*
X3653517Y30001D01*
X3653450Y29315D01*
X3653250Y28655D01*
X3652925Y28047D01*
X3652487Y27514D01*
X3651954Y27077D01*
X3651346Y26752D01*
X3650686Y26551D01*
X3650000Y26484D01*
X3400000D01*
X3399314Y26551D01*
X3398654Y26752D01*
X3398046Y27077D01*
X3397513Y27514D01*
X3397076Y28047D01*
X3396751Y28655D01*
X3396551Y29315D01*
X3396483Y30001D01*
X3396484Y422501D01*
Y426597D01*
X3396507Y426828D01*
X3396514Y427057D01*
X3397584Y435179D01*
X3397636Y435406D01*
X3397673Y435631D01*
X3399794Y443544D01*
X3399875Y443759D01*
X3399942Y443980D01*
X3403077Y451549D01*
X3403185Y451752D01*
X3403280Y451962D01*
X3407377Y459057D01*
X3407511Y459244D01*
X3407633Y459440D01*
X3412620Y465940D01*
X3412779Y466109D01*
X3412924Y466285D01*
X3418717Y472079D01*
X3418895Y472225D01*
X3419063Y472382D01*
X3425563Y477370D01*
X3425757Y477490D01*
X3425945Y477625D01*
X3433040Y481722D01*
X3433250Y481817D01*
X3433453Y481925D01*
X3441022Y485060D01*
X3441244Y485128D01*
X3441458Y485208D01*
X3449372Y487329D01*
X3449599Y487366D01*
X3449823Y487418D01*
X3457946Y488488D01*
X3458174Y488495D01*
X3458405Y488518D01*
X3591597D01*
X3591828Y488495D01*
D02*
G37*
G36*
X3241828D02*
X3242057Y488488D01*
X3250179Y487419D01*
X3250405Y487366D01*
X3250631Y487329D01*
X3258544Y485208D01*
X3258759Y485128D01*
X3258980Y485060D01*
X3266549Y481925D01*
X3266752Y481817D01*
X3266962Y481722D01*
X3274057Y477625D01*
X3274244Y477492D01*
X3274440Y477370D01*
X3280940Y472382D01*
X3281108Y472224D01*
X3281285Y472079D01*
X3287079Y466286D01*
X3287225Y466108D01*
X3287382Y465940D01*
X3292370Y459440D01*
X3292490Y459245D01*
X3292625Y459057D01*
X3296722Y451962D01*
X3296817Y451752D01*
X3296925Y451549D01*
X3300060Y443980D01*
X3300128Y443758D01*
X3300208Y443544D01*
X3302329Y435631D01*
X3302366Y435403D01*
X3302418Y435179D01*
X3303488Y427057D01*
X3303495Y426828D01*
X3303518Y426597D01*
Y422501D01*
Y30001D01*
X3303451Y29315D01*
X3303250Y28655D01*
X3302925Y28047D01*
X3302488Y27514D01*
X3301955Y27077D01*
X3301347Y26752D01*
X3300687Y26551D01*
X3300001Y26484D01*
X3050001D01*
X3049315Y26551D01*
X3048655Y26752D01*
X3048047Y27077D01*
X3047514Y27514D01*
X3047077Y28047D01*
X3046752Y28655D01*
X3046551Y29315D01*
X3046484Y30001D01*
Y422501D01*
Y426597D01*
X3046507Y426828D01*
X3046514Y427057D01*
X3047583Y435179D01*
X3047636Y435406D01*
X3047673Y435631D01*
X3049794Y443544D01*
X3049875Y443759D01*
X3049942Y443980D01*
X3053077Y451549D01*
X3053185Y451752D01*
X3053280Y451962D01*
X3057377Y459057D01*
X3057511Y459244D01*
X3057632Y459440D01*
X3062620Y465940D01*
X3062778Y466109D01*
X3062924Y466285D01*
X3068716Y472079D01*
X3068895Y472225D01*
X3069062Y472382D01*
X3075563Y477370D01*
X3075757Y477490D01*
X3075945Y477625D01*
X3083040Y481722D01*
X3083250Y481817D01*
X3083453Y481925D01*
X3091022Y485060D01*
X3091244Y485128D01*
X3091458Y485208D01*
X3099371Y487329D01*
X3099599Y487366D01*
X3099823Y487418D01*
X3107946Y488488D01*
X3108174Y488495D01*
X3108405Y488518D01*
X3241597D01*
X3241828Y488495D01*
D02*
G37*
G36*
X2891828D02*
X2892056Y488488D01*
X2900179Y487419D01*
X2900405Y487366D01*
X2900630Y487329D01*
X2908544Y485208D01*
X2908759Y485128D01*
X2908980Y485060D01*
X2916549Y481925D01*
X2916752Y481817D01*
X2916962Y481722D01*
X2924057Y477625D01*
X2924244Y477492D01*
X2924440Y477370D01*
X2930940Y472382D01*
X2931108Y472224D01*
X2931285Y472079D01*
X2937078Y466286D01*
X2937225Y466108D01*
X2937382Y465940D01*
X2942370Y459440D01*
X2942490Y459245D01*
X2942625Y459057D01*
X2946722Y451962D01*
X2946817Y451752D01*
X2946925Y451549D01*
X2950060Y443980D01*
X2950128Y443758D01*
X2950208Y443544D01*
X2952329Y435631D01*
X2952366Y435403D01*
X2952418Y435179D01*
X2953488Y427057D01*
X2953495Y426828D01*
X2953518Y426597D01*
Y422501D01*
X2953517Y30001D01*
X2953450Y29315D01*
X2953250Y28655D01*
X2952924Y28047D01*
X2952487Y27514D01*
X2951954Y27077D01*
X2951346Y26752D01*
X2950686Y26551D01*
X2950000Y26484D01*
X2700000D01*
X2699314Y26551D01*
X2698654Y26752D01*
X2698046Y27077D01*
X2697513Y27514D01*
X2697076Y28047D01*
X2696751Y28655D01*
X2696551Y29315D01*
X2696483Y30001D01*
X2696484Y422501D01*
Y426597D01*
X2696507Y426828D01*
X2696514Y427057D01*
X2697583Y435179D01*
X2697636Y435406D01*
X2697673Y435631D01*
X2699794Y443544D01*
X2699874Y443759D01*
X2699942Y443980D01*
X2703077Y451549D01*
X2703185Y451752D01*
X2703280Y451962D01*
X2707377Y459057D01*
X2707510Y459244D01*
X2707632Y459440D01*
X2712620Y465940D01*
X2712778Y466109D01*
X2712923Y466285D01*
X2718716Y472079D01*
X2718894Y472225D01*
X2719062Y472382D01*
X2725562Y477370D01*
X2725757Y477490D01*
X2725945Y477625D01*
X2733040Y481722D01*
X2733250Y481817D01*
X2733453Y481925D01*
X2741022Y485060D01*
X2741244Y485128D01*
X2741458Y485208D01*
X2749371Y487329D01*
X2749599Y487366D01*
X2749823Y487418D01*
X2757945Y488488D01*
X2758174Y488495D01*
X2758405Y488518D01*
X2891597D01*
X2891828Y488495D01*
D02*
G37*
G36*
X2541828D02*
X2542056Y488488D01*
X2550179Y487419D01*
X2550405Y487366D01*
X2550630Y487329D01*
X2558544Y485208D01*
X2558759Y485128D01*
X2558980Y485060D01*
X2566549Y481925D01*
X2566752Y481817D01*
X2566962Y481722D01*
X2574057Y477625D01*
X2574244Y477492D01*
X2574440Y477370D01*
X2580939Y472382D01*
X2581108Y472224D01*
X2581285Y472079D01*
X2587078Y466286D01*
X2587224Y466108D01*
X2587382Y465940D01*
X2592369Y459440D01*
X2592490Y459245D01*
X2592625Y459057D01*
X2596722Y451962D01*
X2596816Y451752D01*
X2596925Y451549D01*
X2600060Y443980D01*
X2600128Y443758D01*
X2600208Y443544D01*
X2602329Y435631D01*
X2602366Y435403D01*
X2602418Y435179D01*
X2603488Y427057D01*
X2603495Y426828D01*
X2603518Y426597D01*
Y422501D01*
Y30001D01*
X2603450Y29315D01*
X2603250Y28655D01*
X2602925Y28047D01*
X2602488Y27514D01*
X2601955Y27077D01*
X2601347Y26752D01*
X2600687Y26551D01*
X2600001Y26484D01*
X2350001D01*
X2349315Y26551D01*
X2348655Y26752D01*
X2348047Y27077D01*
X2347514Y27514D01*
X2347077Y28047D01*
X2346751Y28655D01*
X2346551Y29315D01*
X2346484Y30001D01*
Y422501D01*
Y426597D01*
X2346507Y426828D01*
X2346514Y427057D01*
X2347583Y435179D01*
X2347636Y435406D01*
X2347673Y435631D01*
X2349794Y443544D01*
X2349874Y443759D01*
X2349941Y443980D01*
X2353077Y451549D01*
X2353185Y451752D01*
X2353280Y451962D01*
X2357377Y459057D01*
X2357510Y459244D01*
X2357632Y459440D01*
X2362620Y465940D01*
X2362778Y466109D01*
X2362923Y466285D01*
X2368716Y472079D01*
X2368894Y472225D01*
X2369062Y472382D01*
X2375562Y477370D01*
X2375756Y477490D01*
X2375945Y477625D01*
X2383040Y481722D01*
X2383250Y481817D01*
X2383453Y481925D01*
X2391022Y485060D01*
X2391244Y485128D01*
X2391457Y485208D01*
X2399371Y487329D01*
X2399599Y487366D01*
X2399822Y487418D01*
X2407945Y488488D01*
X2408174Y488495D01*
X2408405Y488518D01*
X2541597D01*
X2541828Y488495D01*
D02*
G37*
G36*
X2191828D02*
X2192057Y488488D01*
X2200179Y487419D01*
X2200406Y487366D01*
X2200631Y487329D01*
X2208544Y485208D01*
X2208759Y485128D01*
X2208980Y485060D01*
X2216549Y481925D01*
X2216752Y481817D01*
X2216962Y481722D01*
X2224057Y477625D01*
X2224244Y477492D01*
X2224440Y477370D01*
X2230940Y472382D01*
X2231109Y472224D01*
X2231285Y472079D01*
X2237079Y466286D01*
X2237225Y466108D01*
X2237382Y465940D01*
X2242370Y459440D01*
X2242490Y459245D01*
X2242625Y459057D01*
X2246722Y451962D01*
X2246817Y451752D01*
X2246925Y451549D01*
X2250061Y443980D01*
X2250128Y443758D01*
X2250208Y443544D01*
X2252329Y435631D01*
X2252366Y435403D01*
X2252418Y435179D01*
X2253488Y427057D01*
X2253495Y426828D01*
X2253518Y426597D01*
Y422501D01*
X2253517Y30001D01*
X2253450Y29315D01*
X2253250Y28655D01*
X2252925Y28047D01*
X2252487Y27514D01*
X2251954Y27077D01*
X2251346Y26752D01*
X2250686Y26551D01*
X2250000Y26484D01*
X2000000D01*
X1999314Y26551D01*
X1998654Y26752D01*
X1998046Y27077D01*
X1997513Y27514D01*
X1997076Y28047D01*
X1996751Y28655D01*
X1996551Y29315D01*
X1996483Y30001D01*
X1996484Y422501D01*
Y426597D01*
X1996507Y426828D01*
X1996514Y427057D01*
X1997584Y435179D01*
X1997636Y435406D01*
X1997673Y435631D01*
X1999794Y443544D01*
X1999875Y443759D01*
X1999942Y443980D01*
X2003077Y451549D01*
X2003185Y451752D01*
X2003280Y451962D01*
X2007377Y459057D01*
X2007511Y459244D01*
X2007633Y459440D01*
X2012620Y465940D01*
X2012779Y466109D01*
X2012924Y466285D01*
X2018717Y472079D01*
X2018895Y472225D01*
X2019063Y472382D01*
X2025563Y477370D01*
X2025757Y477490D01*
X2025945Y477625D01*
X2033040Y481722D01*
X2033250Y481817D01*
X2033453Y481925D01*
X2041022Y485060D01*
X2041244Y485128D01*
X2041458Y485208D01*
X2049372Y487329D01*
X2049599Y487366D01*
X2049823Y487418D01*
X2057946Y488488D01*
X2058174Y488495D01*
X2058405Y488518D01*
X2191597D01*
X2191828Y488495D01*
D02*
G37*
G36*
X1841828D02*
X1842057Y488488D01*
X1850179Y487419D01*
X1850405Y487366D01*
X1850631Y487329D01*
X1858544Y485208D01*
X1858759Y485128D01*
X1858980Y485060D01*
X1866549Y481925D01*
X1866752Y481817D01*
X1866962Y481722D01*
X1874057Y477625D01*
X1874244Y477492D01*
X1874440Y477370D01*
X1880940Y472382D01*
X1881109Y472224D01*
X1881285Y472079D01*
X1887079Y466286D01*
X1887225Y466108D01*
X1887382Y465940D01*
X1892370Y459440D01*
X1892490Y459245D01*
X1892625Y459057D01*
X1896722Y451962D01*
X1896817Y451752D01*
X1896925Y451549D01*
X1900060Y443980D01*
X1900128Y443758D01*
X1900208Y443544D01*
X1902329Y435631D01*
X1902366Y435403D01*
X1902418Y435179D01*
X1903488Y427057D01*
X1903495Y426828D01*
X1903518Y426597D01*
Y422501D01*
Y30001D01*
X1903451Y29315D01*
X1903250Y28655D01*
X1902925Y28047D01*
X1902488Y27514D01*
X1901955Y27077D01*
X1901347Y26752D01*
X1900687Y26551D01*
X1900001Y26484D01*
X1650001D01*
X1649315Y26551D01*
X1648655Y26752D01*
X1648047Y27077D01*
X1647514Y27514D01*
X1647077Y28047D01*
X1646752Y28655D01*
X1646551Y29315D01*
X1646484Y30001D01*
Y422501D01*
Y426597D01*
X1646507Y426828D01*
X1646514Y427057D01*
X1647583Y435179D01*
X1647636Y435406D01*
X1647673Y435631D01*
X1649794Y443544D01*
X1649875Y443759D01*
X1649942Y443980D01*
X1653077Y451549D01*
X1653185Y451752D01*
X1653280Y451962D01*
X1657377Y459057D01*
X1657511Y459244D01*
X1657632Y459440D01*
X1662620Y465940D01*
X1662778Y466109D01*
X1662924Y466285D01*
X1668717Y472079D01*
X1668895Y472225D01*
X1669062Y472382D01*
X1675563Y477370D01*
X1675757Y477490D01*
X1675945Y477625D01*
X1683040Y481722D01*
X1683250Y481817D01*
X1683453Y481925D01*
X1691022Y485060D01*
X1691244Y485128D01*
X1691458Y485208D01*
X1699372Y487329D01*
X1699599Y487366D01*
X1699823Y487418D01*
X1707946Y488488D01*
X1708174Y488495D01*
X1708405Y488518D01*
X1841597D01*
X1841828Y488495D01*
D02*
G37*
G36*
X1491828D02*
X1492056Y488488D01*
X1500179Y487419D01*
X1500405Y487366D01*
X1500630Y487329D01*
X1508544Y485208D01*
X1508759Y485128D01*
X1508980Y485060D01*
X1516549Y481925D01*
X1516752Y481817D01*
X1516962Y481722D01*
X1524057Y477625D01*
X1524244Y477492D01*
X1524440Y477370D01*
X1530940Y472382D01*
X1531108Y472224D01*
X1531285Y472079D01*
X1537078Y466286D01*
X1537225Y466108D01*
X1537382Y465940D01*
X1542370Y459440D01*
X1542490Y459245D01*
X1542625Y459057D01*
X1546722Y451962D01*
X1546817Y451752D01*
X1546925Y451549D01*
X1550060Y443980D01*
X1550128Y443758D01*
X1550208Y443544D01*
X1552329Y435631D01*
X1552366Y435403D01*
X1552418Y435179D01*
X1553488Y427057D01*
X1553495Y426828D01*
X1553518Y426597D01*
Y422501D01*
X1553517Y30001D01*
X1553450Y29315D01*
X1553250Y28655D01*
X1552925Y28047D01*
X1552487Y27514D01*
X1551954Y27077D01*
X1551346Y26752D01*
X1550686Y26551D01*
X1550000Y26484D01*
X1300000D01*
X1299314Y26551D01*
X1298654Y26752D01*
X1298046Y27077D01*
X1297513Y27514D01*
X1297076Y28047D01*
X1296751Y28655D01*
X1296551Y29315D01*
X1296483Y30001D01*
X1296484Y422501D01*
Y426597D01*
X1296507Y426828D01*
X1296514Y427057D01*
X1297583Y435179D01*
X1297636Y435406D01*
X1297673Y435631D01*
X1299794Y443544D01*
X1299874Y443759D01*
X1299942Y443980D01*
X1303077Y451549D01*
X1303185Y451752D01*
X1303280Y451962D01*
X1307377Y459057D01*
X1307510Y459244D01*
X1307632Y459440D01*
X1312620Y465940D01*
X1312778Y466109D01*
X1312923Y466285D01*
X1318716Y472079D01*
X1318894Y472225D01*
X1319062Y472382D01*
X1325563Y477370D01*
X1325757Y477490D01*
X1325945Y477625D01*
X1333040Y481722D01*
X1333250Y481817D01*
X1333453Y481925D01*
X1341022Y485060D01*
X1341244Y485128D01*
X1341458Y485208D01*
X1349371Y487329D01*
X1349599Y487366D01*
X1349823Y487418D01*
X1357945Y488488D01*
X1358174Y488495D01*
X1358405Y488518D01*
X1491597D01*
X1491828Y488495D01*
D02*
G37*
G36*
X1141828D02*
X1142056Y488488D01*
X1150179Y487419D01*
X1150405Y487366D01*
X1150630Y487329D01*
X1158544Y485208D01*
X1158759Y485128D01*
X1158980Y485060D01*
X1166549Y481925D01*
X1166752Y481817D01*
X1166962Y481722D01*
X1174057Y477625D01*
X1174244Y477492D01*
X1174440Y477370D01*
X1180939Y472382D01*
X1181108Y472224D01*
X1181285Y472079D01*
X1187078Y466286D01*
X1187224Y466108D01*
X1187382Y465940D01*
X1192369Y459440D01*
X1192490Y459245D01*
X1192625Y459057D01*
X1196722Y451962D01*
X1196817Y451752D01*
X1196925Y451549D01*
X1200060Y443980D01*
X1200128Y443758D01*
X1200208Y443544D01*
X1202329Y435631D01*
X1202366Y435403D01*
X1202418Y435179D01*
X1203488Y427057D01*
X1203495Y426828D01*
X1203518Y426597D01*
Y422501D01*
Y30001D01*
X1203450Y29315D01*
X1203250Y28655D01*
X1202925Y28047D01*
X1202488Y27514D01*
X1201955Y27077D01*
X1201347Y26752D01*
X1200687Y26551D01*
X1200001Y26484D01*
X950001D01*
X949315Y26551D01*
X948655Y26752D01*
X948047Y27077D01*
X947514Y27514D01*
X947077Y28047D01*
X946751Y28655D01*
X946551Y29315D01*
X946484Y30001D01*
Y422501D01*
Y426597D01*
X946507Y426828D01*
X946514Y427057D01*
X947583Y435179D01*
X947636Y435406D01*
X947673Y435631D01*
X949794Y443544D01*
X949874Y443759D01*
X949941Y443980D01*
X953077Y451549D01*
X953185Y451752D01*
X953280Y451962D01*
X957377Y459057D01*
X957510Y459244D01*
X957632Y459440D01*
X962620Y465940D01*
X962778Y466109D01*
X962923Y466285D01*
X968716Y472079D01*
X968894Y472225D01*
X969062Y472382D01*
X975562Y477370D01*
X975756Y477490D01*
X975945Y477625D01*
X983040Y481722D01*
X983250Y481817D01*
X983453Y481925D01*
X991022Y485060D01*
X991244Y485128D01*
X991458Y485208D01*
X999371Y487329D01*
X999599Y487366D01*
X999822Y487418D01*
X1007945Y488488D01*
X1008174Y488495D01*
X1008405Y488518D01*
X1141597D01*
X1141828Y488495D01*
D02*
G37*
G36*
X770686Y773450D02*
X771346Y773249D01*
X771954Y772924D01*
X772487Y772487D01*
X772924Y771954D01*
X773249Y771346D01*
X773450Y770686D01*
X773517Y770000D01*
Y30000D01*
X773450Y29314D01*
X773249Y28654D01*
X772924Y28046D01*
X772487Y27513D01*
X771954Y27076D01*
X771346Y26751D01*
X770686Y26550D01*
X770000Y26483D01*
X400000Y26483D01*
X399997Y26484D01*
X387887Y26483D01*
X387772Y26495D01*
X387657Y26491D01*
X363484Y28075D01*
X363371Y28094D01*
X363255Y28098D01*
X339237Y31260D01*
X339125Y31286D01*
X339010Y31297D01*
X315251Y36023D01*
X315140Y36057D01*
X315026Y36076D01*
X291627Y42346D01*
X291519Y42386D01*
X291406Y42412D01*
X268467Y50199D01*
X268362Y50247D01*
X268251Y50280D01*
X245870Y59551D01*
X245768Y59605D01*
X245661Y59646D01*
X223934Y70360D01*
X223836Y70421D01*
X223731Y70469D01*
X202751Y82581D01*
X202657Y82649D01*
X202556Y82703D01*
X182413Y96162D01*
X182325Y96234D01*
X182226Y96295D01*
X163007Y111043D01*
X162923Y111122D01*
X162829Y111189D01*
X144616Y127162D01*
X144537Y127246D01*
X144448Y127319D01*
X127318Y144449D01*
X127246Y144537D01*
X127161Y144617D01*
X111188Y162830D01*
X111121Y162924D01*
X111042Y163008D01*
X96295Y182227D01*
X96234Y182325D01*
X96161Y182414D01*
X82702Y202557D01*
X82648Y202657D01*
X82580Y202752D01*
X70468Y223731D01*
X70420Y223836D01*
X70360Y223934D01*
X59645Y245661D01*
X59605Y245769D01*
X59550Y245871D01*
X50280Y268252D01*
X50246Y268363D01*
X50199Y268467D01*
X42412Y291407D01*
X42385Y291519D01*
X42345Y291627D01*
X36075Y315027D01*
X36056Y315140D01*
X36023Y315251D01*
X31296Y339011D01*
X31285Y339125D01*
X31259Y339238D01*
X28097Y363256D01*
X28093Y363372D01*
X28074Y363485D01*
X26490Y387658D01*
X26494Y387772D01*
X26482Y387888D01*
Y400000D01*
X26483Y770000D01*
X26550Y770686D01*
X26751Y771346D01*
X27076Y771954D01*
X27513Y772487D01*
X28046Y772924D01*
X28654Y773249D01*
X29314Y773450D01*
X30000Y773517D01*
X770000D01*
X770686Y773450D01*
D02*
G37*
D56*
X1855000Y2367500D02*
D03*
Y2232500D02*
D03*
X2515000Y2037500D02*
D03*
Y1902500D02*
D03*
X1855000Y2037500D02*
D03*
Y1902500D02*
D03*
X1760000Y2722500D02*
D03*
Y2857500D02*
D03*
X1807500Y1152500D02*
D03*
Y1287500D02*
D03*
X2000000Y1607500D02*
D03*
Y1472500D02*
D03*
X1807500Y1605000D02*
D03*
Y1470000D02*
D03*
X2000000Y1152500D02*
D03*
Y1287500D02*
D03*
X2720000Y1277500D02*
D03*
Y1142500D02*
D03*
D57*
X1132000Y3825000D02*
D03*
X1220000D02*
D03*
D58*
X3640000Y4230000D02*
D03*
D59*
X3410000Y4810000D02*
D03*
X3640000D02*
D03*
X3870000D02*
D03*
D60*
X1485000Y1965000D02*
D03*
Y2845000D02*
D03*
Y2735000D02*
D03*
Y2625000D02*
D03*
Y2515000D02*
D03*
Y2405000D02*
D03*
Y2295000D02*
D03*
Y2185000D02*
D03*
Y2075000D02*
D03*
D61*
X475000Y1415000D02*
D03*
Y2965000D02*
D03*
D62*
X1435000Y1505000D02*
D03*
D63*
Y2965000D02*
D03*
D64*
X2160000Y2320000D02*
D03*
X2210000D02*
D03*
X2260000D02*
D03*
X2310000D02*
D03*
X2360000D02*
D03*
X2410000D02*
D03*
X2460000D02*
D03*
X2510000D02*
D03*
X2560000D02*
D03*
X2660000D02*
D03*
X2710000D02*
D03*
X2610000D02*
D03*
X2710000Y3160000D02*
D03*
X2660000D02*
D03*
X2610000D02*
D03*
X2560000D02*
D03*
X2510000D02*
D03*
X2460000D02*
D03*
X2410000D02*
D03*
X2360000D02*
D03*
X2310000D02*
D03*
X2210000D02*
D03*
X2160000D02*
D03*
X2260000D02*
D03*
D65*
X2855000Y2465000D02*
D03*
Y2515000D02*
D03*
Y2565000D02*
D03*
Y2615000D02*
D03*
Y2665000D02*
D03*
Y2715000D02*
D03*
Y2765000D02*
D03*
Y2815000D02*
D03*
Y2865000D02*
D03*
Y2915000D02*
D03*
Y2965000D02*
D03*
Y3015000D02*
D03*
X2015000D02*
D03*
Y2965000D02*
D03*
Y2915000D02*
D03*
Y2865000D02*
D03*
Y2815000D02*
D03*
Y2765000D02*
D03*
Y2715000D02*
D03*
Y2665000D02*
D03*
Y2615000D02*
D03*
Y2565000D02*
D03*
Y2515000D02*
D03*
Y2465000D02*
D03*
D66*
X2047500Y1960000D02*
D03*
X2322500D02*
D03*
D67*
X3880000Y115000D02*
D03*
Y525000D02*
D03*
X4040000Y115000D02*
D03*
Y525000D02*
D03*
D68*
X3331790Y1650000D02*
D03*
Y1850000D02*
D03*
Y2050000D02*
D03*
Y2250000D02*
D03*
Y2450000D02*
D03*
Y2650000D02*
D03*
Y2850000D02*
D03*
Y3050000D02*
D03*
X4868210D02*
D03*
Y2850000D02*
D03*
Y2650000D02*
D03*
Y2450000D02*
D03*
Y2250000D02*
D03*
Y2050000D02*
D03*
Y1850000D02*
D03*
D69*
X1965500Y4054700D02*
D03*
X1838500D02*
D03*
X1711500D02*
D03*
X1584500D02*
D03*
X1965500Y3514700D02*
D03*
X1838500D02*
D03*
X1711500D02*
D03*
X1584500D02*
D03*
X2284500D02*
D03*
X2411500D02*
D03*
X2538500D02*
D03*
X2665500D02*
D03*
X2284500Y4054700D02*
D03*
X2411500D02*
D03*
X2538500D02*
D03*
X2665500D02*
D03*
D70*
X2512500Y1310000D02*
D03*
X2447500D02*
D03*
X2577500D02*
D03*
X2382500D02*
D03*
Y1110000D02*
D03*
X2447500D02*
D03*
X2512500D02*
D03*
X2577500D02*
D03*
D71*
X898000Y3780000D02*
D03*
Y3700000D02*
D03*
Y3620000D02*
D03*
Y3540000D02*
D03*
Y3460000D02*
D03*
D72*
X328000Y3175000D02*
D03*
Y4065000D02*
D03*
X878000Y3175000D02*
D03*
Y4065000D02*
D03*
D73*
X4130000Y1305000D02*
D03*
D74*
X3982500Y1150000D02*
D03*
X4277500D02*
D03*
D75*
X3937500Y3570000D02*
D03*
X3802500D02*
D03*
Y3380000D02*
D03*
X3937500D02*
D03*
X4027500Y720000D02*
D03*
X3892500D02*
D03*
X2732600Y1824000D02*
D03*
X2867600D02*
D03*
X2412500Y1480000D02*
D03*
X2547500D02*
D03*
D76*
X3955000Y3754000D02*
D03*
X3860000Y3966000D02*
D03*
X3765000Y3754000D02*
D03*
D77*
X4862500Y4049100D02*
D03*
X4207500Y3394100D02*
D03*
D78*
X4862500D02*
D03*
X4207500Y4049100D02*
D03*
D79*
X3180000Y4555000D02*
D03*
Y4845000D02*
D03*
X4100000Y4555000D02*
D03*
Y4845000D02*
D03*
D80*
X160000Y1200000D02*
D03*
X414000D02*
D03*
X668000D02*
D03*
Y946000D02*
D03*
X414000D02*
D03*
D81*
X922000Y1200000D02*
D03*
Y946000D02*
D03*
X160000D02*
D03*
D82*
X435000Y1885000D02*
D03*
Y2685000D02*
D03*
D83*
X620000Y3840000D02*
D03*
Y3400000D02*
D03*
D84*
X4700000Y1370000D02*
D03*
Y930000D02*
D03*
D85*
X4600000Y150000D02*
D03*
X4776777Y223223D02*
D03*
X4423223D02*
D03*
X4850000Y400000D02*
D03*
X4350000D02*
D03*
X4776777Y576777D02*
D03*
X4423223D02*
D03*
X4600000Y650000D02*
D03*
X150000Y400000D02*
D03*
X223223Y223223D02*
D03*
Y576777D02*
D03*
X400000Y150000D02*
D03*
Y650000D02*
D03*
X576777Y223223D02*
D03*
Y576777D02*
D03*
X650000Y400000D02*
D03*
X400000Y4850000D02*
D03*
X223223Y4776777D02*
D03*
X576777D02*
D03*
X150000Y4600000D02*
D03*
X650000D02*
D03*
X223223Y4423223D02*
D03*
X576777D02*
D03*
X400000Y4350000D02*
D03*
X4850000Y4600000D02*
D03*
X4776777Y4776777D02*
D03*
Y4423223D02*
D03*
X4600000Y4850000D02*
D03*
Y4350000D02*
D03*
X4423223Y4776777D02*
D03*
Y4423223D02*
D03*
X4350000Y4600000D02*
D03*
%TF.MD5,dac63fb4d4e94c6975ec8a41d2468df4*%
M02*
