%TF.GenerationSoftware,Altium Limited,Altium Designer,23.11.1 (41)*%
G04 Layer_Physical_Order=6*
G04 Layer_Color=16711680*
%FSLAX45Y45*%
%MOMM*%
%TF.SameCoordinates,A167E3D1-D2EE-47D6-BB63-3A09D1C29133*%
%TF.FilePolarity,Positive*%
%TF.FileFunction,Copper,L6,Bot,Signal*%
%TF.Part,Single*%
G01*
G75*
%TA.AperFunction,Conductor*%
%ADD10C,0.13865*%
%ADD12C,0.18000*%
%TA.AperFunction,SMDPad,CuDef*%
%ADD13R,1.00000X0.90000*%
%ADD32R,0.90000X1.00000*%
%TA.AperFunction,Conductor*%
%ADD40C,0.15240*%
%TA.AperFunction,ComponentPad*%
%ADD42C,1.80000*%
%TA.AperFunction,ViaPad*%
%ADD43C,1.80000*%
%TA.AperFunction,ComponentPad*%
%ADD44C,1.00000*%
%ADD45C,1.10000*%
%TA.AperFunction,ViaPad*%
%ADD46C,1.00000*%
%ADD47C,0.50000*%
%TA.AperFunction,SMDPad,CuDef*%
%ADD49C,1.00000*%
%ADD50R,1.00000X0.30000*%
%ADD51R,0.30000X1.00000*%
%ADD52R,1.50000X2.40000*%
%ADD53R,1.97000X0.60000*%
%ADD54R,1.50000X1.80000*%
%TA.AperFunction,Conductor*%
%ADD55C,0.20000*%
G36*
X4216253Y4970000D02*
Y4230000D01*
X4220280Y4220280D01*
X4230000Y4216253D01*
X4970000D01*
X4979609Y4209833D01*
X4979609Y791208D01*
X4966909Y783746D01*
X4230000D01*
X4220280Y779720D01*
X4216253Y770000D01*
Y30000D01*
X4209833Y20391D01*
X3671206D01*
X3663747Y33091D01*
X3663748Y426597D01*
X3663384Y427475D01*
X3663630Y428392D01*
X3662560Y436515D01*
X3662086Y437337D01*
X3662210Y438278D01*
X3660089Y446192D01*
X3659511Y446945D01*
Y447895D01*
X3656376Y455464D01*
X3655704Y456135D01*
X3655580Y457077D01*
X3651484Y464172D01*
X3650731Y464750D01*
X3650485Y465667D01*
X3645497Y472167D01*
X3644675Y472641D01*
X3644312Y473519D01*
X3638519Y479312D01*
X3637642Y479675D01*
X3637167Y480497D01*
X3630667Y485485D01*
X3629750Y485731D01*
X3629172Y486484D01*
X3622077Y490580D01*
X3621135Y490704D01*
X3620464Y491376D01*
X3612895Y494511D01*
X3611945D01*
X3611192Y495089D01*
X3603278Y497210D01*
X3602337Y497086D01*
X3601515Y497560D01*
X3593392Y498630D01*
X3592475Y498384D01*
X3591597Y498748D01*
X3458405D01*
X3457528Y498384D01*
X3456610Y498630D01*
X3448487Y497560D01*
X3447665Y497086D01*
X3446724Y497210D01*
X3438810Y495089D01*
X3438057Y494511D01*
X3437107D01*
X3429538Y491376D01*
X3428867Y490704D01*
X3427926Y490580D01*
X3420830Y486484D01*
X3420252Y485731D01*
X3419335Y485485D01*
X3412835Y480497D01*
X3412361Y479675D01*
X3411483Y479312D01*
X3405690Y473519D01*
X3405327Y472642D01*
X3404505Y472167D01*
X3399517Y465667D01*
X3399272Y464750D01*
X3398518Y464172D01*
X3394422Y457077D01*
X3394298Y456135D01*
X3393626Y455464D01*
X3390491Y447895D01*
Y446945D01*
X3389913Y446192D01*
X3387793Y438278D01*
X3387917Y437337D01*
X3387442Y436515D01*
X3386372Y428392D01*
X3386618Y427475D01*
X3386255Y426597D01*
X3386254Y30001D01*
X3379832Y20391D01*
X3320169D01*
X3313748Y30001D01*
Y426597D01*
X3313384Y427475D01*
X3313630Y428392D01*
X3312560Y436515D01*
X3312086Y437337D01*
X3312210Y438278D01*
X3310089Y446192D01*
X3309511Y446945D01*
Y447895D01*
X3306376Y455464D01*
X3305704Y456135D01*
X3305580Y457077D01*
X3301484Y464172D01*
X3300731Y464750D01*
X3300485Y465667D01*
X3295497Y472167D01*
X3294675Y472641D01*
X3294312Y473519D01*
X3288519Y479312D01*
X3287642Y479675D01*
X3287167Y480497D01*
X3280667Y485485D01*
X3279750Y485731D01*
X3279172Y486484D01*
X3272077Y490580D01*
X3271135Y490704D01*
X3270464Y491376D01*
X3262895Y494511D01*
X3261945D01*
X3261192Y495089D01*
X3253278Y497210D01*
X3252337Y497086D01*
X3251515Y497560D01*
X3243392Y498630D01*
X3242475Y498384D01*
X3241597Y498748D01*
X3108405D01*
X3107527Y498384D01*
X3106610Y498630D01*
X3098487Y497560D01*
X3097665Y497086D01*
X3096724Y497210D01*
X3088810Y495089D01*
X3088057Y494511D01*
X3087107D01*
X3079538Y491376D01*
X3078867Y490704D01*
X3077926Y490580D01*
X3070830Y486484D01*
X3070252Y485731D01*
X3069335Y485485D01*
X3062835Y480497D01*
X3062361Y479675D01*
X3061483Y479312D01*
X3055690Y473519D01*
X3055327Y472642D01*
X3054505Y472167D01*
X3049517Y465667D01*
X3049272Y464750D01*
X3048518Y464172D01*
X3044422Y457077D01*
X3044298Y456135D01*
X3043626Y455464D01*
X3040491Y447895D01*
Y446945D01*
X3039913Y446192D01*
X3037793Y438278D01*
X3037916Y437337D01*
X3037442Y436515D01*
X3036372Y428392D01*
X3036618Y427475D01*
X3036255Y426597D01*
Y30001D01*
X3029833Y20391D01*
X2971206D01*
X2963747Y33091D01*
X2963747Y426597D01*
X2963384Y427475D01*
X2963630Y428392D01*
X2962560Y436515D01*
X2962086Y437337D01*
X2962209Y438278D01*
X2960089Y446192D01*
X2959511Y446945D01*
Y447895D01*
X2956376Y455464D01*
X2955704Y456135D01*
X2955580Y457077D01*
X2951484Y464172D01*
X2950731Y464750D01*
X2950485Y465667D01*
X2945497Y472167D01*
X2944675Y472641D01*
X2944312Y473519D01*
X2938519Y479312D01*
X2937642Y479675D01*
X2937167Y480497D01*
X2930667Y485485D01*
X2929750Y485731D01*
X2929172Y486484D01*
X2922076Y490580D01*
X2921135Y490704D01*
X2920464Y491376D01*
X2912895Y494511D01*
X2911945D01*
X2911192Y495089D01*
X2903278Y497210D01*
X2902337Y497086D01*
X2901515Y497560D01*
X2893392Y498630D01*
X2892475Y498384D01*
X2891597Y498748D01*
X2758405D01*
X2757527Y498384D01*
X2756610Y498630D01*
X2748487Y497560D01*
X2747665Y497086D01*
X2746724Y497210D01*
X2738810Y495089D01*
X2738057Y494511D01*
X2737107D01*
X2729538Y491376D01*
X2728867Y490704D01*
X2727925Y490580D01*
X2720830Y486484D01*
X2720252Y485731D01*
X2719335Y485485D01*
X2712835Y480497D01*
X2712361Y479675D01*
X2711483Y479312D01*
X2705690Y473519D01*
X2705327Y472642D01*
X2704505Y472167D01*
X2699517Y465667D01*
X2699271Y464750D01*
X2698518Y464172D01*
X2694422Y457077D01*
X2694298Y456135D01*
X2693626Y455464D01*
X2690491Y447895D01*
Y446945D01*
X2689913Y446192D01*
X2687792Y438278D01*
X2687916Y437337D01*
X2687442Y436515D01*
X2686372Y428392D01*
X2686618Y427475D01*
X2686254Y426597D01*
X2686254Y30001D01*
X2679832Y20391D01*
X2620169D01*
X2613747Y30001D01*
Y426597D01*
X2613384Y427475D01*
X2613630Y428392D01*
X2612560Y436515D01*
X2612085Y437337D01*
X2612209Y438278D01*
X2610089Y446192D01*
X2609511Y446945D01*
Y447895D01*
X2606376Y455464D01*
X2605704Y456135D01*
X2605580Y457077D01*
X2601484Y464172D01*
X2600731Y464750D01*
X2600485Y465667D01*
X2595497Y472167D01*
X2594675Y472641D01*
X2594312Y473519D01*
X2588519Y479312D01*
X2587642Y479675D01*
X2587167Y480497D01*
X2580667Y485485D01*
X2579750Y485731D01*
X2579172Y486484D01*
X2572076Y490580D01*
X2571135Y490704D01*
X2570464Y491376D01*
X2562895Y494511D01*
X2561945D01*
X2561192Y495089D01*
X2553278Y497210D01*
X2552337Y497086D01*
X2551515Y497560D01*
X2543392Y498630D01*
X2542474Y498384D01*
X2541597Y498748D01*
X2408405D01*
X2407527Y498384D01*
X2406610Y498630D01*
X2398487Y497560D01*
X2397665Y497086D01*
X2396724Y497210D01*
X2388810Y495089D01*
X2388057Y494511D01*
X2387107D01*
X2379538Y491376D01*
X2378867Y490704D01*
X2377925Y490580D01*
X2370830Y486484D01*
X2370252Y485731D01*
X2369335Y485485D01*
X2362835Y480497D01*
X2362361Y479675D01*
X2361483Y479312D01*
X2355690Y473519D01*
X2355327Y472642D01*
X2354505Y472167D01*
X2349517Y465667D01*
X2349271Y464750D01*
X2348518Y464172D01*
X2344422Y457077D01*
X2344298Y456135D01*
X2343626Y455464D01*
X2340491Y447895D01*
Y446945D01*
X2339913Y446192D01*
X2337792Y438278D01*
X2337916Y437337D01*
X2337442Y436515D01*
X2336372Y428392D01*
X2336618Y427475D01*
X2336254Y426597D01*
Y30001D01*
X2329833Y20391D01*
X2271206D01*
X2263747Y33091D01*
X2263748Y426597D01*
X2263384Y427475D01*
X2263630Y428392D01*
X2262560Y436515D01*
X2262086Y437337D01*
X2262210Y438278D01*
X2260089Y446192D01*
X2259511Y446945D01*
Y447895D01*
X2256376Y455464D01*
X2255704Y456135D01*
X2255580Y457077D01*
X2251484Y464172D01*
X2250731Y464750D01*
X2250485Y465667D01*
X2245497Y472167D01*
X2244675Y472641D01*
X2244312Y473519D01*
X2238519Y479312D01*
X2237642Y479675D01*
X2237167Y480497D01*
X2230667Y485485D01*
X2229750Y485731D01*
X2229172Y486484D01*
X2222077Y490580D01*
X2221135Y490704D01*
X2220464Y491376D01*
X2212895Y494511D01*
X2211945D01*
X2211192Y495089D01*
X2203278Y497210D01*
X2202337Y497086D01*
X2201515Y497560D01*
X2193392Y498630D01*
X2192475Y498384D01*
X2191597Y498748D01*
X2058405D01*
X2057528Y498384D01*
X2056610Y498630D01*
X2048487Y497560D01*
X2047665Y497086D01*
X2046724Y497210D01*
X2038810Y495089D01*
X2038057Y494511D01*
X2037107D01*
X2029538Y491376D01*
X2028867Y490704D01*
X2027926Y490580D01*
X2020830Y486484D01*
X2020252Y485731D01*
X2019335Y485485D01*
X2012835Y480497D01*
X2012361Y479675D01*
X2011483Y479312D01*
X2005690Y473519D01*
X2005327Y472642D01*
X2004505Y472167D01*
X1999517Y465667D01*
X1999272Y464750D01*
X1998518Y464172D01*
X1994422Y457077D01*
X1994298Y456135D01*
X1993626Y455464D01*
X1990491Y447895D01*
Y446945D01*
X1989913Y446192D01*
X1987793Y438278D01*
X1987917Y437337D01*
X1987442Y436515D01*
X1986372Y428392D01*
X1986618Y427475D01*
X1986255Y426597D01*
X1986254Y30001D01*
X1979832Y20391D01*
X1920169D01*
X1913748Y30001D01*
Y426597D01*
X1913384Y427475D01*
X1913630Y428392D01*
X1912560Y436515D01*
X1912086Y437337D01*
X1912210Y438278D01*
X1910089Y446192D01*
X1909511Y446945D01*
Y447895D01*
X1906376Y455464D01*
X1905704Y456135D01*
X1905580Y457077D01*
X1901484Y464172D01*
X1900731Y464750D01*
X1900485Y465667D01*
X1895497Y472167D01*
X1894675Y472641D01*
X1894312Y473519D01*
X1888519Y479312D01*
X1887642Y479675D01*
X1887167Y480497D01*
X1880667Y485485D01*
X1879750Y485731D01*
X1879172Y486484D01*
X1872077Y490580D01*
X1871135Y490704D01*
X1870464Y491376D01*
X1862895Y494511D01*
X1861945D01*
X1861192Y495089D01*
X1853278Y497210D01*
X1852337Y497086D01*
X1851515Y497560D01*
X1843392Y498630D01*
X1842475Y498384D01*
X1841597Y498748D01*
X1708405D01*
X1707527Y498384D01*
X1706610Y498630D01*
X1698487Y497560D01*
X1697665Y497086D01*
X1696724Y497210D01*
X1688810Y495089D01*
X1688057Y494511D01*
X1687107D01*
X1679538Y491376D01*
X1678867Y490704D01*
X1677926Y490580D01*
X1670830Y486484D01*
X1670252Y485731D01*
X1669335Y485485D01*
X1662835Y480497D01*
X1662361Y479675D01*
X1661483Y479312D01*
X1655690Y473519D01*
X1655327Y472642D01*
X1654505Y472167D01*
X1649517Y465667D01*
X1649272Y464750D01*
X1648518Y464172D01*
X1644422Y457077D01*
X1644298Y456135D01*
X1643626Y455464D01*
X1640491Y447895D01*
Y446945D01*
X1639913Y446192D01*
X1637793Y438278D01*
X1637916Y437337D01*
X1637442Y436515D01*
X1636372Y428392D01*
X1636618Y427475D01*
X1636255Y426597D01*
Y30001D01*
X1629833Y20391D01*
X1220169D01*
X1213747Y30001D01*
Y426597D01*
X1213384Y427475D01*
X1213630Y428392D01*
X1212560Y436515D01*
X1212085Y437337D01*
X1212209Y438278D01*
X1210089Y446192D01*
X1209511Y446945D01*
Y447895D01*
X1206376Y455464D01*
X1205704Y456135D01*
X1205580Y457077D01*
X1201484Y464172D01*
X1200731Y464750D01*
X1200485Y465667D01*
X1195497Y472167D01*
X1194675Y472641D01*
X1194312Y473519D01*
X1188519Y479312D01*
X1187642Y479675D01*
X1187167Y480497D01*
X1180667Y485485D01*
X1179750Y485731D01*
X1179172Y486484D01*
X1172076Y490580D01*
X1171135Y490704D01*
X1170464Y491376D01*
X1162895Y494511D01*
X1161945D01*
X1161192Y495089D01*
X1153278Y497210D01*
X1152337Y497086D01*
X1151515Y497560D01*
X1143392Y498630D01*
X1142474Y498384D01*
X1141597Y498748D01*
X1008405D01*
X1007527Y498384D01*
X1006610Y498630D01*
X998487Y497560D01*
X997665Y497086D01*
X996724Y497210D01*
X988810Y495089D01*
X988057Y494511D01*
X987107D01*
X979538Y491376D01*
X978867Y490704D01*
X977925Y490580D01*
X970830Y486484D01*
X970252Y485731D01*
X969335Y485485D01*
X962835Y480497D01*
X962361Y479675D01*
X961483Y479312D01*
X955690Y473519D01*
X955327Y472642D01*
X954505Y472167D01*
X949517Y465667D01*
X949271Y464750D01*
X948518Y464172D01*
X944422Y457077D01*
X944298Y456135D01*
X943626Y455464D01*
X940491Y447895D01*
Y446945D01*
X939913Y446192D01*
X937792Y438278D01*
X937916Y437337D01*
X937442Y436515D01*
X936372Y428392D01*
X936618Y427475D01*
X936254Y426597D01*
Y30001D01*
X929833Y20391D01*
X790167D01*
X783746Y30000D01*
Y770000D01*
X779720Y779720D01*
X770000Y783746D01*
X30000D01*
X20391Y790167D01*
Y4209833D01*
X30000Y4216253D01*
X770000D01*
X779720Y4220280D01*
X783746Y4230000D01*
Y4970000D01*
X790167Y4979609D01*
X928792D01*
X936254Y4966909D01*
X936254Y4573404D01*
X936617Y4572527D01*
X936371Y4571609D01*
X937441Y4563486D01*
X937916Y4562664D01*
X937792Y4561723D01*
X939912Y4553809D01*
X940490Y4553056D01*
Y4552106D01*
X943625Y4544537D01*
X944297Y4543866D01*
X944421Y4542925D01*
X948517Y4535829D01*
X949270Y4535251D01*
X949516Y4534334D01*
X954504Y4527834D01*
X955326Y4527360D01*
X955689Y4526482D01*
X961482Y4520689D01*
X962360Y4520326D01*
X962834Y4519504D01*
X969334Y4514516D01*
X970251Y4514271D01*
X970829Y4513517D01*
X977925Y4509421D01*
X978866Y4509297D01*
X979537Y4508625D01*
X987106Y4505490D01*
X988056D01*
X988809Y4504912D01*
X996723Y4502792D01*
X997664Y4502916D01*
X998486Y4502441D01*
X1006609Y4501371D01*
X1007527Y4501617D01*
X1008404Y4501254D01*
X1141596D01*
X1142474Y4501617D01*
X1143391Y4501371D01*
X1151514Y4502441D01*
X1152336Y4502916D01*
X1153277Y4502792D01*
X1161191Y4504912D01*
X1161944Y4505490D01*
X1162894D01*
X1170463Y4508625D01*
X1171134Y4509297D01*
X1172076Y4509421D01*
X1179171Y4513517D01*
X1179749Y4514270D01*
X1180666Y4514516D01*
X1187166Y4519504D01*
X1187640Y4520326D01*
X1188518Y4520689D01*
X1194311Y4526482D01*
X1194674Y4527359D01*
X1195496Y4527834D01*
X1200484Y4534334D01*
X1200730Y4535251D01*
X1201483Y4535829D01*
X1205580Y4542925D01*
X1205703Y4543866D01*
X1206375Y4544537D01*
X1209510Y4552106D01*
Y4553056D01*
X1210088Y4553809D01*
X1212209Y4561723D01*
X1212085Y4562664D01*
X1212559Y4563486D01*
X1213629Y4571609D01*
X1213383Y4572527D01*
X1213747Y4573404D01*
X1213747Y4970000D01*
X1220168Y4979609D01*
X1628792D01*
X1636254Y4966909D01*
X1636254Y4573404D01*
X1636617Y4572527D01*
X1636371Y4571609D01*
X1637441Y4563486D01*
X1637915Y4562664D01*
X1637791Y4561723D01*
X1639912Y4553809D01*
X1640490Y4553056D01*
Y4552106D01*
X1643625Y4544537D01*
X1644297Y4543866D01*
X1644421Y4542925D01*
X1648517Y4535829D01*
X1649270Y4535251D01*
X1649516Y4534334D01*
X1654504Y4527834D01*
X1655326Y4527360D01*
X1655689Y4526482D01*
X1661482Y4520689D01*
X1662359Y4520326D01*
X1662834Y4519504D01*
X1669334Y4514516D01*
X1670251Y4514271D01*
X1670829Y4513517D01*
X1677925Y4509421D01*
X1678866Y4509297D01*
X1679537Y4508625D01*
X1687106Y4505490D01*
X1688056D01*
X1688809Y4504912D01*
X1696723Y4502792D01*
X1697664Y4502916D01*
X1698486Y4502441D01*
X1706609Y4501371D01*
X1707526Y4501617D01*
X1708404Y4501254D01*
X1841596D01*
X1842474Y4501617D01*
X1843391Y4501371D01*
X1851514Y4502441D01*
X1852336Y4502916D01*
X1853277Y4502792D01*
X1861191Y4504912D01*
X1861944Y4505490D01*
X1862894D01*
X1870463Y4508625D01*
X1871134Y4509297D01*
X1872076Y4509421D01*
X1879171Y4513517D01*
X1879749Y4514270D01*
X1880666Y4514516D01*
X1887166Y4519504D01*
X1887640Y4520326D01*
X1888518Y4520689D01*
X1894311Y4526482D01*
X1894674Y4527359D01*
X1895496Y4527834D01*
X1900484Y4534334D01*
X1900729Y4535251D01*
X1901483Y4535829D01*
X1905579Y4542925D01*
X1905703Y4543866D01*
X1906375Y4544537D01*
X1909510Y4552106D01*
Y4553056D01*
X1910088Y4553809D01*
X1912209Y4561723D01*
X1912085Y4562664D01*
X1912559Y4563486D01*
X1913629Y4571609D01*
X1913383Y4572527D01*
X1913746Y4573404D01*
X1913747Y4970000D01*
X1920168Y4979609D01*
X2328792D01*
X2336254Y4966909D01*
X2336254Y4573404D01*
X2336617Y4572527D01*
X2336371Y4571609D01*
X2337441Y4563486D01*
X2337916Y4562664D01*
X2337792Y4561723D01*
X2339912Y4553809D01*
X2340490Y4553056D01*
Y4552106D01*
X2343625Y4544537D01*
X2344297Y4543866D01*
X2344421Y4542925D01*
X2348517Y4535829D01*
X2349270Y4535251D01*
X2349516Y4534334D01*
X2354504Y4527834D01*
X2355326Y4527360D01*
X2355689Y4526482D01*
X2361482Y4520689D01*
X2362360Y4520326D01*
X2362834Y4519504D01*
X2369334Y4514516D01*
X2370251Y4514271D01*
X2370829Y4513517D01*
X2377925Y4509421D01*
X2378866Y4509297D01*
X2379537Y4508625D01*
X2387106Y4505490D01*
X2388056D01*
X2388809Y4504912D01*
X2396723Y4502792D01*
X2397664Y4502916D01*
X2398486Y4502441D01*
X2406609Y4501371D01*
X2407527Y4501617D01*
X2408404Y4501254D01*
X2541596D01*
X2542474Y4501617D01*
X2543391Y4501371D01*
X2551514Y4502441D01*
X2552336Y4502916D01*
X2553277Y4502792D01*
X2561191Y4504912D01*
X2561944Y4505490D01*
X2562894D01*
X2570463Y4508625D01*
X2571134Y4509297D01*
X2572076Y4509421D01*
X2579171Y4513517D01*
X2579749Y4514270D01*
X2580666Y4514516D01*
X2587166Y4519504D01*
X2587640Y4520326D01*
X2588518Y4520689D01*
X2594311Y4526482D01*
X2594674Y4527359D01*
X2595496Y4527834D01*
X2600484Y4534334D01*
X2600730Y4535251D01*
X2601483Y4535829D01*
X2605579Y4542925D01*
X2605703Y4543866D01*
X2606375Y4544537D01*
X2609510Y4552106D01*
Y4553056D01*
X2610088Y4553809D01*
X2612209Y4561723D01*
X2612085Y4562664D01*
X2612559Y4563486D01*
X2613629Y4571609D01*
X2613383Y4572527D01*
X2613747Y4573404D01*
X2613747Y4970000D01*
X2620168Y4979609D01*
X4209833D01*
X4216253Y4970000D01*
D02*
G37*
%LPC*%
G36*
X4017499Y4632921D02*
X4002501D01*
X3988645Y4627182D01*
X3978039Y4616576D01*
X3976652Y4613227D01*
X3962905D01*
X3961518Y4616576D01*
X3950913Y4627182D01*
X3937057Y4632921D01*
X3922058D01*
X3908202Y4627182D01*
X3897597Y4616576D01*
X3896210Y4613227D01*
X3882463D01*
X3881076Y4616576D01*
X3870471Y4627182D01*
X3856614Y4632921D01*
X3841616D01*
X3827760Y4627182D01*
X3817155Y4616576D01*
X3815767Y4613227D01*
X3802021D01*
X3800633Y4616576D01*
X3790028Y4627182D01*
X3776172Y4632921D01*
X3761174D01*
X3747318Y4627182D01*
X3736712Y4616576D01*
X3735325Y4613227D01*
X3721579D01*
X3720191Y4616576D01*
X3709586Y4627182D01*
X3695730Y4632921D01*
X3680732D01*
X3666875Y4627182D01*
X3656270Y4616576D01*
X3654883Y4613227D01*
X3641136D01*
X3639749Y4616576D01*
X3629144Y4627182D01*
X3615287Y4632921D01*
X3600289D01*
X3586433Y4627182D01*
X3575828Y4616576D01*
X3570088Y4602720D01*
Y4587722D01*
X3575828Y4573866D01*
X3586433Y4563261D01*
X3589783Y4561873D01*
Y4548127D01*
X3586433Y4546739D01*
X3575828Y4536134D01*
X3570088Y4522278D01*
Y4507280D01*
X3575828Y4493424D01*
X3586433Y4482818D01*
X3600289Y4477079D01*
X3615287D01*
X3629144Y4482818D01*
X3639749Y4493424D01*
X3641136Y4496773D01*
X3654883D01*
X3656270Y4493424D01*
X3666875Y4482818D01*
X3680732Y4477079D01*
X3695730D01*
X3709586Y4482818D01*
X3720191Y4493424D01*
X3721579Y4496773D01*
X3735325D01*
X3736712Y4493424D01*
X3747318Y4482818D01*
X3761174Y4477079D01*
X3776172D01*
X3790028Y4482818D01*
X3800633Y4493424D01*
X3802021Y4496773D01*
X3815767D01*
X3817155Y4493424D01*
X3827760Y4482818D01*
X3841616Y4477079D01*
X3856614D01*
X3870471Y4482818D01*
X3881076Y4493424D01*
X3882463Y4496773D01*
X3896210D01*
X3897597Y4493424D01*
X3908202Y4482818D01*
X3922058Y4477079D01*
X3937057D01*
X3950913Y4482818D01*
X3961518Y4493424D01*
X3962905Y4496773D01*
X3976652D01*
X3978039Y4493424D01*
X3988645Y4482818D01*
X4002501Y4477079D01*
X4017499D01*
X4031355Y4482818D01*
X4041960Y4493424D01*
X4047700Y4507280D01*
Y4522278D01*
X4041960Y4536134D01*
X4031355Y4546739D01*
X4028006Y4548127D01*
Y4561873D01*
X4031355Y4563261D01*
X4041960Y4573866D01*
X4047700Y4587722D01*
Y4602720D01*
X4041960Y4616576D01*
X4031355Y4627182D01*
X4017499Y4632921D01*
D02*
G37*
G36*
X3438384D02*
X3423386D01*
X3409529Y4627182D01*
X3398924Y4616576D01*
X3397537Y4613227D01*
X3383790D01*
X3382403Y4616576D01*
X3371798Y4627182D01*
X3357941Y4632921D01*
X3342943D01*
X3329087Y4627182D01*
X3318482Y4616576D01*
X3317094Y4613227D01*
X3303348D01*
X3301961Y4616576D01*
X3291355Y4627182D01*
X3277499Y4632921D01*
X3262501D01*
X3248645Y4627182D01*
X3238039Y4616576D01*
X3232300Y4602720D01*
Y4587722D01*
X3238039Y4573866D01*
X3248645Y4563261D01*
X3251994Y4561873D01*
Y4548127D01*
X3248645Y4546739D01*
X3238039Y4536134D01*
X3232300Y4522278D01*
Y4507280D01*
X3238039Y4493424D01*
X3248645Y4482818D01*
X3262501Y4477079D01*
X3277499D01*
X3291355Y4482818D01*
X3301961Y4493424D01*
X3303348Y4496773D01*
X3317094D01*
X3318482Y4493424D01*
X3329087Y4482818D01*
X3342943Y4477079D01*
X3357941D01*
X3371798Y4482818D01*
X3382403Y4493424D01*
X3383790Y4496773D01*
X3397537D01*
X3398924Y4493424D01*
X3409529Y4482818D01*
X3423386Y4477079D01*
X3438384D01*
X3452240Y4482818D01*
X3462845Y4493424D01*
X3468585Y4507280D01*
Y4522278D01*
X3462845Y4536134D01*
X3452240Y4546739D01*
X3448890Y4548127D01*
Y4561873D01*
X3452240Y4563261D01*
X3462845Y4573866D01*
X3468585Y4587722D01*
Y4602720D01*
X3462845Y4616576D01*
X3452240Y4627182D01*
X3438384Y4632921D01*
D02*
G37*
G36*
X1302721Y3902900D02*
X1287723D01*
X1273866Y3897161D01*
X1263261Y3886555D01*
X1261874Y3883206D01*
X1248127D01*
X1246740Y3886555D01*
X1236135Y3897161D01*
X1222278Y3902900D01*
X1207280D01*
X1193424Y3897161D01*
X1182819Y3886555D01*
X1177079Y3872699D01*
Y3857701D01*
X1182819Y3843845D01*
X1193424Y3833239D01*
X1196723Y3831873D01*
Y3818127D01*
X1193424Y3816760D01*
X1182819Y3806155D01*
X1177079Y3792299D01*
Y3777301D01*
X1182819Y3763445D01*
X1193424Y3752839D01*
X1207280Y3747100D01*
X1222278D01*
X1236135Y3752839D01*
X1246740Y3763445D01*
X1248127Y3766794D01*
X1261874D01*
X1263261Y3763445D01*
X1273866Y3752839D01*
X1287723Y3747100D01*
X1302721D01*
X1316577Y3752839D01*
X1327182Y3763445D01*
X1332922Y3777301D01*
Y3792299D01*
X1327182Y3806155D01*
X1316577Y3816760D01*
X1313279Y3818127D01*
Y3831873D01*
X1316577Y3833239D01*
X1327182Y3843845D01*
X1332922Y3857701D01*
Y3872699D01*
X1327182Y3886555D01*
X1316577Y3897161D01*
X1302721Y3902900D01*
D02*
G37*
G36*
X628913Y3907700D02*
X611087D01*
X593869Y3903086D01*
X578431Y3894174D01*
X565827Y3881569D01*
X556914Y3866131D01*
X552300Y3848913D01*
Y3831087D01*
X556914Y3813869D01*
X565827Y3798432D01*
X578431Y3785827D01*
X593869Y3776914D01*
X611087Y3772300D01*
X628913D01*
X646131Y3776914D01*
X661569Y3785827D01*
X674173Y3798432D01*
X683086Y3813869D01*
X687700Y3831087D01*
Y3848913D01*
X683086Y3866131D01*
X674173Y3881569D01*
X661569Y3894174D01*
X646131Y3903086D01*
X628913Y3907700D01*
D02*
G37*
G36*
X3962499Y3791700D02*
X3947501D01*
X3933645Y3785961D01*
X3923040Y3775355D01*
X3917300Y3761499D01*
Y3746501D01*
X3923040Y3732645D01*
X3933645Y3722040D01*
X3947501Y3716300D01*
X3962499D01*
X3976356Y3722040D01*
X3986961Y3732645D01*
X3992700Y3746501D01*
Y3761499D01*
X3986961Y3775355D01*
X3976356Y3785961D01*
X3962499Y3791700D01*
D02*
G37*
G36*
X2471000Y3578447D02*
X2381500D01*
X2371780Y3574421D01*
X2367753Y3564700D01*
Y3464700D01*
X2371780Y3454980D01*
X2381500Y3450953D01*
X2471000D01*
X2473527Y3452000D01*
X2528700D01*
Y3577400D01*
X2473527D01*
X2471000Y3578447D01*
D02*
G37*
G36*
X1771000D02*
X1681500D01*
X1671780Y3574421D01*
X1667754Y3564700D01*
Y3464700D01*
X1671780Y3454980D01*
X1681500Y3450953D01*
X1771000D01*
X1773527Y3452000D01*
X1828700D01*
Y3577400D01*
X1773527D01*
X1771000Y3578447D01*
D02*
G37*
G36*
X1705000Y4145946D02*
X1450000D01*
X1440280Y4141920D01*
X1436253Y4132200D01*
Y3437200D01*
X1440280Y3427480D01*
X1450000Y3423454D01*
X1614500D01*
X1624220Y3427480D01*
X1628246Y3437200D01*
Y3680954D01*
X1705000D01*
X1707527Y3682000D01*
X1717700D01*
Y3692173D01*
X1718747Y3694700D01*
Y4132200D01*
X1714720Y4141920D01*
X1705000Y4145946D01*
D02*
G37*
G36*
X628913Y3467700D02*
X611087D01*
X593869Y3463086D01*
X578431Y3454173D01*
X565827Y3441569D01*
X556914Y3426131D01*
X552300Y3408913D01*
Y3391087D01*
X556914Y3373869D01*
X565827Y3358431D01*
X578431Y3345827D01*
X593869Y3336914D01*
X611087Y3332300D01*
X628913D01*
X646131Y3336914D01*
X661569Y3345827D01*
X674173Y3358431D01*
X683086Y3373869D01*
X687700Y3391087D01*
Y3408913D01*
X683086Y3426131D01*
X674173Y3441569D01*
X661569Y3454173D01*
X646131Y3463086D01*
X628913Y3467700D01*
D02*
G37*
G36*
X2405000Y4145946D02*
X2150000D01*
X2140279Y4141920D01*
X2136253Y4132200D01*
Y3437200D01*
X2140279Y3427480D01*
X2145301Y3425400D01*
X2142775Y3412700D01*
X2054800D01*
Y3287300D01*
X2096409D01*
X2097059Y3284033D01*
X2101050Y3278060D01*
Y3263751D01*
X2106789Y3249895D01*
X2117395Y3239289D01*
X2131251Y3233550D01*
X2146249D01*
X2160105Y3239289D01*
X2170710Y3249895D01*
X2176450Y3263751D01*
Y3278749D01*
X2170710Y3292605D01*
X2170200Y3293116D01*
Y3410753D01*
X2170200Y3412700D01*
X2174898Y3423454D01*
X2314500D01*
X2324220Y3427480D01*
X2328246Y3437200D01*
Y3680954D01*
X2405000D01*
X2407527Y3682000D01*
X2417700D01*
Y3692173D01*
X2418746Y3694700D01*
Y4132200D01*
X2414720Y4141920D01*
X2405000Y4145946D01*
D02*
G37*
G36*
X2667027Y3090164D02*
X2652029D01*
X2638173Y3084425D01*
X2627567Y3073820D01*
X2621828Y3059963D01*
Y3058607D01*
X2613949Y3051136D01*
X2599759Y3052813D01*
X2596468Y3058948D01*
X2591016Y3072110D01*
X2580411Y3082715D01*
X2566555Y3088455D01*
X2551557D01*
X2537701Y3082715D01*
X2527095Y3072110D01*
X2521356Y3058254D01*
Y3043256D01*
X2527095Y3029400D01*
X2536931Y3019564D01*
Y2768221D01*
X2294481Y2525771D01*
X2170747D01*
X2165486Y2538471D01*
X2167957Y2540942D01*
X2173697Y2554798D01*
Y2569796D01*
X2184106Y2577852D01*
X2187499D01*
X2201355Y2583591D01*
X2211961Y2594197D01*
X2217700Y2608053D01*
Y2623051D01*
X2211961Y2636907D01*
X2201355Y2647513D01*
X2187499Y2653252D01*
X2172501D01*
X2158645Y2647513D01*
X2148039Y2636907D01*
X2142300Y2623051D01*
Y2608053D01*
X2131890Y2599997D01*
X2128498D01*
X2114641Y2594258D01*
X2104036Y2583652D01*
X2098297Y2569796D01*
Y2554798D01*
X2104036Y2540942D01*
X2106507Y2538471D01*
X2101246Y2525771D01*
X1665422D01*
X1655586Y2535606D01*
X1641730Y2541346D01*
X1626732D01*
X1612876Y2535606D01*
X1602270Y2525001D01*
X1596531Y2511145D01*
Y2496147D01*
X1602270Y2482290D01*
X1612876Y2471685D01*
X1626732Y2465946D01*
X1641730D01*
X1655586Y2471685D01*
X1665422Y2481521D01*
X2303646D01*
X2312112Y2483205D01*
X2319291Y2488001D01*
X2574701Y2743411D01*
X2579497Y2750589D01*
X2581181Y2759056D01*
Y2968909D01*
X2593881Y2975870D01*
X2602501Y2972300D01*
X2617499D01*
X2624702Y2975284D01*
X2637403Y2967493D01*
Y2726604D01*
X2336098Y2425299D01*
X1665422D01*
X1655586Y2435134D01*
X1641730Y2440874D01*
X1626732D01*
X1612876Y2435134D01*
X1602270Y2424529D01*
X1596531Y2410673D01*
Y2395675D01*
X1602270Y2381818D01*
X1605476Y2378612D01*
X1612153Y2370316D01*
X1605476Y2362019D01*
X1602270Y2358813D01*
X1596531Y2344957D01*
Y2329959D01*
X1602270Y2316103D01*
X1612876Y2305497D01*
X1626732Y2299758D01*
X1641730D01*
X1655586Y2305497D01*
X1665422Y2315333D01*
X1914056D01*
X1919317Y2302633D01*
X1918039Y2301355D01*
X1912300Y2287499D01*
Y2272501D01*
X1918039Y2258645D01*
X1928645Y2248039D01*
X1942501Y2242300D01*
X1957499D01*
X1971355Y2248039D01*
X1981960Y2258645D01*
X1987700Y2272501D01*
Y2287499D01*
X1981960Y2301355D01*
X1980683Y2302633D01*
X1985944Y2315333D01*
X2123897D01*
X2127744Y2307137D01*
X2128282Y2302633D01*
X2054355Y2228705D01*
X2049559Y2221527D01*
X2047875Y2213061D01*
Y2181191D01*
X2038039Y2171355D01*
X2032300Y2157499D01*
Y2142501D01*
X2038039Y2128645D01*
X2048645Y2118039D01*
X2062501Y2112300D01*
X2077499D01*
X2091355Y2118039D01*
X2101960Y2128645D01*
X2107700Y2142501D01*
Y2157499D01*
X2101960Y2171355D01*
X2092125Y2181191D01*
Y2203896D01*
X2154165Y2265936D01*
X2428101D01*
X2436568Y2267620D01*
X2443746Y2272416D01*
X2753470Y2582140D01*
X2767379D01*
X2781235Y2587879D01*
X2791840Y2598485D01*
X2797580Y2612341D01*
Y2627339D01*
X2791840Y2641195D01*
X2781235Y2651800D01*
X2767379Y2657540D01*
X2752381D01*
X2738525Y2651800D01*
X2727919Y2641195D01*
X2722180Y2627339D01*
Y2613430D01*
X2418936Y2310186D01*
X2393586D01*
X2389738Y2318381D01*
X2389200Y2322886D01*
X2725645Y2659330D01*
X2730441Y2666509D01*
X2732125Y2674975D01*
Y2978809D01*
X2741960Y2988645D01*
X2747700Y3002501D01*
Y3017499D01*
X2741960Y3031355D01*
X2731355Y3041961D01*
X2717499Y3047700D01*
X2702501D01*
X2697228Y3051224D01*
Y3059963D01*
X2691488Y3073820D01*
X2680883Y3084425D01*
X2667027Y3090164D01*
D02*
G37*
G36*
X1997499Y3241000D02*
X1982501D01*
X1968645Y3235261D01*
X1958040Y3224655D01*
X1952300Y3210799D01*
Y3195801D01*
X1958040Y3181945D01*
X1968034Y3171950D01*
X1958040Y3161956D01*
X1952300Y3148099D01*
Y3133101D01*
X1958040Y3119245D01*
X1968645Y3108640D01*
X1982501Y3102900D01*
X1997499D01*
X2011355Y3108640D01*
X2021961Y3119245D01*
X2027700Y3133101D01*
Y3139983D01*
X2186709D01*
X2248050Y3078642D01*
Y3057700D01*
X2238101D01*
X2224245Y3051961D01*
X2213640Y3041355D01*
X2207900Y3027499D01*
Y3012501D01*
X2213640Y2998645D01*
X2224245Y2988039D01*
X2238101Y2982300D01*
X2253099D01*
X2266956Y2988039D01*
X2276950Y2998034D01*
X2286945Y2988039D01*
X2300801Y2982300D01*
X2315799D01*
X2329655Y2988039D01*
X2340261Y2998645D01*
X2346000Y3012501D01*
Y3027499D01*
X2340261Y3041355D01*
X2329655Y3051961D01*
X2321949Y3055153D01*
Y3100960D01*
X2320426Y3108620D01*
X2316087Y3115114D01*
X2223181Y3208019D01*
X2216687Y3212359D01*
X2209027Y3213882D01*
X2026423D01*
X2021961Y3224655D01*
X2011355Y3235261D01*
X1997499Y3241000D01*
D02*
G37*
G36*
X2467499Y3021519D02*
X2452501D01*
X2438645Y3015780D01*
X2428039Y3005175D01*
X2422300Y2991318D01*
Y2976320D01*
X2428039Y2962464D01*
X2438645Y2951859D01*
X2452501Y2946119D01*
X2467499D01*
X2481355Y2951859D01*
X2491960Y2962464D01*
X2497700Y2976320D01*
Y2991318D01*
X2491960Y3005175D01*
X2481355Y3015780D01*
X2467499Y3021519D01*
D02*
G37*
G36*
X2415856Y2947743D02*
X2400858D01*
X2387001Y2942004D01*
X2376396Y2931399D01*
X2370657Y2917543D01*
Y2902544D01*
X2375395Y2891105D01*
X2370382Y2883712D01*
X2366938Y2880862D01*
X2362499Y2882700D01*
X2347501D01*
X2333645Y2876961D01*
X2323040Y2866355D01*
X2317300Y2852499D01*
Y2837501D01*
X2323040Y2823645D01*
X2333645Y2813040D01*
X2347501Y2807300D01*
X2362499D01*
X2376355Y2813040D01*
X2386961Y2823645D01*
X2392700Y2837501D01*
Y2852499D01*
X2387962Y2863939D01*
X2392975Y2871332D01*
X2396419Y2874182D01*
X2400858Y2872344D01*
X2415856D01*
X2429712Y2878083D01*
X2440317Y2888688D01*
X2446057Y2902544D01*
Y2917543D01*
X2440317Y2931399D01*
X2429712Y2942004D01*
X2415856Y2947743D01*
D02*
G37*
G36*
X3057499Y2917700D02*
X3042501D01*
X3028645Y2911961D01*
X3018039Y2901355D01*
X3012300Y2887499D01*
Y2872501D01*
X3018039Y2858645D01*
X3028645Y2848040D01*
X3042501Y2842300D01*
X3057499D01*
X3071355Y2848040D01*
X3081961Y2858645D01*
X3087700Y2872501D01*
Y2887499D01*
X3081961Y2901355D01*
X3071355Y2911961D01*
X3057499Y2917700D01*
D02*
G37*
G36*
X2195785Y2904266D02*
X2180786D01*
X2166930Y2898527D01*
X2156325Y2887922D01*
X2150585Y2874065D01*
Y2859067D01*
X2156325Y2845211D01*
X2166930Y2834606D01*
X2180786Y2828866D01*
X2195785D01*
X2209641Y2834606D01*
X2220246Y2845211D01*
X2225985Y2859067D01*
Y2874065D01*
X2220246Y2887922D01*
X2209641Y2898527D01*
X2195785Y2904266D01*
D02*
G37*
G36*
X1911581Y2706118D02*
X1896583D01*
X1890400Y2703556D01*
X1877700Y2705200D01*
Y2705201D01*
X1877699Y2705200D01*
X1752300D01*
Y2589800D01*
X1877700D01*
Y2624891D01*
X1890400Y2633279D01*
X1896583Y2630718D01*
X1911581D01*
X1925438Y2636457D01*
X1936043Y2647062D01*
X1941782Y2660918D01*
Y2675917D01*
X1936043Y2689773D01*
X1925438Y2700378D01*
X1911581Y2706118D01*
D02*
G37*
G36*
X447472Y2747700D02*
X422528D01*
X399483Y2738154D01*
X381846Y2720517D01*
X372300Y2697472D01*
Y2672528D01*
X381846Y2649483D01*
X399483Y2631846D01*
X422528Y2622300D01*
X447472D01*
X470516Y2631846D01*
X488154Y2649483D01*
X497700Y2672528D01*
Y2697472D01*
X488154Y2720517D01*
X470516Y2738154D01*
X447472Y2747700D01*
D02*
G37*
G36*
X1322700Y2395200D02*
X1197300D01*
Y2279800D01*
X1281410D01*
X1281453Y2279758D01*
X1288631Y2274962D01*
X1297097Y2273278D01*
X1327473D01*
X1337309Y2263442D01*
X1351165Y2257703D01*
X1366163D01*
X1380019Y2263442D01*
X1390625Y2274048D01*
X1396364Y2287904D01*
Y2302902D01*
X1390625Y2316758D01*
X1380019Y2327363D01*
X1366163Y2333103D01*
X1351165D01*
X1337309Y2327363D01*
X1335400Y2325455D01*
X1322700Y2330715D01*
Y2395200D01*
D02*
G37*
G36*
X2917499Y2304760D02*
X2902501D01*
X2888645Y2299021D01*
X2878039Y2288416D01*
X2872300Y2274559D01*
Y2259561D01*
X2878039Y2245705D01*
X2888645Y2235100D01*
X2902501Y2229360D01*
X2917499D01*
X2931355Y2235100D01*
X2941961Y2245705D01*
X2947700Y2259561D01*
Y2274559D01*
X2941961Y2288416D01*
X2931355Y2299021D01*
X2917499Y2304760D01*
D02*
G37*
G36*
X4707499Y2287700D02*
X4692501D01*
X4678645Y2281961D01*
X4668039Y2271355D01*
X4662300Y2257499D01*
Y2242501D01*
X4668039Y2228645D01*
X4678645Y2218040D01*
X4692501Y2212300D01*
X4707499D01*
X4721355Y2218040D01*
X4731961Y2228645D01*
X4737700Y2242501D01*
Y2257499D01*
X4731961Y2271355D01*
X4721355Y2281961D01*
X4707499Y2287700D01*
D02*
G37*
G36*
X2857499Y2177700D02*
X2842501D01*
X2828645Y2171961D01*
X2818039Y2161355D01*
X2812300Y2147499D01*
Y2132501D01*
X2818039Y2118645D01*
X2828645Y2108039D01*
X2842501Y2102300D01*
X2857499D01*
X2871355Y2108039D01*
X2881960Y2118645D01*
X2887700Y2132501D01*
Y2147499D01*
X2881960Y2161355D01*
X2871355Y2171961D01*
X2857499Y2177700D01*
D02*
G37*
G36*
X3165813Y2146013D02*
X3150815D01*
X3136958Y2140274D01*
X3126353Y2129669D01*
X3120614Y2115813D01*
Y2100814D01*
X3126353Y2086958D01*
X3136958Y2076353D01*
X3150815Y2070614D01*
X3165813D01*
X3179669Y2076353D01*
X3190274Y2086958D01*
X3196014Y2100814D01*
Y2115813D01*
X3190274Y2129669D01*
X3179669Y2140274D01*
X3165813Y2146013D01*
D02*
G37*
G36*
X2973749Y2681450D02*
X2958751D01*
X2944895Y2675710D01*
X2934290Y2665105D01*
X2928550Y2651249D01*
Y2636251D01*
X2934290Y2622395D01*
X2944895Y2611789D01*
X2958751Y2606050D01*
X2973060D01*
X2979033Y2602059D01*
X2987500Y2600375D01*
X2992300D01*
Y2564800D01*
X2997017D01*
X2997500Y2552300D01*
X2983645Y2546561D01*
X2973039Y2535956D01*
X2967300Y2522099D01*
Y2507101D01*
X2964044Y2502228D01*
X2955037D01*
X2941180Y2496489D01*
X2930575Y2485883D01*
X2924836Y2472027D01*
Y2457029D01*
X2930575Y2443173D01*
X2941180Y2432567D01*
X2955037Y2426828D01*
X2970034D01*
X2979104Y2416838D01*
X2975236Y2407499D01*
Y2392501D01*
X2978415Y2384826D01*
X2970901Y2372125D01*
X2694413D01*
X2685946Y2370441D01*
X2678768Y2365645D01*
X2554355Y2241232D01*
X2549559Y2234054D01*
X2547875Y2225587D01*
Y2181191D01*
X2538039Y2171355D01*
X2532300Y2157499D01*
Y2142501D01*
X2538039Y2128645D01*
X2548645Y2118039D01*
X2562501Y2112300D01*
X2573050D01*
X2578884Y2100174D01*
X2540835Y2062125D01*
X2510200D01*
Y2182700D01*
X2474625D01*
Y2187500D01*
X2472941Y2195967D01*
X2468145Y2203145D01*
X2462301Y2208989D01*
Y2216249D01*
X2456562Y2230105D01*
X2445956Y2240711D01*
X2432100Y2246450D01*
X2417102D01*
X2403246Y2240711D01*
X2392640Y2230105D01*
X2386901Y2216249D01*
Y2201251D01*
X2390003Y2193763D01*
X2392640Y2187395D01*
X2393383Y2185780D01*
X2394800Y2182699D01*
X2394800Y2182700D01*
X2394800Y2182699D01*
Y2062125D01*
X1933241D01*
X1877125Y2118241D01*
Y2201309D01*
X1886961Y2211145D01*
X1892700Y2225001D01*
Y2239999D01*
X1886961Y2253855D01*
X1876355Y2264461D01*
X1862499Y2270200D01*
X1847501D01*
X1833645Y2264461D01*
X1823040Y2253855D01*
X1817300Y2239999D01*
Y2225001D01*
X1823040Y2211145D01*
X1832875Y2201309D01*
Y2109077D01*
X1834559Y2100610D01*
X1839355Y2093432D01*
X1908432Y2024355D01*
X1915610Y2019559D01*
X1924077Y2017875D01*
X2550000D01*
X2558467Y2019559D01*
X2565645Y2024355D01*
X2653590Y2112300D01*
X2667499D01*
X2681355Y2118039D01*
X2691961Y2128645D01*
X2697700Y2142501D01*
Y2157499D01*
X2691961Y2171355D01*
X2681355Y2181961D01*
X2667499Y2187700D01*
X2652501D01*
X2638645Y2181961D01*
X2628039Y2171355D01*
X2622300Y2157499D01*
Y2154020D01*
X2620400Y2152825D01*
X2611810Y2155987D01*
X2606930Y2159359D01*
X2601961Y2171355D01*
X2592125Y2181191D01*
Y2216423D01*
X2703577Y2327875D01*
X3070000D01*
X3078467Y2329559D01*
X3085645Y2334355D01*
X3185645Y2434355D01*
X3190441Y2441533D01*
X3192125Y2450000D01*
Y2518809D01*
X3201961Y2528645D01*
X3207700Y2542501D01*
Y2557499D01*
X3201961Y2571355D01*
X3191355Y2581961D01*
X3177499Y2587700D01*
X3162501D01*
X3148645Y2581961D01*
X3138039Y2571355D01*
X3132300Y2557499D01*
Y2542501D01*
X3138039Y2528645D01*
X3147875Y2518809D01*
Y2459164D01*
X3066075Y2377365D01*
X3057474Y2378249D01*
X3049960Y2390870D01*
X3050636Y2392501D01*
Y2407499D01*
X3044896Y2421355D01*
X3034291Y2431961D01*
X3020435Y2437700D01*
X3005437D01*
X2996367Y2447690D01*
X3000236Y2457029D01*
Y2472027D01*
X3003492Y2476900D01*
X3012499D01*
X3026355Y2482640D01*
X3036960Y2493245D01*
X3042700Y2507101D01*
Y2522099D01*
X3036960Y2535956D01*
X3026355Y2546561D01*
X3012499Y2552300D01*
X3012982Y2564800D01*
X3117700D01*
Y2680200D01*
X2992301D01*
X2992300Y2680200D01*
Y2680200D01*
X2979600Y2679026D01*
X2973749Y2681450D01*
D02*
G37*
G36*
X4730900Y2075200D02*
X4605500D01*
Y1959800D01*
X4730900D01*
Y1979191D01*
X4743600Y1985987D01*
X4752501Y1982300D01*
X4767499D01*
X4781355Y1988039D01*
X4791960Y1998645D01*
X4797700Y2012501D01*
Y2027499D01*
X4791960Y2041355D01*
X4781355Y2051961D01*
X4767499Y2057700D01*
X4752501D01*
X4743600Y2054013D01*
X4730900Y2060809D01*
Y2075200D01*
D02*
G37*
G36*
X2417499Y3342700D02*
X2402501D01*
X2388645Y3336961D01*
X2378039Y3326356D01*
X2372751Y3313588D01*
X2366012Y3302633D01*
X2351014D01*
X2337158Y3296894D01*
X2326553Y3286289D01*
X2320813Y3272432D01*
Y3257434D01*
X2326553Y3243578D01*
X2337158Y3232973D01*
X2351014Y3227233D01*
X2366012D01*
X2371616Y3229554D01*
X2456815Y3144355D01*
X2463993Y3139559D01*
X2472460Y3137875D01*
X2880835D01*
X2953805Y3064905D01*
X2949762Y3050988D01*
X2941180Y3047433D01*
X2930575Y3036828D01*
X2924836Y3022971D01*
Y3007973D01*
X2930575Y2994117D01*
X2941180Y2983512D01*
X2951953Y2979049D01*
X2953503Y2967705D01*
X2953216Y2965826D01*
X2952010Y2965327D01*
X2941405Y2954721D01*
X2935666Y2940865D01*
Y2925867D01*
X2941405Y2912011D01*
X2952010Y2901405D01*
X2965867Y2895666D01*
X2980865D01*
X2994721Y2901405D01*
X3005326Y2912011D01*
X3011066Y2925867D01*
Y2940865D01*
X3005326Y2954721D01*
X2994721Y2965327D01*
X2983948Y2969789D01*
X2982399Y2981133D01*
X2982685Y2983012D01*
X2983891Y2983512D01*
X2994496Y2994117D01*
X2998051Y3002699D01*
X3011969Y3006742D01*
X3270685Y2748025D01*
Y1988599D01*
X3268750Y1976700D01*
X3107976D01*
X3102716Y1989400D01*
X3102810Y1989494D01*
X3108549Y2003351D01*
Y2018349D01*
X3102810Y2032205D01*
X3092205Y2042810D01*
X3078348Y2048550D01*
X3063350D01*
X3049494Y2042810D01*
X3038889Y2032205D01*
X3033149Y2018349D01*
Y2003351D01*
X3038889Y1989494D01*
X3049494Y1978889D01*
X3063350Y1973150D01*
X3078348D01*
X3080650Y1974103D01*
X3093350Y1965617D01*
Y1711300D01*
X3219905D01*
Y1557700D01*
X3185350D01*
Y1432300D01*
X3219905D01*
Y1431000D01*
X3221667Y1422143D01*
X3226684Y1414634D01*
X3258969Y1382350D01*
X3257644Y1369650D01*
X3205350D01*
Y1369650D01*
X3192948Y1370368D01*
X3191355Y1371961D01*
X3177499Y1377700D01*
X3162501D01*
X3148645Y1371961D01*
X3138039Y1361355D01*
X3132300Y1347499D01*
Y1332501D01*
X3138039Y1318645D01*
X3146284Y1310400D01*
X3143372Y1299323D01*
X3142390Y1297700D01*
X3083400D01*
Y1242300D01*
Y1143145D01*
X3052406D01*
X3043750Y1151801D01*
Y1172700D01*
X2918350D01*
Y1057300D01*
X3043750D01*
Y1088199D01*
X3052406Y1096855D01*
X3083400D01*
Y1092300D01*
X3208800D01*
Y1142300D01*
Y1244250D01*
X3349479D01*
X3357299Y1244249D01*
X3357300Y1236430D01*
Y1145750D01*
X3305350D01*
Y1020350D01*
X3309905D01*
Y980700D01*
X3270350D01*
Y855300D01*
X3385750D01*
Y980700D01*
X3356195D01*
Y1020350D01*
X3360750D01*
Y1092300D01*
X3482700D01*
Y1142300D01*
Y1247700D01*
X3368571D01*
X3360751Y1247701D01*
X3360750Y1255521D01*
Y1369650D01*
X3358456D01*
X3357131Y1382350D01*
X3389416Y1414634D01*
X3394433Y1422143D01*
X3396195Y1431000D01*
Y1432300D01*
X3430750D01*
Y1557700D01*
X3396195D01*
Y1711300D01*
X3522750D01*
Y1976700D01*
X3355575D01*
Y2774024D01*
X3353891Y2782491D01*
X3349095Y2789669D01*
X2922478Y3216285D01*
X2915300Y3221081D01*
X2906833Y3222765D01*
X2513458D01*
X2445071Y3291153D01*
X2447700Y3297501D01*
Y3312499D01*
X2441961Y3326356D01*
X2431355Y3336961D01*
X2417499Y3342700D01*
D02*
G37*
G36*
X447472Y1947700D02*
X422528D01*
X399483Y1938154D01*
X381846Y1920517D01*
X372300Y1897472D01*
Y1872528D01*
X381846Y1849483D01*
X399483Y1831846D01*
X422528Y1822300D01*
X447472D01*
X470516Y1831846D01*
X488154Y1849483D01*
X497700Y1872528D01*
Y1897472D01*
X488154Y1920517D01*
X470516Y1938154D01*
X447472Y1947700D01*
D02*
G37*
G36*
X3776750Y1976700D02*
X3601350D01*
Y1711300D01*
X3776750D01*
Y1976700D01*
D02*
G37*
G36*
X2760750D02*
X2585350D01*
Y1711300D01*
X2760750D01*
Y1976700D01*
D02*
G37*
G36*
X2506750D02*
X2331350D01*
Y1711300D01*
X2506750D01*
Y1976700D01*
D02*
G37*
G36*
X1918700Y1707200D02*
X1696300D01*
Y1621800D01*
X1918700D01*
Y1707200D01*
D02*
G37*
G36*
X1102700Y1725200D02*
X977300D01*
Y1609800D01*
X1102700D01*
Y1642375D01*
X1120809D01*
X1130645Y1632539D01*
X1144501Y1626800D01*
X1159499D01*
X1173355Y1632539D01*
X1183191Y1642375D01*
X1201300D01*
Y1621800D01*
X1423700D01*
Y1707200D01*
X1201300D01*
Y1686625D01*
X1183191D01*
X1173355Y1696460D01*
X1159499Y1702200D01*
X1144501D01*
X1130645Y1696460D01*
X1120809Y1686625D01*
X1102700D01*
Y1725200D01*
D02*
G37*
G36*
X2007499Y1645200D02*
X1992501D01*
X1978645Y1639461D01*
X1968039Y1628855D01*
X1962300Y1614999D01*
Y1600001D01*
X1968039Y1586145D01*
X1978645Y1575539D01*
X1992501Y1569800D01*
X2007499D01*
X2021355Y1575539D01*
X2031960Y1586145D01*
X2037700Y1600001D01*
Y1614999D01*
X2031960Y1628855D01*
X2021355Y1639461D01*
X2007499Y1645200D01*
D02*
G37*
G36*
X2419999Y1517700D02*
X2405001D01*
X2391145Y1511961D01*
X2380540Y1501355D01*
X2374800Y1487499D01*
Y1472501D01*
X2380540Y1458645D01*
X2391145Y1448040D01*
X2405001Y1442300D01*
X2419999D01*
X2433855Y1448040D01*
X2444461Y1458645D01*
X2450200Y1472501D01*
Y1487499D01*
X2444461Y1501355D01*
X2433855Y1511961D01*
X2419999Y1517700D01*
D02*
G37*
G36*
X1918700Y1580200D02*
X1696300D01*
Y1494800D01*
X1918700D01*
Y1504550D01*
X1931400Y1509810D01*
X1962300Y1478910D01*
Y1465001D01*
X1968039Y1451145D01*
X1978645Y1440539D01*
X1992501Y1434800D01*
X2007499D01*
X2021355Y1440539D01*
X2031960Y1451145D01*
X2037700Y1465001D01*
Y1479999D01*
X2031960Y1493855D01*
X2021355Y1504461D01*
X2007499Y1510200D01*
X1993590D01*
X1950645Y1553145D01*
X1943467Y1557941D01*
X1935000Y1559625D01*
X1918700D01*
Y1580200D01*
D02*
G37*
G36*
X3565750Y1557700D02*
X3450350D01*
Y1502621D01*
X3450300Y1502499D01*
Y1487501D01*
X3450350Y1487380D01*
Y1432300D01*
X3565750D01*
Y1557700D01*
D02*
G37*
G36*
X3165750D02*
X3050350D01*
Y1432300D01*
X3165750D01*
Y1487380D01*
X3165800Y1487501D01*
Y1502499D01*
X3165750Y1502621D01*
Y1557700D01*
D02*
G37*
G36*
X1918700Y1453200D02*
X1696300D01*
Y1367800D01*
X1918700D01*
Y1453200D01*
D02*
G37*
G36*
X1423700D02*
X1201300D01*
Y1367800D01*
X1423700D01*
Y1453200D01*
D02*
G37*
G36*
X4775000Y1433928D02*
X4625000D01*
X4600536Y1429062D01*
X4579796Y1415204D01*
X4565938Y1394464D01*
X4561072Y1370000D01*
X4565938Y1345536D01*
X4579796Y1324796D01*
X4600536Y1310938D01*
X4625000Y1306072D01*
X4775000D01*
X4799464Y1310938D01*
X4820204Y1324796D01*
X4834062Y1345536D01*
X4838928Y1370000D01*
X4834062Y1394464D01*
X4820204Y1415204D01*
X4799464Y1429062D01*
X4775000Y1433928D01*
D02*
G37*
G36*
X1918700Y1326200D02*
X1696300D01*
Y1240800D01*
X1918700D01*
Y1326200D01*
D02*
G37*
G36*
X1423700D02*
X1201300D01*
Y1240800D01*
X1423700D01*
Y1326200D01*
D02*
G37*
G36*
X2727499Y1315200D02*
X2712501D01*
X2698645Y1309461D01*
X2688040Y1298855D01*
X2682300Y1284999D01*
Y1270001D01*
X2688040Y1256145D01*
X2698645Y1245540D01*
X2712501Y1239800D01*
X2727499D01*
X2741355Y1245540D01*
X2751961Y1256145D01*
X2757700Y1270001D01*
Y1284999D01*
X2751961Y1298855D01*
X2741355Y1309461D01*
X2727499Y1315200D01*
D02*
G37*
G36*
X1918700Y1199200D02*
X1696300D01*
Y1113800D01*
X1918700D01*
Y1199200D01*
D02*
G37*
G36*
X1423700D02*
X1201300D01*
Y1113800D01*
X1423700D01*
Y1199200D01*
D02*
G37*
G36*
X681521Y1302700D02*
X654479D01*
X628359Y1295701D01*
X604941Y1282180D01*
X585820Y1263059D01*
X572299Y1239641D01*
X565300Y1213521D01*
Y1186479D01*
X572299Y1160359D01*
X585820Y1136941D01*
X604941Y1117819D01*
X628359Y1104299D01*
X654479Y1097300D01*
X681521D01*
X707641Y1104299D01*
X731059Y1117819D01*
X750180Y1136941D01*
X763701Y1160359D01*
X770700Y1186479D01*
Y1213521D01*
X763701Y1239641D01*
X750180Y1263059D01*
X731059Y1282180D01*
X707641Y1295701D01*
X681521Y1302700D01*
D02*
G37*
G36*
X427521D02*
X400479D01*
X374359Y1295701D01*
X350941Y1282180D01*
X331820Y1263059D01*
X318299Y1239641D01*
X311300Y1213521D01*
Y1186479D01*
X318299Y1160359D01*
X331820Y1136941D01*
X350941Y1117819D01*
X374359Y1104299D01*
X400479Y1097300D01*
X427521D01*
X453641Y1104299D01*
X477059Y1117819D01*
X496180Y1136941D01*
X509701Y1160359D01*
X516700Y1186479D01*
Y1213521D01*
X509701Y1239641D01*
X496180Y1263059D01*
X477059Y1282180D01*
X453641Y1295701D01*
X427521Y1302700D01*
D02*
G37*
G36*
X173521D02*
X146479D01*
X120359Y1295701D01*
X96941Y1282180D01*
X77820Y1263059D01*
X64299Y1239641D01*
X57300Y1213521D01*
Y1186479D01*
X64299Y1160359D01*
X77820Y1136941D01*
X96941Y1117819D01*
X120359Y1104299D01*
X146479Y1097300D01*
X173521D01*
X199641Y1104299D01*
X223059Y1117819D01*
X242180Y1136941D01*
X255701Y1160359D01*
X262700Y1186479D01*
Y1213521D01*
X255701Y1239641D01*
X242180Y1263059D01*
X223059Y1282180D01*
X199641Y1295701D01*
X173521Y1302700D01*
D02*
G37*
G36*
X2007499Y1190200D02*
X1992501D01*
X1978645Y1184460D01*
X1968039Y1173855D01*
X1962300Y1159999D01*
Y1145001D01*
X1968039Y1131145D01*
X1977875Y1121309D01*
Y1089164D01*
X1940335Y1051625D01*
X1918700D01*
Y1072200D01*
X1696300D01*
Y986800D01*
X1918700D01*
Y1007375D01*
X1949500D01*
X1957967Y1009059D01*
X1967125Y1001001D01*
X1967558Y1000193D01*
X1962300Y987499D01*
Y972501D01*
X1968039Y958645D01*
X1978645Y948040D01*
X1992501Y942300D01*
X2006410D01*
X2184351Y764359D01*
X2191529Y759563D01*
X2199996Y757879D01*
X3859102D01*
X3864363Y745179D01*
X3860539Y741355D01*
X3854800Y727499D01*
Y712501D01*
X3860539Y698645D01*
X3871145Y688040D01*
X3885001Y682300D01*
X3899999D01*
X3913855Y688040D01*
X3924461Y698645D01*
X3930200Y712501D01*
Y727499D01*
X3924461Y741355D01*
X3920637Y745179D01*
X3925898Y757879D01*
X3958332D01*
X3989800Y726410D01*
Y712501D01*
X3995539Y698645D01*
X4006145Y688040D01*
X4020001Y682300D01*
X4034999D01*
X4048855Y688040D01*
X4059461Y698645D01*
X4065200Y712501D01*
Y727499D01*
X4059461Y741355D01*
X4048855Y751961D01*
X4034999Y757700D01*
X4021090D01*
X3983141Y795649D01*
X3975963Y800445D01*
X3967496Y802129D01*
X2209161D01*
X2037700Y973590D01*
Y987499D01*
X2031961Y1001355D01*
X2021355Y1011961D01*
X2007499Y1017700D01*
X1992501D01*
X1983026Y1013775D01*
X1975832Y1024542D01*
X2015645Y1064355D01*
X2020441Y1071533D01*
X2022125Y1080000D01*
Y1121309D01*
X2031960Y1131145D01*
X2037700Y1145001D01*
Y1159999D01*
X2031960Y1173855D01*
X2021355Y1184460D01*
X2007499Y1190200D01*
D02*
G37*
G36*
X4220307Y1260073D02*
X4040000D01*
X4030280Y1256047D01*
X4026254Y1246327D01*
Y1035000D01*
X4030280Y1025280D01*
X4040000Y1021253D01*
X4220307D01*
X4230027Y1025280D01*
X4234053Y1035000D01*
Y1246327D01*
X4230027Y1256047D01*
X4220307Y1260073D01*
D02*
G37*
G36*
X1423700Y1072200D02*
X1201300D01*
Y986800D01*
X1423700D01*
Y1072200D01*
D02*
G37*
G36*
X2382179Y1047700D02*
X2367181D01*
X2353325Y1041961D01*
X2342719Y1031355D01*
X2336980Y1017499D01*
Y1002501D01*
X2342719Y988645D01*
X2353325Y978039D01*
X2367181Y972300D01*
X2382179D01*
X2396035Y978039D01*
X2406641Y988645D01*
X2412380Y1002501D01*
Y1017499D01*
X2406641Y1031355D01*
X2396035Y1041961D01*
X2382179Y1047700D01*
D02*
G37*
G36*
X2587499Y1027700D02*
X2572501D01*
X2558645Y1021961D01*
X2548039Y1011355D01*
X2542300Y997499D01*
Y982501D01*
X2548039Y968645D01*
X2558645Y958039D01*
X2572501Y952300D01*
X2587499D01*
X2601355Y958039D01*
X2611960Y968645D01*
X2617700Y982501D01*
Y997499D01*
X2611960Y1011355D01*
X2601355Y1021961D01*
X2587499Y1027700D01*
D02*
G37*
G36*
X2427499Y967700D02*
X2412501D01*
X2398645Y961960D01*
X2388039Y951355D01*
X2382300Y937499D01*
Y922501D01*
X2388039Y908645D01*
X2398645Y898039D01*
X2412501Y892300D01*
X2427499D01*
X2441355Y898039D01*
X2451961Y908645D01*
X2457700Y922501D01*
Y937499D01*
X2451961Y951355D01*
X2441355Y961960D01*
X2427499Y967700D01*
D02*
G37*
G36*
X4775000Y993928D02*
X4625000D01*
X4600536Y989062D01*
X4579796Y975204D01*
X4565938Y954464D01*
X4561072Y930000D01*
X4565938Y905536D01*
X4579796Y884796D01*
X4600536Y870938D01*
X4625000Y866072D01*
X4775000D01*
X4799464Y870938D01*
X4820204Y884796D01*
X4834062Y905536D01*
X4838928Y930000D01*
X4834062Y954464D01*
X4820204Y975204D01*
X4799464Y989062D01*
X4775000Y993928D01*
D02*
G37*
G36*
X1918700Y945200D02*
X1696300D01*
Y859800D01*
X1918700D01*
Y945200D01*
D02*
G37*
G36*
X173521Y1048700D02*
X146479D01*
X120359Y1041701D01*
X96941Y1028181D01*
X77820Y1009059D01*
X64299Y985641D01*
X57300Y959521D01*
Y932479D01*
X64299Y906359D01*
X77820Y882941D01*
X96941Y863820D01*
X120359Y850299D01*
X146479Y843300D01*
X173521D01*
X199641Y850299D01*
X223059Y863820D01*
X242180Y882941D01*
X255701Y906359D01*
X262700Y932479D01*
Y959521D01*
X255701Y985641D01*
X242180Y1009059D01*
X223059Y1028181D01*
X199641Y1041701D01*
X173521Y1048700D01*
D02*
G37*
G36*
X681521Y1048700D02*
X654479D01*
X628359Y1041701D01*
X604941Y1028180D01*
X585820Y1009059D01*
X572299Y985641D01*
X565300Y959521D01*
Y932479D01*
X572299Y906359D01*
X585820Y882941D01*
X604941Y863819D01*
X628359Y850299D01*
X654479Y843300D01*
X681521D01*
X707641Y850299D01*
X731059Y863819D01*
X750180Y882941D01*
X763701Y906359D01*
X770700Y932479D01*
Y959521D01*
X763701Y985641D01*
X750180Y1009059D01*
X731059Y1028180D01*
X707641Y1041701D01*
X681521Y1048700D01*
D02*
G37*
G36*
X427521D02*
X400479D01*
X374359Y1041701D01*
X350941Y1028180D01*
X331820Y1009059D01*
X318299Y985641D01*
X311300Y959521D01*
Y932479D01*
X318299Y906359D01*
X331820Y882941D01*
X350941Y863819D01*
X374359Y850299D01*
X400479Y843300D01*
X427521D01*
X453641Y850299D01*
X477059Y863819D01*
X496180Y882941D01*
X509701Y906359D01*
X516700Y932479D01*
Y959521D01*
X509701Y985641D01*
X496180Y1009059D01*
X477059Y1028180D01*
X453641Y1041701D01*
X427521Y1048700D01*
D02*
G37*
G36*
X1134472Y962700D02*
X1109528D01*
X1086483Y953154D01*
X1068846Y935517D01*
X1059300Y912472D01*
Y887528D01*
X1068846Y864483D01*
X1086483Y846846D01*
X1109528Y837300D01*
X1134472D01*
X1157517Y846846D01*
X1175154Y864483D01*
X1180701Y877875D01*
X1201300D01*
Y859800D01*
X1423700D01*
Y881782D01*
X1438918D01*
X1472564Y848136D01*
X1472300Y847499D01*
Y832501D01*
X1478039Y818645D01*
X1488645Y808040D01*
X1502501Y802300D01*
X1517499D01*
X1531355Y808040D01*
X1541961Y818645D01*
X1547700Y832501D01*
Y847499D01*
X1541961Y861355D01*
X1531355Y871961D01*
X1517499Y877700D01*
X1502501D01*
X1501864Y877436D01*
X1462150Y917150D01*
X1455429Y921641D01*
X1447500Y923218D01*
X1447499Y923218D01*
X1423700D01*
Y945200D01*
X1201300D01*
Y922125D01*
X1180701D01*
X1175154Y935517D01*
X1157517Y953154D01*
X1134472Y962700D01*
D02*
G37*
G36*
X1423700Y818200D02*
X1201300D01*
Y732800D01*
X1423700D01*
Y818200D01*
D02*
G37*
G36*
X1617499Y876700D02*
X1602501D01*
X1588645Y870960D01*
X1578040Y860355D01*
X1572300Y846499D01*
Y831501D01*
X1578040Y817645D01*
X1588645Y807039D01*
X1602501Y801300D01*
X1617499D01*
X1618136Y801564D01*
X1657849Y761851D01*
X1657850Y761850D01*
X1664571Y757359D01*
X1672500Y755782D01*
X1696300D01*
Y732800D01*
X1777875D01*
Y708701D01*
X1764483Y703154D01*
X1746846Y685517D01*
X1737300Y662472D01*
Y637528D01*
X1746846Y614483D01*
X1764483Y596846D01*
X1787528Y587300D01*
X1812472D01*
X1835517Y596846D01*
X1853154Y614483D01*
X1862700Y637528D01*
Y662472D01*
X1853154Y685517D01*
X1835517Y703154D01*
X1822125Y708701D01*
Y732800D01*
X1918700D01*
Y818200D01*
X1696300D01*
Y797218D01*
X1681081D01*
X1647436Y830864D01*
X1647700Y831501D01*
Y846499D01*
X1641961Y860355D01*
X1631355Y870960D01*
X1617499Y876700D01*
D02*
G37*
G36*
X2529200Y632692D02*
X2514202D01*
X2500346Y626953D01*
X2489740Y616348D01*
X2484001Y602491D01*
Y587493D01*
X2489740Y573637D01*
X2500346Y563032D01*
X2514202Y557292D01*
X2529200D01*
X2543056Y563032D01*
X2553661Y573637D01*
X2559401Y587493D01*
Y602491D01*
X2553661Y616348D01*
X2543056Y626953D01*
X2529200Y632692D01*
D02*
G37*
%LPD*%
G36*
X2471000Y3464700D02*
X2381500D01*
Y3564700D01*
X2471000D01*
Y3464700D01*
D02*
G37*
G36*
X1771000D02*
X1681500D01*
Y3564700D01*
X1771000D01*
Y3464700D01*
D02*
G37*
G36*
X1705000Y3694700D02*
X1614500D01*
Y3437200D01*
X1450000D01*
Y4132200D01*
X1705000D01*
Y3694700D01*
D02*
G37*
G36*
X2405000D02*
X2314500D01*
Y3437200D01*
X2150000D01*
Y4132200D01*
X2405000D01*
Y3694700D01*
D02*
G37*
G36*
X2687875Y2697945D02*
Y2684140D01*
X2363318Y2359583D01*
X1665422D01*
X1662985Y2362019D01*
X1656309Y2370316D01*
X1662985Y2378612D01*
X1665422Y2381049D01*
X2345262D01*
X2353729Y2382733D01*
X2360907Y2387529D01*
X2675173Y2701794D01*
X2675175Y2701797D01*
X2687875Y2697945D01*
D02*
G37*
G36*
X3317185Y1910884D02*
X3317805Y1909955D01*
X3347350Y1880410D01*
Y1711300D01*
X3349905D01*
Y1557700D01*
X3315350D01*
Y1432300D01*
X3325025D01*
X3329885Y1420567D01*
X3316684Y1407366D01*
X3315311Y1405311D01*
X3311022Y1404298D01*
X3300789Y1405311D01*
X3299416Y1407366D01*
X3286215Y1420567D01*
X3291075Y1432300D01*
X3300750D01*
Y1557700D01*
X3266195D01*
Y1711300D01*
X3268750D01*
Y1880410D01*
X3301531Y1913191D01*
X3302102Y1913387D01*
X3317185Y1910884D01*
D02*
G37*
G36*
G01X2350001Y30001D02*
G01Y422501D01*
G02X2412501Y485001I62500J0D01*
G01X2537501D01*
G02X2600001Y422501I0J-62500D01*
G01Y30001D01*
G01X2350001D01*
D02*
G37*
G36*
G01X2700000D02*
G01X2700001Y422501D01*
G02X2762501Y485001I62500J0D01*
G01X2887501D01*
G02X2950001Y422501I0J-62500D01*
G01X2950000Y30001D01*
G01X2700000D01*
D02*
G37*
G36*
G01X3400000D02*
G01X3400001Y422501D01*
G02X3462501Y485001I62500J0D01*
G01X3587501D01*
G02X3650001Y422501I0J-62500D01*
G01X3650000Y30001D01*
G01X3400000D01*
D02*
G37*
G36*
G01X3050001D02*
G01Y422501D01*
G02X3112501Y485001I62500J0D01*
G01X3237501D01*
G02X3300001Y422501I0J-62500D01*
G01Y30001D01*
G01X3050001D01*
D02*
G37*
G36*
G01X1650001D02*
G01Y422501D01*
G02X1712501Y485001I62500J0D01*
G01X1837501D01*
G02X1900001Y422501I0J-62500D01*
G01Y30001D01*
G01X1650001D01*
D02*
G37*
G36*
G01X2000000D02*
G01X2000001Y422501D01*
G02X2062501Y485001I62500J0D01*
G01X2187501D01*
G02X2250001Y422501I0J-62500D01*
G01X2250000Y30001D01*
G01X2000000D01*
D02*
G37*
G36*
G01X770000Y30000D02*
G01Y770000D01*
G01X30000D01*
G01X29999Y400000D01*
G03X400000Y30000I370000J0D01*
G01X770000Y30000D01*
D02*
G37*
G36*
G01X1300000Y30001D02*
G01X1300001Y422501D01*
G02X1362501Y485001I62500J0D01*
G01X1487501D01*
G02X1550001Y422501I0J-62500D01*
G01X1550000Y30001D01*
G01X1300000D01*
D02*
G37*
G36*
G01X950001D02*
G01Y422501D01*
G02X1012501Y485001I62500J0D01*
G01X1137501D01*
G02X1200001Y422501I0J-62500D01*
G01Y30001D01*
G01X950001D01*
D02*
G37*
G36*
G01X1200001Y4970000D02*
G01X1200000Y4577500D01*
G02X1137500Y4515000I-62500J0D01*
G01X1012500D01*
G02X950000Y4577500I0J62500D01*
G01X950001Y4970000D01*
G01X1200001D01*
D02*
G37*
G36*
G01X1550000D02*
G01Y4577500D01*
G02X1487500Y4515000I-62500J0D01*
G01X1362500D01*
G02X1300000Y4577500I0J62500D01*
G01Y4970000D01*
G01X1550000D01*
D02*
G37*
G36*
G01X1900001D02*
G01X1900000Y4577500D01*
G02X1837500Y4515000I-62500J0D01*
G01X1712500D01*
G02X1650000Y4577500I0J62500D01*
G01X1650001Y4970000D01*
G01X1900001D01*
D02*
G37*
G36*
G01X2250000D02*
G01Y4577500D01*
G02X2187500Y4515000I-62500J0D01*
G01X2062500D01*
G02X2000000Y4577500I0J62500D01*
G01Y4970000D01*
G01X2250000D01*
D02*
G37*
G36*
G01X2600001D02*
G01X2600000Y4577500D01*
G02X2537500Y4515000I-62500J0D01*
G01X2412500D01*
G02X2350000Y4577500I0J62500D01*
G01X2350001Y4970000D01*
G01X2600001D01*
D02*
G37*
G36*
G01X2950000D02*
G01Y4577500D01*
G02X2887500Y4515000I-62500J0D01*
G01X2762500D01*
G02X2700000Y4577500I0J62500D01*
G01Y4970000D01*
G01X2950000D01*
D02*
G37*
G36*
G01X4970000Y770000D02*
G01X4230000D01*
G01Y30000D01*
G01X4600000Y29999D01*
G03X4969999Y400000I0J370000D01*
G01X4970000Y770000D01*
D02*
G37*
G36*
G01X30000Y4230000D02*
G01X770000D01*
G01Y4970000D01*
G01X400000Y4970000D01*
G03X30000Y4600000I0J-370000D01*
G01X30000Y4230000D01*
D02*
G37*
G36*
G01X4230000Y4970000D02*
G01Y4230000D01*
G01X4970000D01*
G01X4970000Y4600000D01*
G03X4600000Y4969999I-370000J0D01*
G01X4230000Y4970000D01*
D02*
G37*
D10*
X2301932Y3026368D02*
Y3100960D01*
X2245600Y3020000D02*
Y3021728D01*
X2268067Y3044195D01*
X2301932Y3026368D02*
X2308300Y3020000D01*
X1990000Y3203300D02*
X1996914Y3196386D01*
X2011675D01*
X1990000Y3140600D02*
X1994795D01*
X2014195Y3160000D01*
X2011675Y3196386D02*
X2014196Y3193865D01*
X2209027D01*
X2014195Y3160000D02*
X2195000D01*
X2268067Y3086933D01*
Y3044195D02*
Y3086933D01*
X2209027Y3193865D02*
X2301932Y3100960D01*
D12*
X1045000Y1537500D02*
G03*
X1040000Y1532500I0J-5000D01*
G01*
X2117500Y3292500D02*
Y3360000D01*
X2252500Y3292500D02*
Y3360000D01*
X1045000Y1537500D02*
X1152000D01*
X1312500D01*
X1122000Y900000D02*
X1240000D01*
X1800000Y768000D02*
X1807500Y775500D01*
X1800000Y650000D02*
Y768000D01*
X3181050Y1824000D02*
X3292810Y1935760D01*
X3333450Y1925600D02*
X3435050Y1824000D01*
X1924077Y2040000D02*
X2550000D01*
X1855000Y2109077D02*
X1924077Y2040000D01*
X1855000Y2109077D02*
Y2232500D01*
X2000000Y980000D02*
X2199996Y780004D01*
X3967496D02*
X4027500Y720000D01*
X2199996Y780004D02*
X3967496D01*
X4668200Y1882500D02*
X4670700Y1880000D01*
X4760000D01*
X4668200Y2017500D02*
X4670700Y2020000D01*
X4760000D01*
X3227050Y1340000D02*
X3233050Y1334000D01*
Y1306950D02*
Y1334000D01*
X3170000Y1340000D02*
X3227050D01*
X1260000Y2332500D02*
X1297097Y2295403D01*
X1260000Y2477500D02*
X1297097Y2514597D01*
X1358664D01*
X1297097Y2295403D02*
X1358664D01*
X2570000Y2150000D02*
Y2225587D01*
X2431250Y2208750D02*
X2452500Y2187500D01*
X2424601Y2208750D02*
X2431250D01*
X2570000Y2225587D02*
X2694413Y2350000D01*
X2550000Y2040000D02*
X2660000Y2150000D01*
X2966250Y2643750D02*
X2987500Y2622500D01*
X2070000Y2150000D02*
Y2213061D01*
X2145000Y2288061D01*
X1634231Y2337458D02*
X2372482D01*
X1634231Y2403174D02*
X2345262D01*
X2145000Y2288061D02*
X2428101D01*
X2759880Y2619840D01*
X2317500Y2187500D02*
X2338750Y2208750D01*
X2317500Y2120000D02*
Y2187500D01*
X2694413Y2350000D02*
X3070000D01*
X2452500Y2120000D02*
Y2187500D01*
X3070000Y2350000D02*
X3170000Y2450000D01*
Y2550000D01*
X2987500Y2622500D02*
X3055000D01*
X2710000Y2674975D02*
Y3010000D01*
X2372482Y2337458D02*
X2710000Y2674975D01*
X2966250Y2736250D02*
X2987500Y2757500D01*
X2345262Y2403174D02*
X2659528Y2717439D01*
Y3052464D01*
X2987500Y2757500D02*
X3055000D01*
X1152000Y1664500D02*
X1312500D01*
X1043000D02*
X1152000D01*
X1040000Y1667500D02*
X1043000Y1664500D01*
X1807500Y1029500D02*
X1949500D01*
X2000000Y1080000D01*
Y1152500D01*
X2000000Y1152500D02*
X2000000Y1152500D01*
X1935000Y1537500D02*
X2000000Y1472500D01*
X1807500Y1537500D02*
X1935000D01*
X2117500Y3292500D02*
X2138750Y3271250D01*
X1835917Y2768418D02*
X1904082D01*
X2231250Y3271250D02*
X2252500Y3292500D01*
X1835917Y2668418D02*
X1904082D01*
X1815000Y2647500D02*
X1835917Y2668418D01*
X2423569Y3281365D02*
X2504293Y3200640D01*
X2423569Y3281365D02*
Y3282025D01*
X2367527Y3264933D02*
X2472460Y3160000D01*
X2358513Y3264933D02*
X2367527D01*
X2472460Y3160000D02*
X2890000D01*
X2410000Y3295594D02*
X2423569Y3282025D01*
X2410000Y3295594D02*
Y3305000D01*
X2504293Y3200640D02*
X2906833D01*
X3333450Y2774024D01*
X2890000Y3160000D02*
X3292810Y2757190D01*
X3333450Y1925600D02*
Y2774024D01*
X3292810Y1935760D02*
Y2757190D01*
X2559056Y2759056D02*
Y3050755D01*
X2303646Y2503646D02*
X2559056Y2759056D01*
X1634231Y2503646D02*
X2303646D01*
D13*
X1260000Y2337500D02*
D03*
Y2472500D02*
D03*
X2981050Y1115000D02*
D03*
Y980000D02*
D03*
X4668200Y1882500D02*
D03*
Y2017500D02*
D03*
X1815000Y2782500D02*
D03*
Y2647500D02*
D03*
X3055000Y2757500D02*
D03*
Y2622500D02*
D03*
X1040000Y1667500D02*
D03*
Y1532500D02*
D03*
D32*
X3328050Y918000D02*
D03*
X3193050D02*
D03*
X3508050Y1495000D02*
D03*
X3373050D02*
D03*
X3243050D02*
D03*
X3108050D02*
D03*
X2247500Y3350000D02*
D03*
X2112500D02*
D03*
X2317500Y2120000D02*
D03*
X2452500D02*
D03*
X1906000Y3514700D02*
D03*
X1771000D02*
D03*
X2606000D02*
D03*
X2471000D02*
D03*
D40*
X1672500Y776500D02*
X1807500D01*
X1610000Y839000D02*
X1672500Y776500D01*
X2420000Y930000D02*
X2425320Y935320D01*
X1447500Y902500D02*
X1510000Y840000D01*
X1312500Y902500D02*
X1447500D01*
D42*
X160000Y1200000D02*
D03*
X414000D02*
D03*
X668000D02*
D03*
Y946000D02*
D03*
X414000D02*
D03*
D43*
X922000Y1200000D02*
D03*
Y946000D02*
D03*
X160000D02*
D03*
D44*
X435000Y1885000D02*
D03*
Y2685000D02*
D03*
D45*
X620000Y3840000D02*
D03*
Y3400000D02*
D03*
D46*
X4600000Y150000D02*
D03*
X4776777Y223223D02*
D03*
X4423223D02*
D03*
X4850000Y400000D02*
D03*
X4350000D02*
D03*
X4776777Y576777D02*
D03*
X4423223D02*
D03*
X4600000Y650000D02*
D03*
X150000Y400000D02*
D03*
X223223Y223223D02*
D03*
Y576777D02*
D03*
X400000Y150000D02*
D03*
Y650000D02*
D03*
X576777Y223223D02*
D03*
Y576777D02*
D03*
X650000Y400000D02*
D03*
X400000Y4850000D02*
D03*
X223223Y4776777D02*
D03*
X576777D02*
D03*
X150000Y4600000D02*
D03*
X650000D02*
D03*
X223223Y4423223D02*
D03*
X576777D02*
D03*
X400000Y4350000D02*
D03*
X4850000Y4600000D02*
D03*
X4776777Y4776777D02*
D03*
Y4423223D02*
D03*
X4600000Y4850000D02*
D03*
Y4350000D02*
D03*
X4423223Y4776777D02*
D03*
Y4423223D02*
D03*
X4350000Y4600000D02*
D03*
D47*
X2135997Y2562297D02*
D03*
X4866124Y1535415D02*
D03*
X4799999Y3899999D02*
D03*
Y3599999D02*
D03*
Y1799999D02*
D03*
Y1500000D02*
D03*
Y1200000D02*
D03*
X4499999Y3899999D02*
D03*
Y3599999D02*
D03*
Y3299999D02*
D03*
Y2999999D02*
D03*
Y2699999D02*
D03*
Y2399999D02*
D03*
Y2099999D02*
D03*
Y1200000D02*
D03*
Y900000D02*
D03*
X4199999Y4199999D02*
D03*
Y3899999D02*
D03*
Y3599999D02*
D03*
Y3299999D02*
D03*
Y2999999D02*
D03*
Y2699999D02*
D03*
Y2399999D02*
D03*
Y2099999D02*
D03*
Y1799999D02*
D03*
Y900000D02*
D03*
X3899999Y4799999D02*
D03*
Y4199999D02*
D03*
Y2999999D02*
D03*
Y2699999D02*
D03*
Y2399999D02*
D03*
Y2099999D02*
D03*
Y1799999D02*
D03*
Y1500000D02*
D03*
Y1200000D02*
D03*
Y900000D02*
D03*
Y600000D02*
D03*
Y300000D02*
D03*
X3599999Y3899999D02*
D03*
Y3599999D02*
D03*
Y3299999D02*
D03*
Y2999999D02*
D03*
Y2699999D02*
D03*
Y2399999D02*
D03*
Y2099999D02*
D03*
Y1500000D02*
D03*
Y1200000D02*
D03*
Y900000D02*
D03*
Y600000D02*
D03*
X3299999Y4799999D02*
D03*
Y4199999D02*
D03*
Y3899999D02*
D03*
Y3599999D02*
D03*
Y3299999D02*
D03*
Y2999999D02*
D03*
Y600000D02*
D03*
X2999999Y4799999D02*
D03*
Y4499999D02*
D03*
Y4199999D02*
D03*
Y3899999D02*
D03*
Y3599999D02*
D03*
Y3299999D02*
D03*
X2699999Y4499999D02*
D03*
Y4199999D02*
D03*
Y3299999D02*
D03*
Y2099999D02*
D03*
Y1500000D02*
D03*
Y900000D02*
D03*
Y600000D02*
D03*
X2099999Y4199999D02*
D03*
Y600000D02*
D03*
X1799999Y3899999D02*
D03*
Y2999999D02*
D03*
Y1799999D02*
D03*
X1500000Y4199999D02*
D03*
Y600000D02*
D03*
X1200000Y4199999D02*
D03*
Y3299999D02*
D03*
Y2999999D02*
D03*
Y2699999D02*
D03*
Y2099999D02*
D03*
Y1500000D02*
D03*
X900000Y4799999D02*
D03*
Y4499999D02*
D03*
Y2999999D02*
D03*
Y600000D02*
D03*
Y300000D02*
D03*
X600000Y3599999D02*
D03*
Y3299999D02*
D03*
Y2699999D02*
D03*
Y2399999D02*
D03*
Y2099999D02*
D03*
X300000Y3899999D02*
D03*
Y3599999D02*
D03*
Y2999999D02*
D03*
Y2699999D02*
D03*
Y2399999D02*
D03*
Y2099999D02*
D03*
Y1799999D02*
D03*
Y1500000D02*
D03*
X4930549Y1527899D02*
D03*
X4643169Y1777145D02*
D03*
X4556564Y1757813D02*
D03*
X4476247Y1757811D02*
D03*
X4390245Y1756801D02*
D03*
X4297558Y1745252D02*
D03*
X4207546Y1711538D02*
D03*
X4130680Y1654791D02*
D03*
X4075687Y1587260D02*
D03*
X4042071Y1511133D02*
D03*
X4005211Y1424561D02*
D03*
X3978717Y1337486D02*
D03*
X4276856Y1358169D02*
D03*
X4269954Y1447950D02*
D03*
X4318763Y1515485D02*
D03*
X4443672Y1541628D02*
D03*
X4586861Y1540997D02*
D03*
X4698588Y1512743D02*
D03*
X4733074Y1753264D02*
D03*
X4676564Y1696637D02*
D03*
X4596565D02*
D03*
X4516565D02*
D03*
X4436565D02*
D03*
X4356569Y1695807D02*
D03*
X4278126Y1680102D02*
D03*
X4206711Y1644048D02*
D03*
X4148761Y1588896D02*
D03*
X4106491Y1520976D02*
D03*
X4086179Y1443598D02*
D03*
X4041924Y1376954D02*
D03*
X4037736Y1297063D02*
D03*
X4222264Y1303846D02*
D03*
X4213773Y1383394D02*
D03*
X4184213Y1457732D02*
D03*
X4220557Y1529000D02*
D03*
X4282253Y1579927D02*
D03*
X4359117Y1602108D02*
D03*
X4439106Y1603363D02*
D03*
X4519106D02*
D03*
X4599106D02*
D03*
X4679036Y1600011D02*
D03*
X4738716Y1546736D02*
D03*
X4887597Y1750237D02*
D03*
X1610000Y839000D02*
D03*
X1950000Y2280000D02*
D03*
X1855000Y2232500D02*
D03*
X1214779Y3784800D02*
D03*
Y3865200D02*
D03*
X1295222Y3784800D02*
D03*
X1255001Y3825000D02*
D03*
X1295222Y3865200D02*
D03*
X3270000Y4595221D02*
D03*
Y4514779D02*
D03*
X3310221Y4555000D02*
D03*
X3350442Y4514779D02*
D03*
Y4595221D02*
D03*
X3390664Y4555000D02*
D03*
X3430885Y4514779D02*
D03*
Y4595221D02*
D03*
X2759480Y3462829D02*
D03*
Y4025925D02*
D03*
Y3704156D02*
D03*
Y3865040D02*
D03*
X2719259Y3583492D02*
D03*
Y4066146D02*
D03*
X2759480Y3945483D02*
D03*
X2679038Y4106367D02*
D03*
Y3945483D02*
D03*
Y3784598D02*
D03*
X2759480Y3623713D02*
D03*
X2719259Y3663935D02*
D03*
Y3503050D02*
D03*
X2679038Y3865040D02*
D03*
X2719259Y3824819D02*
D03*
X2759480Y3543271D02*
D03*
X2719259Y3985704D02*
D03*
X2679038Y3704156D02*
D03*
Y3543271D02*
D03*
X2759480Y3784598D02*
D03*
X2679038Y3623713D02*
D03*
X2719259Y3744377D02*
D03*
X2679038Y3462829D02*
D03*
X2719259Y3905261D02*
D03*
X2679038Y4025925D02*
D03*
X2759480Y4106367D02*
D03*
X2190520Y3462829D02*
D03*
Y4025925D02*
D03*
Y3704156D02*
D03*
Y3865040D02*
D03*
X2230741Y3583492D02*
D03*
Y4066146D02*
D03*
X2190520Y3945483D02*
D03*
X2270962Y4106367D02*
D03*
Y3945483D02*
D03*
Y3784598D02*
D03*
X2190520Y3623713D02*
D03*
X2230741Y3663935D02*
D03*
Y3503050D02*
D03*
X2270962Y3865040D02*
D03*
X2230741Y3824819D02*
D03*
X2190520Y3543271D02*
D03*
X2230741Y3985704D02*
D03*
X2270962Y3704156D02*
D03*
Y3543271D02*
D03*
X2190520Y3784598D02*
D03*
X2270962Y3623713D02*
D03*
X2230741Y3744377D02*
D03*
X2270962Y3462829D02*
D03*
X2230741Y3905261D02*
D03*
X2270962Y4025925D02*
D03*
X2190520Y4106367D02*
D03*
X2059480Y3462829D02*
D03*
Y4025925D02*
D03*
Y3704156D02*
D03*
Y3865040D02*
D03*
X2019259Y3583492D02*
D03*
Y4066146D02*
D03*
X2059480Y3945483D02*
D03*
X1979038Y4106367D02*
D03*
Y3945483D02*
D03*
Y3784598D02*
D03*
X2059480Y3623713D02*
D03*
X2019259Y3663935D02*
D03*
Y3503050D02*
D03*
X1979038Y3865040D02*
D03*
X2019259Y3824819D02*
D03*
X2059480Y3543271D02*
D03*
X2019259Y3985704D02*
D03*
X1979038Y3704156D02*
D03*
Y3543271D02*
D03*
X2059480Y3784598D02*
D03*
X1979038Y3623713D02*
D03*
X2019259Y3744377D02*
D03*
X1979038Y3462829D02*
D03*
X2019259Y3905261D02*
D03*
X1979038Y4025925D02*
D03*
X2059480Y4106367D02*
D03*
X1490520D02*
D03*
X1570962Y4025925D02*
D03*
X1530741Y3905261D02*
D03*
X1570962Y3462829D02*
D03*
X1530741Y3744377D02*
D03*
X1570962Y3623713D02*
D03*
X1490520Y3784598D02*
D03*
X1570962Y3543271D02*
D03*
Y3704156D02*
D03*
X1530741Y3985704D02*
D03*
X1490520Y3543271D02*
D03*
X1530741Y3824819D02*
D03*
X1570962Y3865040D02*
D03*
X1530741Y3503050D02*
D03*
Y3663935D02*
D03*
X1490520Y3623713D02*
D03*
X1570962Y3784598D02*
D03*
Y3945483D02*
D03*
Y4106367D02*
D03*
X1490520Y3945483D02*
D03*
X1530741Y4066146D02*
D03*
Y3583492D02*
D03*
X1490520Y3865040D02*
D03*
Y3704156D02*
D03*
Y4025925D02*
D03*
Y3462829D02*
D03*
X794000Y3460001D02*
D03*
X846000Y3460000D02*
D03*
X1002000Y3460000D02*
D03*
X898000Y3460000D02*
D03*
X950000Y3460000D02*
D03*
X3648009Y4555000D02*
D03*
X3607788Y4514779D02*
D03*
Y4595221D02*
D03*
X3688231D02*
D03*
Y4514779D02*
D03*
X3728452Y4555000D02*
D03*
X3768673Y4595221D02*
D03*
Y4514779D02*
D03*
X3808894Y4555000D02*
D03*
X3849115Y4595221D02*
D03*
Y4514779D02*
D03*
X3889336Y4555000D02*
D03*
X3929558Y4595221D02*
D03*
Y4514779D02*
D03*
X3969779Y4555000D02*
D03*
X4010000Y4514779D02*
D03*
Y4595221D02*
D03*
X1152000Y1537500D02*
D03*
X2374680Y1010000D02*
D03*
X3373050Y1500000D02*
D03*
X3243050Y1495000D02*
D03*
X2420000Y930000D02*
D03*
X2412500Y1480000D02*
D03*
X2720000Y1277500D02*
D03*
X2580000Y990000D02*
D03*
X2521701Y594992D02*
D03*
X3892500Y720000D02*
D03*
X4760000Y1880000D02*
D03*
Y2020000D02*
D03*
X3170000Y1340000D02*
D03*
X2000000Y1607500D02*
D03*
X3955000Y3754000D02*
D03*
X3128100Y1495000D02*
D03*
X3488000D02*
D03*
X3689050Y1824000D02*
D03*
X3022234Y1120000D02*
D03*
X3328050Y918000D02*
D03*
X2880088Y1823984D02*
D03*
X2720080D02*
D03*
X1358664Y2514597D02*
D03*
Y2295403D02*
D03*
X3050000Y2880000D02*
D03*
X2973366Y2933366D02*
D03*
X2570000Y2150000D02*
D03*
X2424601Y2208750D02*
D03*
X2660000Y2150000D02*
D03*
X3005000Y2514600D02*
D03*
X2966250Y2643750D02*
D03*
X2850000Y2140000D02*
D03*
X2000000Y980000D02*
D03*
X2070000Y2150000D02*
D03*
X2338750Y2208750D02*
D03*
X2759880Y2619840D02*
D03*
X3070849Y2010850D02*
D03*
X3012936Y2400000D02*
D03*
X3158314Y2108314D02*
D03*
X2910000Y2267060D02*
D03*
X2962536Y2464528D02*
D03*
X3170000Y2550000D02*
D03*
X4027500Y720000D02*
D03*
X1807500Y902500D02*
D03*
X2188285Y2866566D02*
D03*
X2180000Y2615552D02*
D03*
X1807500Y1283500D02*
D03*
X1510000Y840000D02*
D03*
X1307992Y780008D02*
D03*
X2470800Y3514700D02*
D03*
X2308300Y3020000D02*
D03*
X2245600D02*
D03*
X2355000Y2845000D02*
D03*
X1990000Y3203300D02*
D03*
Y3140600D02*
D03*
X2966250Y2736250D02*
D03*
X2460000Y2983819D02*
D03*
X1152000Y1664500D02*
D03*
X1807500D02*
D03*
Y1410500D02*
D03*
Y1152500D02*
D03*
X2000000D02*
D03*
Y1472500D02*
D03*
X2408357Y2910043D02*
D03*
X2138750Y3271250D02*
D03*
X1711500Y3514700D02*
D03*
X1904082Y2768418D02*
D03*
X2231250Y3271250D02*
D03*
X1904082Y2668418D02*
D03*
X2962536Y3015472D02*
D03*
X4700000Y2250000D02*
D03*
X2410000Y3305000D02*
D03*
X2358513Y3264933D02*
D03*
X2610000Y3010000D02*
D03*
X2659528Y3052464D02*
D03*
X1634231Y2403174D02*
D03*
X2559056Y3050755D02*
D03*
X1634231Y2503646D02*
D03*
X2710000Y3010000D02*
D03*
X1634231Y2337458D02*
D03*
D49*
X1122000Y900000D02*
D03*
X1800000Y650000D02*
D03*
D50*
X3420000Y1170000D02*
D03*
Y1120000D02*
D03*
Y1220000D02*
D03*
Y1270000D02*
D03*
X3146100Y1220000D02*
D03*
Y1270000D02*
D03*
Y1170000D02*
D03*
Y1120000D02*
D03*
D51*
X3333050Y1306950D02*
D03*
X3283050Y1083050D02*
D03*
Y1306950D02*
D03*
X3233050Y1083050D02*
D03*
Y1306950D02*
D03*
X3333050Y1083050D02*
D03*
D52*
X2419050Y1844000D02*
D03*
X2673050D02*
D03*
X2927050D02*
D03*
X3943050D02*
D03*
X3689050D02*
D03*
X3435050D02*
D03*
X3181050D02*
D03*
D53*
X1807500Y1664500D02*
D03*
Y1537500D02*
D03*
Y1410500D02*
D03*
Y1283500D02*
D03*
Y1156500D02*
D03*
Y1029500D02*
D03*
Y902500D02*
D03*
Y775500D02*
D03*
X1312500D02*
D03*
Y902500D02*
D03*
Y1029500D02*
D03*
Y1156500D02*
D03*
Y1283500D02*
D03*
Y1410500D02*
D03*
Y1537500D02*
D03*
Y1664500D02*
D03*
D54*
X2620000Y3784700D02*
D03*
X2330000D02*
D03*
X1920000D02*
D03*
X1630000D02*
D03*
D55*
X3388972Y1735000D02*
X3421050D01*
X3373050Y1500000D02*
Y1758000D01*
Y1431000D02*
Y1495000D01*
X3333050Y1391000D02*
X3373050Y1431000D01*
Y1495000D02*
Y1500000D01*
X3333050Y1306950D02*
Y1391000D01*
X3243050Y1495000D02*
Y1758000D01*
X3283050Y1306950D02*
Y1391000D01*
X3243050Y1431000D02*
X3283050Y1391000D01*
X3243050Y1431000D02*
Y1495000D01*
X3022234Y1120000D02*
X3146100D01*
X2988521D02*
X3022234D01*
X3333050Y923000D02*
Y1083050D01*
%TF.MD5,9719e6a8329306faf1a52445dd7d3d66*%
M02*
